<?xml version="1.0" encoding="UTF-8" standalone="no"?><!DOCTYPE svg PUBLIC "-//W3C//DTD SVG 1.1//EN" "http://www.w3.org/Graphics/SVG/1.1/DTD/svg11.dtd"><svg width="100%" height="100%" viewBox="0 0 296 323" version="1.1" xmlns="http://www.w3.org/2000/svg" xmlns:xlink="http://www.w3.org/1999/xlink" xml:space="preserve" xmlns:serif="http://www.serif.com/" style="fill-rule:evenodd;clip-rule:evenodd;"><g><path d="M259.87,36.112c0,-4.005 3.243,-7.251 7.251,-7.251l0,-8.121c-4.008,0 -7.251,-3.247 -7.251,-7.251c0,-4.005 3.243,-7.251 7.251,-7.251l0,-6.236l-10.461,0c0,4.005 -3.247,7.251 -7.251,7.251c-4.004,0 -7.251,-3.247 -7.251,-7.251l-8.121,0c0,4.005 -3.247,7.251 -7.251,7.251c-4.004,0 -7.251,-3.247 -7.251,-7.251l-8.121,0c0,4.005 -3.247,7.251 -7.255,7.251c-4.004,0 -7.251,-3.247 -7.251,-7.251l-8.121,0c0,4.005 -3.247,7.251 -7.251,7.251c-1.754,0 -3.361,-0.621 -4.614,-1.656c-0.358,-0.296 -0.688,-0.625 -0.981,-0.983c-1.034,-1.254 -1.656,-2.86 -1.656,-4.612l-8.121,0c0,4.005 -3.247,7.251 -7.251,7.251c-4.008,0 -7.255,-3.247 -7.255,-7.251l-8.121,0c0,4.005 -3.247,7.251 -7.251,7.251c-4.004,0 -7.251,-3.247 -7.251,-7.251l-8.121,0c0,4.005 -3.247,7.251 -7.251,7.251c-4.004,0 -7.251,-3.247 -7.251,-7.251l-8.121,0c0,4.005 -3.247,7.251 -7.255,7.251c-4.004,0 -7.251,-3.247 -7.251,-7.251l-8.121,0c0,4.005 -3.247,7.251 -7.251,7.251c-4.004,0 -7.251,-3.247 -7.251,-7.251l-8.121,0c0,4.005 -3.247,7.251 -7.251,7.251c-4.008,0 -7.255,-3.247 -7.255,-7.251l-10.457,0l0,6.236c4.004,0 7.251,3.247 7.251,7.251c0,4.005 -3.247,7.251 -7.251,7.251l0,8.121c4.004,0 7.251,3.247 7.251,7.251c0,4.005 -3.247,7.251 -7.251,7.251l0,8.121c4.004,0 7.251,3.247 7.251,7.251c0,4.005 -3.247,7.251 -7.251,7.251l0,8.121c4.004,0 7.251,3.247 7.251,7.251c0,4.005 -3.247,7.251 -7.251,7.251l0,8.121c4.004,0 7.251,3.247 7.251,7.251c0,4.005 -3.247,7.251 -7.251,7.251l0,8.121c4.004,0 7.251,3.247 7.251,7.251c0,4.005 -3.247,7.251 -7.251,7.251l0,8.121c1.754,0 3.361,0.622 4.614,1.656c0.358,0.295 0.688,0.625 0.981,0.983c1.038,1.253 1.656,2.86 1.656,4.612c0,0.25 -0.012,0.498 -0.037,0.741c-0.122,1.219 -0.549,2.349 -1.2,3.313c-0.26,0.386 -0.557,0.745 -0.887,1.073c-1.31,1.312 -3.125,2.124 -5.127,2.124l0,8.121c4.004,0 7.251,3.247 7.251,7.251c0,4.005 -3.247,7.251 -7.251,7.251l0,8.121c4.004,0 7.251,3.247 7.251,7.251c0,4.005 -3.247,7.251 -7.251,7.251l0,8.121c4.004,0 7.251,3.247 7.251,7.251c0,4.005 -3.247,7.251 -7.251,7.251l0,8.121c4.004,0 7.251,3.247 7.251,7.251c0,4.005 -3.247,7.251 -7.251,7.251l0,8.121c4.004,0 7.251,3.247 7.251,7.251c0,4.005 -3.247,7.251 -7.251,7.251l0,8.121c4.004,0 7.251,3.247 7.251,7.251c0,4.005 -3.247,7.251 -7.251,7.251l0,8.121c4.004,0 7.251,3.247 7.251,7.251c0,4.005 -3.247,7.251 -7.251,7.251l0,6.236l10.457,0c0,-4.005 3.247,-7.251 7.255,-7.251c4.004,0 7.251,3.247 7.251,7.251l8.121,0c0,-4.005 3.247,-7.251 7.251,-7.251c4.004,0 7.251,3.247 7.251,7.251l8.121,0c0,-4.005 3.247,-7.251 7.251,-7.251c4.008,0 7.255,3.247 7.255,7.251l8.121,0c0,-4.005 3.247,-7.251 7.251,-7.251c4.004,0 7.251,3.247 7.251,7.251l8.121,0c0,-4.005 3.247,-7.251 7.251,-7.251c4.004,0 7.251,3.247 7.251,7.251l8.121,0c0,-4.005 3.247,-7.251 7.255,-7.251c4.004,0 7.251,3.247 7.251,7.251l8.121,0c0,-1.752 0.622,-3.359 1.656,-4.612c0.293,-0.358 0.623,-0.687 0.981,-0.983c1.253,-1.034 2.86,-1.656 4.614,-1.656c4.004,0 7.251,3.247 7.251,7.251l8.121,0c0,-4.005 3.247,-7.251 7.251,-7.251c4.008,0 7.255,3.247 7.255,7.251l8.121,0c0,-4.005 3.247,-7.251 7.251,-7.251c4.004,0 7.251,3.247 7.251,7.251l8.121,0c0,-4.005 3.247,-7.251 7.251,-7.251c4.003,0 7.251,3.247 7.251,7.251l10.461,0l0,-6.236c-4.008,0 -7.251,-3.247 -7.251,-7.251c0,-4.005 3.243,-7.251 7.251,-7.251l0,-8.121c-4.008,0 -7.251,-3.247 -7.251,-7.251c0,-4.005 3.243,-7.251 7.251,-7.251l0,-8.121c-4.008,0 -7.251,-3.247 -7.251,-7.251c0,-4.005 3.243,-7.251 7.251,-7.251l0,-8.121c-4.008,0 -7.251,-3.247 -7.251,-7.251c0,-4.005 3.243,-7.251 7.251,-7.251l0,-8.121c-4.008,0 -7.251,-3.247 -7.251,-7.251c0,-4.005 3.243,-7.251 7.251,-7.251l0,-8.121c-4.008,0 -7.251,-3.247 -7.251,-7.251c0,-4.005 3.243,-7.251 7.251,-7.251l0,-8.121c-4.008,0 -7.251,-3.247 -7.251,-7.251c0,-4.005 3.243,-7.251 7.251,-7.251l0,-8.121c-2.002,0 -3.817,-0.812 -5.131,-2.124c-0.326,-0.328 -0.623,-0.688 -0.883,-1.073c-0.651,-0.964 -1.079,-2.094 -1.2,-3.313c-0.024,-0.244 -0.037,-0.491 -0.037,-0.741c0,-1.752 0.618,-3.359 1.652,-4.612c0.297,-0.358 0.627,-0.688 0.985,-0.983c1.253,-1.034 2.86,-1.656 4.614,-1.656l0,-8.121c-4.008,0 -7.251,-3.247 -7.251,-7.251c0,-4.005 3.243,-7.251 7.251,-7.251l0,-8.121c-4.008,0 -7.251,-3.247 -7.251,-7.251c0,-4.005 3.243,-7.251 7.251,-7.251l0,-8.121c-4.008,0 -7.251,-3.247 -7.251,-7.251c0,-4.005 3.243,-7.251 7.251,-7.251l0,-8.121c-4.008,0 -7.251,-3.247 -7.251,-7.251c0,-4.005 3.243,-7.251 7.251,-7.251l0,-8.121c-4.008,0 -7.251,-3.247 -7.251,-7.251Z" style="fill:#f3deb6;fill-rule:nonzero;"/><rect x="42.683" y="14.297" width="209.829" height="292.496" style="fill:url(#_Linear1);fill-rule:nonzero;"/></g><g><clipPath id="_clip2"><polygon points="36.729,115.45 211.242,59.571 267.12,234.084 92.608,289.962 36.729,115.45 "/></clipPath><g clip-path="url(#_clip2)"><g id="g20566"><path id="path14066" d="M92.608,289.962l-3.483,-10.878c-1.294,-4.04 -2.432,-8.13 -3.21,-12.165c-0.778,-4.034 -1.35,-7.963 -1.457,-12.041c-0.262,-4.028 0.197,-7.944 0.812,-11.911c0.77,-4.016 2.006,-8.181 3.808,-12.185l0.245,-20.638l-25.439,-13.099l18.593,-36.108l32.634,-10.449l13.994,-26.925c3.648,-7.336 8.01,-14.044 13.038,-20.28c5.028,-6.236 10.566,-11.95 16.613,-17.141c6.097,-5.036 12.499,-9.656 19.511,-13.443c6.962,-3.942 14.327,-7.158 22.097,-9.645l10.878,-3.483l3.533,11.033c2.488,7.77 4.099,15.478 5.089,23.385c0.834,7.957 0.997,15.957 0.284,23.895c-0.713,7.938 -2.148,15.765 -4.304,23.48c-2.205,7.559 -5.132,15.007 -8.78,22.343l-13.994,26.925l10.499,32.789l-18.437,36.058l-25.645,-13.205l-16.502,12.137c-2.741,4.818 -5.935,8.754 -9.378,11.912c-3.443,3.159 -7.191,5.901 -11.088,8.176c-4.053,2.326 -8.255,4.185 -12.867,5.833c-4.457,1.598 -9.119,3.091 -13.781,4.584l-3.263,1.045Z" style="fill-rule:nonzero;"/><path id="path14068" d="M115.518,168.349c0.783,-0.765 1.411,-1.48 2.039,-2.195c0.677,-0.56 1.355,-1.119 1.983,-1.834c0.522,-0.51 1.15,-1.225 1.778,-1.94c0.522,-0.51 1.1,-1.38 1.833,-2.3c0.578,-0.87 1.106,-1.896 1.684,-2.767c0.423,-0.821 0.845,-1.641 1.268,-2.462c0.267,-0.771 0.69,-1.591 1.112,-2.412c0.217,-0.926 0.795,-1.797 1.324,-2.822l10.775,-20.926c2.958,-5.744 6.376,-11.122 10.204,-16.289c3.878,-5.011 8.166,-9.811 12.965,-14.088l27.421,2.699l18.329,20.859c-0.85,6.44 -2.111,12.669 -4.093,18.786c-1.827,6.067 -4.374,12.023 -7.332,17.768l-16.008,31.339l0.69,33.189l-23.03,9.944l-34.793,-3.251l-22.856,-26.434l-0.712,-18.276l15.42,-16.588Z" style="fill:#fff;fill-rule:nonzero;"/><path id="path14070" d="M162.482,98.313c5.948,-5.503 12.3,-10.278 19.367,-14.425c6.912,-4.098 14.278,-7.313 22.047,-9.801c2.488,7.77 3.994,15.683 4.828,23.64c0.679,8.006 0.531,16.106 -0.493,24.144l-45.75,-23.558Z" style="fill:#e81224;fill-rule:nonzero;"/><path id="path14072" d="M111.605,224.085c2.486,-0.796 4.967,-1.076 7.441,-0.841c2.474,0.236 4.787,1.037 6.838,2.094c2.207,1.007 4.097,2.629 5.726,4.506c1.784,1.827 2.997,4.009 3.793,6.495c0.796,2.486 1.027,4.811 0.791,7.285c-0.236,2.474 -1.037,4.787 -2.15,7.199c-1.64,3.438 -3.741,6.509 -6.196,9.009c-2.405,2.655 -5.115,4.893 -8.08,6.87c-2.965,1.977 -6.029,3.644 -9.348,5.049c-3.319,1.405 -6.844,2.705 -10.418,3.85c-1.144,-3.574 -2.084,-7.043 -2.868,-10.561c-0.628,-3.568 -1.102,-7.186 -1.37,-10.698c-0.113,-3.562 0.341,-6.962 0.899,-10.568c0.764,-3.5 2.094,-6.838 3.89,-10.326c1.162,-2.257 2.734,-4.302 4.506,-5.726c1.877,-1.629 4.059,-2.842 6.545,-3.638Z" style="fill:#f7630c;fill-rule:nonzero;"/><path id="path14074" d="M116.654,229.15c2.486,-0.796 4.911,-0.716 7.012,0.496c2.257,1.162 3.836,2.884 4.682,5.525c0.498,1.554 0.529,3.257 0.355,4.855c-0.124,1.753 -0.658,3.295 -1.348,4.886c-1.056,2.052 -2.318,3.998 -3.834,5.682c-1.411,1.48 -2.977,3.009 -4.643,4.228c-1.616,1.374 -3.487,2.487 -5.358,3.6c-1.921,0.958 -3.997,1.965 -6.123,2.817c-0.541,-2.225 -0.877,-4.345 -1.058,-6.515c-0.386,-2.275 -0.361,-4.339 -0.387,-6.558c0.024,-2.064 0.36,-4.227 0.9,-6.285c0.54,-2.058 1.236,-4.165 2.448,-6.266c0.739,-1.436 1.84,-2.816 2.989,-4.041c1.355,-1.119 2.654,-1.878 4.363,-2.425Z" style="fill:#ffc83d;fill-rule:nonzero;"/><path id="path14076" d="M100.81,203.212l57.649,29.685l-21.916,16.098l-35.952,-18.642l0.219,-27.14Z" style="fill:#4a5459;fill-rule:nonzero;"/><path id="path14082" d="M180.799,189.764l10.449,32.634l-11.092,21.542l-21.697,-11.042l22.34,-43.133Zm-79.989,13.448l-21.542,-11.092l11.092,-21.542l32.789,-10.499l-22.34,43.133Zm31.675,13.844c-0.777,0.249 -1.448,0.292 -2.269,-0.13c-0.771,-0.267 -1.125,-0.839 -1.374,-1.616c-0.249,-0.777 -0.292,-1.448 0.18,-2.114l18.593,-36.108c0.317,-0.615 0.839,-1.125 1.616,-1.374c0.777,-0.249 1.343,-0.087 2.163,0.335c0.615,0.317 1.125,0.839 1.374,1.616c0.199,0.622 0.087,1.343 -0.18,2.114l-18.487,35.903c-0.267,0.771 -0.839,1.125 -1.616,1.374Z" style="fill:#00bcf2;fill-rule:nonzero;"/></g></g><clipPath id="_clip3"><polygon points="125.795,102.369 226.034,153.985 200.985,202.63 100.747,151.015 125.795,102.369 "/></clipPath><g clip-path="url(#_clip3)"><g id="g4"><g id="g6"><path id="circle8" d="M150.591,137.517c7.322,3.77 10.206,12.776 6.435,20.098c-3.77,7.322 -12.776,10.206 -20.098,6.435c-7.322,-3.77 -10.206,-12.776 -6.435,-20.098c3.77,-7.322 12.776,-10.206 20.098,-6.435Z" style="fill:none;stroke:#fff;stroke-width:4.97px;"/><path id="circle10" d="M183.021,154.216c7.322,3.77 10.206,12.776 6.435,20.098c-3.77,7.322 -12.776,10.206 -20.098,6.435c-7.322,-3.77 -10.206,-12.776 -6.435,-20.098c3.77,-7.322 12.776,-10.206 20.098,-6.435Z" style="fill:none;stroke:#fff;stroke-width:4.97px;"/></g><path id="circle12" d="M150.591,137.517c7.322,3.77 10.206,12.776 6.435,20.098c-3.77,7.322 -12.776,10.206 -20.098,6.435c-7.322,-3.77 -10.206,-12.776 -6.435,-20.098c3.77,-7.322 12.776,-10.206 20.098,-6.435Z" style="fill:none;stroke:#f4c300;stroke-width:3.32px;"/><path id="circle14" d="M183.021,154.216c7.322,3.77 10.206,12.776 6.435,20.098c-3.77,7.322 -12.776,10.206 -20.098,6.435c-7.322,-3.77 -10.206,-12.776 -6.435,-20.098c3.77,-7.322 12.776,-10.206 20.098,-6.435Z" style="fill:none;stroke:#009f3d;stroke-width:3.32px;"/><g id="g16"><path id="circle18" d="M141.207,115.9c7.322,3.77 10.206,12.776 6.435,20.098c-3.77,7.322 -12.776,10.206 -20.098,6.435c-7.322,-3.77 -10.206,-12.776 -6.435,-20.098c3.77,-7.322 12.776,-10.206 20.098,-6.435Z" style="fill:none;stroke:#fff;stroke-width:4.97px;"/><path id="circle20" d="M173.637,132.599c7.322,3.77 10.206,12.776 6.435,20.098c-3.77,7.322 -12.776,10.206 -20.098,6.435c-7.322,-3.77 -10.206,-12.776 -6.435,-20.098c3.77,-7.322 12.776,-10.206 20.098,-6.435Z" style="fill:none;stroke:#fff;stroke-width:4.97px;"/><path id="circle22" d="M206.068,149.298c7.322,3.77 10.206,12.776 6.435,20.098c-3.77,7.322 -12.776,10.206 -20.098,6.435c-7.322,-3.77 -10.206,-12.776 -6.435,-20.098c3.77,-7.322 12.776,-10.206 20.098,-6.435Z" style="fill:none;stroke:#fff;stroke-width:4.97px;"/></g><path id="circle24" d="M141.207,115.9c7.322,3.77 10.206,12.776 6.435,20.098c-3.77,7.322 -12.776,10.206 -20.098,6.435c-7.322,-3.77 -10.206,-12.776 -6.435,-20.098c3.77,-7.322 12.776,-10.206 20.098,-6.435Z" style="fill:none;stroke:#0085c7;stroke-width:3.32px;"/><path id="circle26" d="M173.637,132.599c7.322,3.77 10.206,12.776 6.435,20.098c-3.77,7.322 -12.776,10.206 -20.098,6.435c-7.322,-3.77 -10.206,-12.776 -6.435,-20.098c3.77,-7.322 12.776,-10.206 20.098,-6.435Z" style="fill:none;stroke:#a6a6a6;stroke-width:3.32px;"/><path id="circle28" d="M206.068,149.298c7.322,3.77 10.206,12.776 6.435,20.098c-3.77,7.322 -12.776,10.206 -20.098,6.435c-7.322,-3.77 -10.206,-12.776 -6.435,-20.098c3.77,-7.322 12.776,-10.206 20.098,-6.435Z" style="fill:none;stroke:#df0024;stroke-width:3.32px;"/><g id="g30"><path id="path32" d="M150.591,137.517c2.87,1.478 5.185,3.848 6.594,6.752" style="fill:none;fill-rule:nonzero;stroke:#fff;stroke-width:4.97px;"/><path id="path34" d="M129.047,153.279c-1.106,-6.52 2.248,-13.033 8.198,-15.92" style="fill:none;fill-rule:nonzero;stroke:#fff;stroke-width:4.97px;"/><path id="path36" d="M183.021,154.216c2.87,1.478 5.185,3.848 6.594,6.752" style="fill:none;fill-rule:nonzero;stroke:#fff;stroke-width:4.97px;"/><path id="path38" d="M161.477,169.978c-1.106,-6.52 2.248,-13.033 8.198,-15.92" style="fill:none;fill-rule:nonzero;stroke:#fff;stroke-width:4.97px;"/></g><path id="path40" d="M150.581,137.512c2.05,1.056 3.86,2.6 5.222,4.461c1.362,1.861 2.283,4.042 2.669,6.316" style="fill:none;fill-rule:nonzero;stroke:#f4c300;stroke-width:3.32px;"/><path id="path42" d="M130.334,157.298c-2.049,-4.223 -1.99,-9.173 0.158,-13.346c2.149,-4.173 6.145,-7.096 10.772,-7.881" style="fill:none;fill-rule:nonzero;stroke:#f4c300;stroke-width:3.32px;"/><path id="path44" d="M183.011,154.211c2.05,1.056 3.86,2.6 5.222,4.461c1.362,1.861 2.283,4.042 2.669,6.316" style="fill:none;fill-rule:nonzero;stroke:#009f3d;stroke-width:3.32px;"/><path id="path46" d="M162.764,173.997c-2.049,-4.223 -1.99,-9.173 0.158,-13.346c2.149,-4.173 6.145,-7.096 10.772,-7.881" style="fill:none;fill-rule:nonzero;stroke:#009f3d;stroke-width:3.32px;"/></g></g></g><path d="M77.389,51.782l-5.729,0l-1.66,-5.192l-8.301,0l-1.644,5.192l-5.697,0l8.496,-23.34l6.234,0l8.301,23.34Zm-8.594,-9.229l-2.507,-7.845c-0.184,-0.586 -0.315,-1.286 -0.391,-2.1l-0.13,0c-0.054,0.684 -0.19,1.362 -0.407,2.035l-2.539,7.91l5.973,0Z" style="fill:#bae2fd;fill-rule:nonzero;"/><path d="M94.365,32.723l-6.657,0l0,19.059l-5.273,0l0,-19.059l-6.624,0l0,-4.281l18.555,0l0,4.281Z" style="fill:#bae2fd;fill-rule:nonzero;"/><path d="M117.705,51.782l-5.273,0l0,-9.505l-9.668,0l0,9.505l-5.257,0l0,-23.34l5.257,0l0,9.31l9.668,0l0,-9.31l5.273,0l0,23.34Z" style="fill:#bae2fd;fill-rule:nonzero;"/><path d="M137.041,51.782l-13.997,0l0,-23.34l13.46,0l0,4.281l-8.203,0l0,5.192l7.633,0l0,4.264l-7.633,0l0,5.339l8.74,0l0,4.264Z" style="fill:#bae2fd;fill-rule:nonzero;"/><path d="M161.78,51.782l-5.306,0l-9.619,-14.665c-0.564,-0.857 -0.955,-1.503 -1.172,-1.937l-0.065,0c0.087,0.825 0.13,2.083 0.13,3.776l0,12.826l-4.964,0l0,-23.34l5.664,0l9.261,14.209c0.423,0.64 0.814,1.275 1.172,1.904l0.065,0c-0.087,-0.543 -0.13,-1.611 -0.13,-3.206l0,-12.907l4.964,0l0,23.34Z" style="fill:#bae2fd;fill-rule:nonzero;"/><path d="M166.045,50.887l0,-5.208c0.944,0.792 1.969,1.386 3.076,1.782c1.107,0.396 2.224,0.594 3.353,0.594c0.662,0 1.24,-0.06 1.733,-0.179c0.494,-0.119 0.906,-0.285 1.237,-0.496c0.331,-0.212 0.578,-0.461 0.741,-0.749c0.163,-0.288 0.244,-0.6 0.244,-0.936c0,-0.456 -0.13,-0.863 -0.391,-1.221c-0.26,-0.358 -0.616,-0.689 -1.066,-0.993c-0.45,-0.304 -0.985,-0.597 -1.603,-0.879c-0.618,-0.282 -1.286,-0.57 -2.002,-0.863c-1.823,-0.76 -3.182,-1.687 -4.077,-2.783c-0.895,-1.096 -1.343,-2.42 -1.343,-3.971c0,-1.215 0.244,-2.26 0.732,-3.133c0.488,-0.873 1.153,-1.592 1.994,-2.157c0.841,-0.564 1.815,-0.979 2.922,-1.245c1.107,-0.266 2.279,-0.399 3.516,-0.399c1.215,0 2.292,0.073 3.231,0.22c0.939,0.146 1.804,0.372 2.596,0.675l0,4.867c-0.391,-0.271 -0.817,-0.51 -1.278,-0.716c-0.461,-0.206 -0.936,-0.377 -1.424,-0.513c-0.488,-0.136 -0.974,-0.236 -1.457,-0.301c-0.483,-0.065 -0.941,-0.098 -1.375,-0.098c-0.597,0 -1.139,0.057 -1.628,0.171c-0.488,0.114 -0.901,0.274 -1.237,0.48c-0.336,0.206 -0.597,0.453 -0.781,0.741c-0.184,0.288 -0.277,0.61 -0.277,0.968c0,0.391 0.103,0.741 0.309,1.05c0.206,0.309 0.499,0.602 0.879,0.879c0.38,0.277 0.841,0.548 1.383,0.814c0.543,0.266 1.156,0.54 1.839,0.822c0.933,0.391 1.771,0.806 2.515,1.245c0.743,0.439 1.381,0.936 1.912,1.489c0.532,0.553 0.939,1.185 1.221,1.896c0.282,0.711 0.423,1.538 0.423,2.482c0,1.302 -0.247,2.395 -0.741,3.28c-0.494,0.884 -1.164,1.6 -2.01,2.148c-0.846,0.548 -1.831,0.941 -2.954,1.18c-1.123,0.239 -2.308,0.358 -3.556,0.358c-1.28,0 -2.498,-0.109 -3.654,-0.326c-1.156,-0.217 -2.157,-0.543 -3.003,-0.977Z" style="fill:#bae2fd;fill-rule:nonzero;"/><path d="M192.054,271.798l0,23.861l-5.127,0l0,-18.066c-0.282,0.25 -0.616,0.486 -1.001,0.708c-0.385,0.222 -0.795,0.423 -1.229,0.602c-0.434,0.179 -0.884,0.331 -1.351,0.456c-0.467,0.125 -0.928,0.214 -1.383,0.269l0,-4.329c1.335,-0.391 2.593,-0.89 3.776,-1.497c1.183,-0.608 2.252,-1.275 3.206,-2.002l3.109,0Z" style="fill:#656565;fill-rule:nonzero;"/><path d="M204.717,291.558l-2.393,8.236l-4.004,0l1.66,-8.236l4.736,0Z" style="fill:#656565;fill-rule:nonzero;"/><path d="M216.175,296.066c-5.556,0 -8.333,-3.901 -8.333,-11.702c0,-4.047 0.751,-7.132 2.254,-9.253c1.503,-2.121 3.681,-3.182 6.535,-3.182c5.425,0 8.138,3.966 8.138,11.898c0,3.95 -0.741,6.977 -2.222,9.082c-1.481,2.105 -3.605,3.158 -6.372,3.158Zm0.228,-20.215c-2.224,0 -3.337,2.794 -3.337,8.382c0,5.263 1.09,7.894 3.271,7.894c2.127,0 3.19,-2.713 3.19,-8.138c0,-5.425 -1.042,-8.138 -3.125,-8.138Z" style="fill:#656565;fill-rule:nonzero;"/><path d="M243.698,294.927c-1.28,0.781 -2.951,1.172 -5.013,1.172c-2.441,0 -4.433,-0.675 -5.973,-2.026c-1.541,-1.351 -2.561,-3.28 -3.06,-5.786l-1.986,0l0,-3.092l1.562,0c-0.022,-0.271 -0.033,-0.591 -0.033,-0.96c0,-0.195 0.022,-0.64 0.065,-1.335l-1.595,0l0,-3.044l2.067,0c0.597,-2.507 1.725,-4.454 3.385,-5.843c1.66,-1.389 3.727,-2.083 6.201,-2.083c1.812,0 3.271,0.298 4.378,0.895l0,4.232c-1.215,-0.955 -2.593,-1.432 -4.134,-1.432c-1.194,0 -2.243,0.385 -3.149,1.156c-0.906,0.77 -1.549,1.796 -1.929,3.076l6.934,0l0,3.044l-7.422,0c-0.043,0.64 -0.065,1.085 -0.065,1.335c0,0.293 0.011,0.613 0.033,0.96l7.454,0l0,3.092l-6.966,0c0.814,2.734 2.436,4.102 4.867,4.102c1.53,0 2.989,-0.488 4.378,-1.465l0,4.004Z" style="fill:#656565;fill-rule:nonzero;"/><defs><linearGradient id="_Linear1" x1="0" y1="0" x2="1" y2="0" gradientUnits="userSpaceOnUse" gradientTransform="matrix(0.00226,292.496387,-292.496387,0.00226,147.598117,14.297472)"><stop offset="0" style="stop-color:#1480b2;stop-opacity:1"/><stop offset="1" style="stop-color:#b6dff3;stop-opacity:1"/></linearGradient></defs></svg>