<?xml version="1.0" encoding="UTF-8" standalone="no"?>
<svg
   width="16.844999"
   height="16.844999"
   viewBox="0 0 16.844999 16.844999"
   version="1.1"
   xml:space="preserve"
   style="clip-rule:evenodd;fill-rule:evenodd;stroke-linejoin:round;stroke-miterlimit:2"
   id="svg20568"
   sodipodi:docname="chipmunk_export.svg"
   inkscape:version="1.2.2 (732a01da63, 2022-12-09)"
   inkscape:export-filename="chipmunk_export.png"
   inkscape:export-xdpi="1709.7062"
   inkscape:export-ydpi="1709.7062"
   xmlns:inkscape="http://www.inkscape.org/namespaces/inkscape"
   xmlns:sodipodi="http://sodipodi.sourceforge.net/DTD/sodipodi-0.dtd"
   xmlns="http://www.w3.org/2000/svg"
   xmlns:svg="http://www.w3.org/2000/svg"><defs
     id="defs20572" /><sodipodi:namedview
     id="namedview20570"
     pagecolor="#505050"
     bordercolor="#eeeeee"
     borderopacity="1"
     inkscape:pageshadow="0"
     inkscape:pageopacity="0"
     inkscape:pagecheckerboard="0"
     inkscape:showpageshadow="0"
     inkscape:deskcolor="#505050"
     showgrid="false"
     inkscape:zoom="56.04037"
     inkscape:cx="6.3436412"
     inkscape:cy="8.7258524"
     inkscape:window-width="2736"
     inkscape:window-height="1730"
     inkscape:window-x="-11"
     inkscape:window-y="-11"
     inkscape:window-maximized="1"
     inkscape:current-layer="svg20568" /><g
     transform="matrix(0.24,0,0,0.24,-68.67996,-692.937)"
     id="g20566"><g
       transform="matrix(62.5,0,0,62.5,278.354,2944.3)"
       id="g14084"><path
         d="M 0.125,0.21 V 0.14 C 0.125,0.114 0.126,0.088 0.129,0.063 0.132,0.038 0.136,0.014 0.143,-0.01 0.149,-0.034 0.159,-0.056 0.17,-0.078 0.182,-0.1 0.197,-0.122 0.215,-0.142 l 0.04,-0.12 -0.124,-0.124 0.176,-0.176 h 0.21 l 0.132,-0.131 c 0.035,-0.036 0.073,-0.067 0.114,-0.094 0.041,-0.027 0.084,-0.05 0.129,-0.069 0.045,-0.018 0.091,-0.033 0.139,-0.042 0.048,-0.01 0.097,-0.015 0.147,-0.015 h 0.07 v 0.071 c 0,0.05 -0.005,0.098 -0.014,0.146 -0.01,0.048 -0.024,0.095 -0.043,0.14 -0.019,0.045 -0.042,0.088 -0.069,0.129 -0.027,0.04 -0.058,0.078 -0.093,0.114 L 0.897,-0.182 V 0.029 L 0.722,0.205 0.597,0.08 0.478,0.12 C 0.453,0.143 0.427,0.16 0.401,0.172 0.375,0.184 0.348,0.193 0.321,0.199 0.293,0.205 0.265,0.208 0.235,0.209 0.206,0.21 0.176,0.21 0.146,0.21 Z"
         style="fill-rule:nonzero"
         id="path14066" /><path
         d="M 0.486,-0.457 C 0.492,-0.46 0.497,-0.463 0.502,-0.466 0.507,-0.468 0.512,-0.47 0.517,-0.473 0.521,-0.475 0.526,-0.478 0.531,-0.481 0.535,-0.483 0.54,-0.487 0.546,-0.491 0.551,-0.495 0.556,-0.5 0.561,-0.504 0.565,-0.508 0.569,-0.512 0.573,-0.516 0.576,-0.52 0.58,-0.524 0.584,-0.528 0.587,-0.533 0.592,-0.537 0.597,-0.542 l 0.102,-0.102 c 0.028,-0.028 0.058,-0.053 0.09,-0.076 0.032,-0.022 0.066,-0.042 0.102,-0.058 l 0.155,0.067 0.068,0.156 c -0.017,0.036 -0.036,0.07 -0.059,0.102 -0.022,0.032 -0.048,0.062 -0.076,0.09 L 0.827,-0.21 0.769,-0.015 0.616,0 0.419,-0.084 0.335,-0.281 0.365,-0.389 Z"
         style="fill:#ffffff;fill-rule:nonzero"
         id="path14068" /><path
         d="m 0.891,-0.778 c 0.045,-0.021 0.091,-0.037 0.14,-0.048 0.048,-0.011 0.097,-0.016 0.147,-0.016 0,0.05 -0.006,0.099 -0.016,0.147 -0.011,0.048 -0.027,0.095 -0.048,0.14 z"
         style="fill:#e81224;fill-rule:nonzero"
         id="path14070" /><path
         d="m 0.359,-0.139 c 0.016,0 0.031,0.003 0.045,0.009 0.014,0.006 0.026,0.015 0.036,0.025 0.011,0.01 0.019,0.023 0.025,0.037 0.007,0.014 0.01,0.029 0.01,0.045 0,0.016 -0.003,0.03 -0.009,0.044 C 0.46,0.035 0.451,0.047 0.44,0.059 0.424,0.076 0.406,0.09 0.387,0.1 0.368,0.111 0.348,0.119 0.327,0.125 0.306,0.131 0.285,0.135 0.263,0.137 0.241,0.139 0.218,0.14 0.195,0.14 0.195,0.117 0.196,0.095 0.198,0.073 0.201,0.051 0.205,0.029 0.21,0.008 0.216,-0.013 0.225,-0.032 0.235,-0.052 0.246,-0.071 0.26,-0.088 0.277,-0.105 0.288,-0.116 0.301,-0.125 0.314,-0.13 0.328,-0.136 0.343,-0.139 0.359,-0.139 Z"
         style="fill:#f7630c;fill-rule:nonzero"
         id="path14072" /><path
         d="m 0.379,-0.1 c 0.016,0 0.03,0.005 0.04,0.016 0.011,0.011 0.017,0.024 0.017,0.041 0,0.01 -0.003,0.02 -0.007,0.029 C 0.425,-0.004 0.419,0.004 0.412,0.012 0.402,0.022 0.391,0.031 0.379,0.038 0.368,0.044 0.356,0.05 0.344,0.054 0.332,0.059 0.319,0.062 0.306,0.065 0.293,0.067 0.279,0.069 0.265,0.07 0.266,0.056 0.268,0.043 0.271,0.03 0.273,0.016 0.277,0.004 0.281,-0.009 0.285,-0.021 0.291,-0.033 0.298,-0.044 0.305,-0.055 0.313,-0.066 0.324,-0.076 0.331,-0.083 0.34,-0.089 0.349,-0.094 0.359,-0.098 0.368,-0.1 0.379,-0.1 Z"
         style="fill:#ffc83d;fill-rule:nonzero"
         id="path14074" /><path
         d="M 0.335,-0.281 0.616,0 0.458,0.053 0.283,-0.123 Z"
         style="fill:#4a5459;fill-rule:nonzero"
         id="path14076" /><path
         d="M 0.827,-0.386 C 0.812,-0.386 0.799,-0.389 0.786,-0.395 0.773,-0.4 0.762,-0.408 0.752,-0.417 0.743,-0.426 0.736,-0.438 0.73,-0.45 0.724,-0.463 0.722,-0.477 0.722,-0.491 c 0,-0.015 0.002,-0.028 0.008,-0.041 0.006,-0.013 0.013,-0.024 0.022,-0.034 0.01,-0.009 0.021,-0.017 0.034,-0.022 0.013,-0.006 0.026,-0.009 0.041,-0.009 0.014,0 0.028,0.003 0.041,0.009 0.012,0.005 0.024,0.013 0.033,0.022 0.01,0.01 0.017,0.021 0.023,0.034 0.005,0.012 0.008,0.026 0.008,0.041 0,0.014 -0.003,0.028 -0.008,0.041 -0.006,0.012 -0.013,0.024 -0.023,0.033 -0.009,0.009 -0.021,0.017 -0.034,0.022 -0.012,0.006 -0.026,0.009 -0.04,0.009 z"
         style="fill:#a6a6a6;fill-rule:nonzero"
         id="path14078" /><path
         d="m 0.897,-0.491 c 0,0.01 -0.002,0.019 -0.006,0.027 -0.003,0.009 -0.008,0.016 -0.015,0.022 -0.006,0.007 -0.014,0.012 -0.022,0.015 -0.008,0.004 -0.018,0.006 -0.027,0.006 -0.01,0 -0.019,-0.002 -0.028,-0.006 C 0.791,-0.43 0.783,-0.435 0.777,-0.442 0.771,-0.448 0.766,-0.455 0.762,-0.464 0.759,-0.472 0.757,-0.481 0.757,-0.491 c 0,-0.01 0.002,-0.019 0.005,-0.028 0.004,-0.008 0.009,-0.015 0.015,-0.022 0.006,-0.006 0.014,-0.011 0.022,-0.015 0.009,-0.004 0.018,-0.006 0.028,-0.006 0.009,0 0.019,0.002 0.027,0.006 0.008,0.004 0.016,0.009 0.022,0.015 0.007,0.007 0.012,0.014 0.015,0.022 0.004,0.009 0.006,0.018 0.006,0.028 z"
         style="fill:#cccccc;fill-rule:nonzero"
         id="path14080" /><path
         d="M 0.827,-0.21 V 0 L 0.722,0.105 0.616,0 Z M 0.335,-0.281 0.23,-0.386 0.335,-0.491 h 0.211 z m 0.159,0.14 c -0.005,0 -0.009,-0.001 -0.013,-0.005 -0.004,-0.003 -0.005,-0.007 -0.005,-0.012 0,-0.005 0.001,-0.009 0.005,-0.012 l 0.176,-0.176 c 0.003,-0.003 0.007,-0.005 0.012,-0.005 0.005,0 0.008,0.002 0.012,0.006 0.003,0.003 0.005,0.007 0.005,0.012 0,0.004 -0.002,0.008 -0.005,0.012 l -0.175,0.175 c -0.003,0.004 -0.007,0.005 -0.012,0.005 z"
         style="fill:#00bcf2;fill-rule:nonzero"
         id="path14082" /></g></g><g
     id="g394"
     transform="matrix(-0.03516355,0.0469928,0.0469928,0.03516355,3.5368936,-0.79387944)"><path
       d="m 32.11,27.88 c 0.81,-1.96 -1.62,-8.94 -4.01,-9.22 -2.68,-0.32 -6.26,5.07 -5.91,11.12 0.23,4.09 9.07,0.14 9.92,-1.9 z"
       fill="#865b52"
       id="path313" /><path
       d="m 33.02,74.55 c 0,0 -1.55,2.82 -4.22,4.36 -2.67,1.55 -9.43,4.79 -9.43,4.79 l 3.1,4.65 19.01,-2.25 c -0.01,0 -3.81,-16.19 -8.46,-11.55 z"
       fill="#865b52"
       id="path315" /><path
       d="m 44.71,44.99 6.34,-10.56 c 0,0 1.83,8.73 2.96,11.12 1.13,2.39 3.52,7.04 5.77,7.74 2.25,0.7 7.18,-1.27 15.2,2.82 8.02,4.09 17.03,15.49 17.6,26.61 0.57,11.12 -1.97,13.37 -0.7,15.06 1.27,1.69 8.31,0 9.85,-6.19 1.54,-6.19 -0.42,-14.92 -3.38,-21.26 -2.96,-6.34 -6.9,-12.67 -3.52,-22.24 3.38,-9.57 15.2,-12.81 20.98,-11.83 5.77,0.99 8.11,3.65 8.17,7.04 0.14,8.45 -10.84,5.49 -10.7,14.78 0.14,9.29 8.63,19.01 7.32,31.96 -1.41,13.94 -11.12,20.98 -24.5,21.82 -12.64,0.8 -24.5,-2.82 -24.5,-2.82 L 62.73,69.34 45.27,56.67 Z"
       fill="#865b52"
       id="path317" /><path
       d="m 59.25,55.88 c 0,3.38 12.79,7.56 18.49,13.51 10.51,10.98 9.67,23.74 11.54,22.24 0.43,-0.34 2.87,-13.2 -7.6,-25.43 C 73.9,57.1 59.25,55.33 59.25,55.88 Z"
       fill="#fee5c1"
       id="path319" /><path
       d="m 12.05,83.66 c 0,0 -4.05,4.45 -0.94,8.63 3.58,4.83 10.61,0.94 10.61,0.94 z"
       fill="#c49166"
       id="path321" /><path
       d="m 12.43,81.17 c 0,0 -2.71,3.54 0.36,7.7 3.19,4.32 6.15,6.66 9.95,6.15 3.8,-0.52 4.93,-2.82 4.97,-5.54 0.06,-2.73 -15.28,-8.31 -15.28,-8.31 z"
       fill="#ad3421"
       id="path323" /><path
       d="m 17.21,78.02 c -2.07,0 -4.46,0.99 -5.3,3.75 -1.13,3.7 2.06,6.38 2.82,7.23 0.76,0.85 2.16,2.02 4.69,2.02 2.53,0 6.66,-4.74 6.66,-4.74 0,0 -0.43,-3.6 -3.3,-5.99 -2.41,-2.01 -4.31,-2.27 -5.57,-2.27 z"
       fill="#d97755"
       id="path325" /><path
       d="m 11.15,88.54 c -0.23,1.17 -0.09,2.06 0.61,2.21 0.7,0.15 0.56,-0.94 0.7,-1.64 0.14,-0.7 0.28,-1.7 -0.23,-1.83 -0.78,-0.21 -0.97,0.7 -1.08,1.26 z"
       fill="#865b52"
       id="path327" /><path
       d="m 13.41,91.26 c -0.09,1.08 -0.19,1.83 0.52,1.88 0.71,0.05 0.59,-1.04 0.62,-1.62 0.04,-0.73 0.11,-1.55 -0.15,-1.71 -0.73,-0.47 -0.92,0.61 -0.99,1.45 z"
       fill="#865b52"
       id="path329" /><path
       d="m 34.48,92.34 c 0,0 -0.38,3.94 1.97,7.41 2.35,3.47 5.54,5.82 5.35,6.19 -0.19,0.37 -4.04,0.84 -9.01,1.22 -4.97,0.38 -7.04,0.19 -8.54,1.69 -1.5,1.5 -3.85,4.79 -2.06,5.91 1.79,1.12 8.07,0.75 10.14,0.56 2.07,-0.19 7.6,-0.84 7.6,-0.84 0,0 -2.91,3 -1.31,4.32 1.6,1.31 5.54,1.03 8.45,0.94 2.91,-0.09 15.67,-0.84 20.93,-1.03 5.26,-0.19 9.48,0.28 10.79,-1.88 1.31,-2.16 -0.47,-3.47 -0.47,-3.47 0,0 6.85,-3 6.76,-15.39 C 84.99,85.58 80.2,75.96 70.25,68.12 62.8,62.25 55.05,60.42 50.92,53.95 c -4.13,-6.47 -3.38,-9.2 -3.38,-9.2 0,0 3.94,-5.26 4.22,-11.26 0.28,-6.01 -0.49,-12.74 -4.22,-13.51 -2.6,-0.54 -6.66,2.82 -8.73,6.29 -2.06,3.47 -7.13,10.89 -7.13,10.89 l -0.94,29.09 6.85,14.08 c 0,0 -0.56,1.69 -1.41,2.06 -0.84,0.38 -9.48,0 -11.17,0.09 -1.69,0.09 -5.95,1.47 -6.16,4.32 -0.19,2.55 -0.13,2.63 2.03,3.1 2.15,0.47 13.6,2.44 13.6,2.44 z"
       fill="#c49166"
       id="path331" /><path
       d="m 19.2,85.8 c 0,0.48 1.41,0.38 2.63,0.05 1.22,-0.33 2.86,-0.56 2.82,-1.31 -0.05,-0.75 -1.83,-0.59 -2.86,-0.19 -1.32,0.51 -2.59,0.75 -2.59,1.45 z"
       fill="#865b52"
       id="path333" /><path
       d="m 23.5,87.27 c 0,0.86 -1.37,0.68 -2.3,0.89 -0.84,0.19 -2.35,0.61 -2.35,-0.05 0,-0.66 1.27,-0.89 2.16,-1.08 0.89,-0.18 2.49,-0.65 2.49,0.24 z"
       fill="#865b52"
       id="path335" /><path
       d="m 38.51,92.71 8.94,-3.1 7.6,-11.26 5.28,4.08 c 0,0 -3.66,3.73 -4.08,7.25 -0.56,4.64 0.63,9.43 2.67,12.32 2.04,2.89 5.35,7.67 5.35,7.67 0,0 -3.59,0.92 -7.6,0.28 -3.57,-0.56 -10.17,-3.91 -13.55,-8.06 -2.18,-2.67 -3.69,-4.74 -4.61,-9.18 z"
       fill="#fdc397"
       id="path337" /><path
       d="m 53.48,77.18 2.21,1.64 c 0,0 -2.49,8.4 -9.1,12.15 -4.59,2.6 -9.18,2.67 -17.93,1.36 -7.23,-1.08 -8.95,-2.44 -9.47,-2.86 -0.6,-0.49 0.88,0.38 3.18,0.61 2.3,0.23 9.29,1.22 12.06,1.45 2.77,0.23 6.73,-0.25 9.76,-1.92 2.63,-1.45 4.88,-3.99 7.04,-7.56 1,-1.64 2.25,-4.87 2.25,-4.87 z"
       fill="#865b52"
       id="path339" /><path
       d="m 24.72,109.75 c -0.51,-0.21 -1.45,1.24 -2.18,2.57 -0.54,1 -1.04,2.11 -0.48,2.45 0.56,0.34 1.48,-1.23 1.93,-2.08 0.45,-0.86 1.72,-2.54 0.73,-2.94 z"
       fill="#865b52"
       id="path341" /><path
       d="m 25.37,112.24 c -0.68,1.02 -1.76,2.84 -1.16,3.22 0.6,0.38 1.65,-1.26 2.25,-2.15 0.6,-0.88 1.83,-2.53 1.16,-2.87 -0.67,-0.34 -1.58,0.79 -2.25,1.8 z"
       fill="#865b52"
       id="path343" /><path
       d="m 42.51,114.04 c -0.9,-0.27 -2.18,1.16 -2.71,2.18 -0.53,1.02 -0.74,2.86 -0.18,3.2 0.81,0.49 0.99,-1.72 1.79,-2.82 0.61,-0.8 2.26,-2.21 1.1,-2.56 z"
       fill="#865b52"
       id="path345" /><path
       d="m 42.53,116.8 c -0.55,1.41 -0.67,3.05 0.04,3.16 0.8,0.12 0.78,-1.45 1.46,-2.72 0.68,-1.27 2.08,-2.62 1.46,-2.9 -0.72,-0.34 -2.13,0.35 -2.96,2.46 z"
       fill="#865b52"
       id="path347" /><path
       d="m 39.92,58.96 c 3.52,2.02 4.72,4.54 4.72,4.54 0,0 -1.27,2.18 -2.67,4.36 -1.41,2.18 -2.69,8.31 -3.1,10.07 -0.92,3.91 -2.7,4.6 -2.7,4.6 0,0 -1.98,-3.33 -2.97,-5.02 -0.88,-1.5 -2.36,-5.14 -2.99,-5.35 -0.63,-0.21 -6.46,2.15 -10.37,2.49 -4.27,0.37 -7.32,-2.06 -7.32,-2.06 l -3.14,-4.15 2.25,-4.65 5.56,-3.73 13.94,-4.15 c -0.01,-0.01 4.32,0.48 8.79,3.05 z"
       fill="#fdc397"
       id="path349" /><path
       d="m 34.85,46.89 1.06,-1.69 c 0,0 -1.71,-5.22 -0.53,-10.24 1.23,-5.21 3.06,-7.95 3.06,-7.95 0,0 -8.24,-3.27 -19.64,4.82 C 7.4,39.92 8.24,50.97 7.96,54 c -0.28,3.03 -0.41,4.73 -1.48,5.63 -2.01,1.69 -2.5,3.24 -2.22,4.5 0.28,1.27 4.82,0.35 4.82,0.35 l 2.53,-0.7 12.67,-7.53 z"
       fill="#9f7157"
       id="path351" /><path
       d="m 45.6,27.3 c -0.65,-0.11 -3.85,2.83 -4.74,6.34 -1.08,4.27 -0.44,7.15 1.69,7.6 2.21,0.47 3.98,-3.09 4.5,-5.68 0.52,-2.54 -0.04,-8.03 -1.45,-8.26 z"
       fill="#ffd2b2"
       id="path353" /><path
       d="m 7.31,62.82 c -1.74,0.21 -3.33,0.56 -3.05,1.88 0.28,1.31 1.88,2.63 2.35,3.1 0.47,0.47 2.77,0.63 2.77,0.63 0,0 2.87,-3.88 2.85,-4.75 -0.04,-1.31 -1.87,-1.24 -4.92,-0.86 z"
       fill="#f69c9c"
       id="path355" /><path
       d="m 35.91,45.2 c -0.13,-0.79 -11.16,-1.41 -15.32,3.54 -3.71,4.41 -2.73,7.67 -3.86,9.44 -1.99,3.12 -3.79,4.68 -3.65,4.87 0.16,0.22 2.21,-0.54 4.46,-1.17 1.87,-0.53 4.33,-0.17 6.69,-0.14 2.71,0.04 7.37,-0.51 9.96,-5.06 2.98,-5.28 1.98,-9.86 1.72,-11.48 z"
       fill="#ffeac6"
       id="path357" /><path
       d="m 23.73,52.17 c -1.21,1.08 -1.59,3.01 -1.13,4.46 0.39,1.22 1.94,2.83 4.41,2.49 3.43,-0.47 4.41,-4.18 2.82,-6.57 -0.84,-1.27 -3.47,-2.73 -6.1,-0.38 z"
       fill="#100d0f"
       id="path359" /><path
       d="m 8.35,67.58 c 0,0 2.48,-5 3.88,-3.68 0.9,0.84 -1.56,4.53 -1.56,4.53 0,0 1.67,2.73 3.74,2.91 2.08,0.18 4.35,-1.61 4.99,-2.06 0.63,-0.46 1.62,-1.37 2.46,-1.06 0.84,0.31 1.15,1.25 -0.06,2.44 -1.13,1.1 -4.96,3.73 -8.39,2.77 -2.85,-0.8 -4.86,-3.41 -5.77,-4.12 -0.92,-0.7 -4.27,-3.1 -3.24,-4.19 0.69,-0.72 3.95,2.46 3.95,2.46 z"
       fill="#494949"
       id="path361" /></g></svg>
