<?xml version="1.0" encoding="UTF-8"?>
<svg xmlns="http://www.w3.org/2000/svg" width="12.537003191157055" height="31.353822744539684" viewBox="0 0 12.537003191157055 31.353822744539684">
  <defs>
    <style>
      .cls-1 {
        fill: #ccc;
      }

      .cls-1, .cls-2, .cls-3, .cls-4, .cls-5, .cls-6, .cls-7, .cls-8, .cls-9, .cls-10, .cls-11 {
        stroke-width: 0px;
      }

      .cls-2 {
        fill: #000;
      }

      .cls-3 {
        fill: #00bcf2;
      }

      .cls-4 {
        fill: #f7630c;
      }

      .cls-5 {
        fill: #4a5459;
      }

      .cls-6 {
        fill: #a6a6a6;
      }

      .cls-7 {
        fill: #050606;
      }

      .cls-8 {
        fill: #e81224;
      }

      .cls-9 {
        fill: #ffc83d;
      }

      .cls-10 {
        fill: #f6f6f6;
      }

      .cls-11 {
        fill: #fff;
      }
    </style>
  </defs>
  <g id="Layer_2" data-name="Layer 2">
    <path class="cls-7" d="M5.466246721692187,19.79775558559686c-.2531969931606-.115838002408054-.506395356822395-.231675547980558-.769558181586945-.352072295911057-.164916582337355.803277092005374-.17357221432394,1.583831265656045.031928578295265,2.361781486062682.01078904629685.040845062474546.017688151906441.082783328482037.029718415919888.123225006622306.06107366771721.205291562708226.047411136160918.393903205933384-.134078466512619.535439942737867-.17415878902375.135821287838553-.355824272746759.100107840597047-.576552709885618-.01780190356294.100711318181311.401708213177699.174640748772617.776984473532139.28965005446571,1.139217669111531.271149651883206.854017633675539.346674346453256,1.711296604582458.096583366979758,2.581192414229008-.31023133553299,1.079075485706198-.911025022857757,1.927948255939555-1.946632305833191,2.426682508183148-.018117575777978.008723243385248-.033997579096649.022092487570262-.103594396956396.068160532064212.158400988763788.370164974228828.313684086135254.751215843542013.485586115665683,1.124616343893649.057898443672457.125765231541664.072784376414347.225617701993542-.032252245176096.323169556904759-.123432637633414.114637671318633-.29385155590262.084654520143886-.378981868560913-.094276127416379-.189312883257116-.397908725604793-.360001790355454-.804679800519807-.547920644956321-1.229636519463384-.118850136745095.012380427198877-.285639966486997.032104459394759-.452889599551781.046493813682901-.156356428637991.013453301618938-.271520601031625-.051983586716233-.284580568660203-.213518227648819-.014017263072674-.173363212779805.09455251192685-.249194442916632.26152484681279-.262100457519409.139117572872237-.010752727999716.277227826987655-.034526592751718.399961051912214-.050475806403483-.00511813862795-.441610598891202-.025810887109401-.863436406672918-.011034137658498-1.284015057899524.020208732983519-.575155940225159.138116192981215-1.138273621840199.37591696994059-1.661337934132462.318635708847978-.700869549529671.358817448512127-1.38417383547494-.021298967035364-2.068351587853613-.733344501202737-1.319957607358447-.778314316960859-2.727427230916874-.538663819505018-4.172336220193756.008016064505682-.048331656485971.013445535449137-.097092736839841.02105730194944-.152807286040115-.577671724526226-.22141894159904-.75581775984756-.680059166330466-.736033653976847-1.248669818802227.025015996153343-.718963598368646.29438490951361-1.358871404485399.670030063258309-1.956266019122268.70588809840865-1.122585945582614,1.652490660394506-1.974174821782071,2.88919622767844-2.475190502535042,1.451005209321011-.587833537848383,2.865433783727894-.452898050913063,4.208360999716206.315067150890172,1.202342977871012.687569744131906,2.113350184143201,1.665252772323583,2.634013834247526,2.961291470157448.149530873279218.372215473204051.226196738949511.786216629889168.263532860204577,1.187821141769746.046651878210469.501802805596526-.12823327672595.928118376978091-.619007198229156,1.174164549040142-.046824561441099.023474866962715-.074275710701841.151120655267732-.060318521283989.220226833513152.148502996984462.735307973352974.238818146017366,1.476023032784724.216206695113215,2.226827725809926-.017890529339638.59400376499616-.068642948694105,1.185006131247064-.341981291840057,1.728055556313848-.085119120234594.169107119714681-.182856906551024.335903573546602-.30045326265099.483303773502485-.089090834189847.111671220365679-.098698964849973.198107849573717-.034469945359888.320513753007617.607395394019477,1.157571428026131.563842676972854,2.331557811854509.067183821101935,3.50903806136921-.128216373857867.30397316786366-.285886656805815.595943481745053-.438446338877839.889045373207409-.073272960282338.140774737856191-.180455787553001.246740559599857-.357230864337907.15380089977225-.148243515342983-.077938604939845-.159658880920688-.205804587185412-.050587502291819-.397478844897705.350931124819908-.616698816480493.623143372395134-1.262560995692183.721549963558573-1.971668631009379.0941644315335-.678515296134719-.044764240505174-1.314356823684648-.359125354489152-1.953382483543464-.18540878073145.185408780722355-.369906634659856.345491603506161-.525157982088786.530163054310833-.339010044102906.403253682263312-.70332046344447.793515921979633-.983890030445764,1.235665813286687-.413898369071831.652263335863609-.439866178663578,1.391182581221074-.268653054667084,2.126879777060822.135404198474134.581826857303895.318006191686436,1.15267736640817.480300547387742,1.728219102869843.009521332216536.033764593807064.028157871307485.06503441766472.036929082252755.09892052928808.03713145967231.143449500365023-.005804531583635.261412237250624-.147742825392925.307185167041098-.136786121047408.04411096804688-.251992322160731-.007487507686164-.304985511791529-.151948895143505-.326372190967959-.889712350724949-.602783198915859-1.792716740703327-.627576031669378-2.749405966840641-.023113968160033-.891918858473218.333829547664209-1.648442198291377.902479944701554-2.308287606449085.344904115123427-.400217564139894.720889381706002-.773977135924724,1.089685909981199-1.153032326321409.087896670365808-.09034164541481.094493351934943-.152438164242994.039280406361286-.270067412382559-.238291873381968-.507666725587114-.458922548055853-1.023622245518709-.693716901074367-1.554037472160417-.140958841922838.11447343952932-.317745339558314.256100172611696-.492379235844055.400332686280308-.24344130515783.201059910255935-.42016750071889.235509754913437-.61115970541141.115480301443313-.19267792179744-.121088394460457-.244020570537032-.28177332433188-.157448718486194-.599795505229849.219307683719308-.805644862128247.217721556424294-1.615392092711772.061604508773598-2.450031745867818-.157364661065003.07122406021881-.319620642732843.131429743521949-.46622458119964.218108951528848-.052143935410641.030831720145216-.084087589279079.123124959995039-.095068048984103.19216169948777-.15159530571691.953089374976116-.16190239226853,1.904282432420587-.016636520327665,2.862855184746877.134596059293472.888158201780243.202419447918146,1.791304210262751-.039822668259148,2.668680675078576-.179282638098812.649350106068596-.44502885860129,1.275075960484173-.678566461577248,1.90900106980007-.051196005064412.138966589265692-.160121196840919.229766439084415-.31528528898798.161869500176181-.154925624849056-.067793694444845-.18046218321706-.196160823483297-.120506844887132-.353893235836949.200098731739672-.52641518897326.404525051047131-1.051531599161535.588393387864926-1.583675485286221.194163545666015-.561947729987878.204611337052484-1.148415562913215.18362804221033-1.735646308457945-.000827783032946-.023163306243077-.018827952495485-.045713541387158-.036015871279233-.084970192381661-.160396210849285.188365409749167-.301958073526293.368357967714473-.458739814531327.533940157029065-.105960339743433.111904662489906-.2273968416348.211782258804305-.352688564837081.302084159666265-.152540951877199.109942104041693-.317223635238406.10170767292766-.475494197929038.002323914057342-.154199258941844-.096827316347117-.228746328975831-.248118827497819-.185142446553073-.416156955880069.218061440831661-.840369720795934.111138552074408-1.662213913146843-.092812203110043-2.487367410298248-.068686347882249-.277894347653273-.066088333465814-.573046052842983-.101601230613596-.859625726669037-.025282101882112-.204032071636902.056503501357838-.324960117390219.258139022337673-.365000695357594.15920524485864.05972143937106.206380197898397.176908929124693.223269347305177.343191901651153.038319227815009.37728267485727.111896439465454.750844437572596.15706086649061,1.127608149117805.057665686791552.481053866536968.115688160860373.962908562905795.144929642176976,1.446152491171233.013595376962257.224669086393988-.040316048825844.453423638384265-.067505889098356.718084878353693.054378310032916-.043591547901087.081229179543698-.061888659403849.104315280857008-.084099466956104.502897379638853-.483809031793498.70212995429938-1.080629634636352.704576756702409-1.771294885269526.002616744615807-.738524997697823.044491967560134-1.476903808546922.068191139985174-2.215380838682904.000810423347502-.025249209846152-.009610414823328-.050858861641245-.017301670421148-.088586032725289-.442859811204471.131217772586751-.859842265939733.022490389881568-1.276970907524628-.084354837139472ZM10.428824735308808,18.570142840450899c.477902169435765-.050044326779243.716908531059744-.308626934824133.690996912066112-.777588864768404-.012340911063802-.223323253712806-.030788777748967-.455940336360072-.102975843836248-.664819415713282-.627687042328034-1.81627201043375-1.860198417505671-3.042040517251735-3.705235888313837-3.567299459662536-1.533162675332278-.436470760677366-2.885622187580339.040386172755461-4.07335516042258,1.051206561756771-.685680964342282.53640637485114-1.192190072826634,1.212742573257856-1.550845116871642,2.001473388521845-.182448268626104.401228309154249-.305564777204381.819196839871438-.286606855471291,1.266918962723139.01546131503801.365134776115156.170152127257097.605938779148346.512422823334418.654499994676371.617090779976934.087550847112652,1.241040464180514.126747652879203,1.860102939284843.185949215279834.055719117543958-.232599722956365.08820823109545-.420920362985271.146289179919222-.600985100709295.18786060830098-.58241617303247.38060248686088-1.163373675410185.581806299814161-1.741292775497641.053195110225715-.152791296852229.183545812074954-.224147382070441.340624951945756-.148673396040977.150709961588291.072412285209793.148795370695552.206268730433294.090823148341769.345255877226009-.062316255941369.149407984961726-.135601093907098.295542298172222-.183161614766504.44956978756818-.176034092208283.570090794317366-.343427627965866,1.142848584962849-.50819802344904,1.694936468811648.416420549032409.187214188325015.790702281975427.348858012568598,1.159198670363367.522759604111343.509023065435031.240218341976288,1.021119252542121.307109789468086,1.550415692957358.068839387280605.429169412784177-.193197341939594.860290876840736-.382054304960548,1.303400576189233-.57853582583266-.16039712449674-.719790239319991-.346921493601258-1.441511972383523-.654539282333644-2.125891645346201-.071013002956533-.157985041503707-.076485873116326-.298836070622201.09139784540821-.377492818452083.168584958566498-.078986125074152.284331137352638.009044854461536.342326201394826.174511007970068.160586253738074.458173340481153.328275361009219.914144741547716.475546733796364,1.376594961033334.095162613592038.298828304448762.159342751851.607522393875115.235879333529738.905840871684632.311716959364276-.011683070240906.600785464295768-.015688133065851.888789089398415-.035314631220899.265528310719674-.018094277242199.529913623013272-.052962581752581.794897387720994-.0804621553998ZM2.137808807401598,19.07942538736188c-.253344093712258,1.401758742924358-.231591947428569,2.749215467085378.475298672927238,4.0228907748442.417398173573019.752066468276098.424183984358024,1.529367527698923.074263832964789,2.317419716200675-.107910106847157.243025129466332-.186268085311895.50192569391038-.252573414902145.760126845652849-.164267878191822.639672993489512-.192850376627575,1.288228436986174-.098790560087764,1.980270128173288.201387003338823-.137163465846243.392122924217801-.236729958269279.546034606223657-.376768508287569,1.090825710566605-.99250774515167,1.429205323900533-2.22158190205846,1.107456292048482-3.643551433717221-.150695342890685-.665994849348863-.316930804674485-1.328614152984301-.487338987333715-1.989873005257323-.029249247500957-.113504037988605-.090420220841224-.243700786812042-.178638502271497-.312929396546679-.470309589949466-.369071542289021-.69167165570434-.865774711024642-.75257355386475-1.43865493316116-.044990373306064-.423206816672973-.051813644479807-.850470775243593-.076222736765885-1.286306308345956-.10852089376931-.009919691381583-.233096301409205-.021306276428732-.356915648938411-.032623879555103ZM10.002319121007531,19.114316076916111c.004381950793686.273871925131971.02277956575017.534276386790225.009633713338189.793076447778731-.024821613322274.488654212185793-.088790237501598.977361417102657-.360835740697439,1.396107250702698-.132458076650437.203881316445404-.149257686618512.379622578107956-.08776510221287.604029441841703.128442506620559.468730771990522.305312148017038.912775153507027.563161994476104,1.349725818172374.240484676138294-.312262419040053.371151963887314-.6395546735057.433630395869841-.997613777704828.186276765169168-1.067544084316978.064482105522984-2.119147406414413-.156186029518722-3.181435159847751-.130201317160754.011705911940226-.253888182858645.022827076483736-.401639231255103.036109979057073ZM8.296860853713952,19.239184771883629c.12706058405638.911420640979486.213701874832623,1.81258947232709-.041471838650978,2.714342137398489.218107124206654-.142506595178929.416153758043947-.285097247797239.591107438060135-.451908320312214.06146243337389-.058604480471331.100823242501065-.180507866609332.091131968074478-.266872316060471-.049457752047601-.440750609068346-.120479891675132-.879034315059471-.179427911232779-1.31878993988721-.032339272022-.241247588750412-.055727340539306-.483694823331462-.085005825407279-.741956733982079-.132064285819069.022875500879309-.240650506839302.041683809517053-.376333830843578.065185172843485ZM3.848413765444093,19.17666111325434c-.018722423869804.131537556326293-.050947487422491.241789850590067-.047222463776961.350813261655276.022513231582707.658987017266554.055623182389354,1.317604912737806.08001719915319,1.976538480437739.009289260587138.250919676154808.193474640120257.345026546605368.381162565189697.453160502063838-.253650172374364-.900316836123238-.185216453614885-1.800232115239851-.028488162160102-2.714581975200417-.138469553979121-.023683640059971-.252407127341939-.043171717550649-.385469138405824-.065930268956436ZM3.006877747686303,19.138341428576496c-.03237033674759.695099280501381-.053145315358051,1.374058619190691.307663015259095,2.016128620185555.000430794386375-.683285098923079.000843772249937-1.339841302988134.001263145788471-2.006163702242702-.084066118083683-.002711309218284-.188639053259976-.00608457076487-.308926161047566-.009964917942852ZM9.149559151072026,19.151876046774305c.062546957049562.538598949184234.121165142527389,1.043370261488235.179784241676316,1.548142487456062.02233460953903.000026496367354.044670132747342.000053906402172.067004742288191.000080402769527.15502932615891-.506599561578696.171912079907997-1.026633694595148.134948735121725-1.563356883771121-.1328153207578.00526546756555-.243216542872688.009642850027376-.381737719086232.015133993545533ZM6.849522878466814,23.690126173237331c-.000226589614613-.007300205777938-.000419373522163-.013486650497725-.000612157429714-.019673095219332-.009295656267568.002591161899545-.019330469791385.003878519839418-.027468508948004.008504419945893-.002712679717661.001543184927868-.000563733037779.011639214193565-.000635912792859.017825658915172.009398900729138-.002179097718908.018797801460096-.004358195439636.028716579170577-.006656983641733Z"/>
    <path class="cls-9" d="M5.466246721692187,19.79775558559686c.417128641584895.10684522702104.834111096320157.215572609726223,1.276970907524628.084354837139472.00769125559782.037727171084043.01811209376865.063336822879137.017301670421148.088586032725289-.02369917242504.738477030135982-.065574395369367,1.476855840985081-.068191139985174,2.215380838682904-.002446802403028.690665250633174-.201679377063556,1.287485853476028-.704576756702409,1.771294885269526-.023086101313311.022210807552256-.049936970824092.040507919055017-.104315280857008.084099466956104.027189840272513-.264661239969428.081101266060614-.493415791959706.067505889098356-.718084878353693-.029241481316603-.483243928265438-.087263955385424-.965098624634265-.144929642176976-1.446152491171233-.045164427025156-.376763711545209-.118741638675601-.750325474260535-.15706086649061-1.127608149117805-.016889149406779-.16628297252646-.064064102446537-.283470462280093-.223269347305177-.343191901651153.013452387961479-.202852983331468.027008020382709-.405765355071708.040564566473222-.608678640479411Z"/>
    <path class="cls-7" d="M6.139101388743256,28.167938087976836c-.002811812676555.06079499903899.006941134325643.168589070070084-.014848472370431.269577229604693-.145139785819993.67266599483446-.304309854482199,1.342391806665546-.441767064548003,2.016570378555116-.035927017091126.176217054171502-.020539023891615.365276851456656-.011524320478202.547587841485438.008491857010085.171749218596233-.009091679937228.319009627381092-.212245488395638.348716394033545-.167771337383783.024535635286156-.254666170994824-.082402329011529-.269007786137081-.322442277338268-.03957300845741-.662295636811905.085426569476112-1.304493322870258.25034909065198-1.940095469446533.074142772037703-.285737272108236.160830659900057-.568732170289877.254629624302652-.848681813671647.064747982811241-.193240741167756.271504611850105-.246989077242688.444414416974723-.071232283222344Z"/>
    <path class="cls-5" d="M10.428729713856228,18.570161113805625c-.264888743255142.027481300292493-.52927405554874.062349604802876-.794802366268414.080443882045074-.288003625102647.019626498155048-.577072130034139.023631560979993-.888789089398415.035314631220899-.076536581678738-.298318477809516-.1407167199377-.60701256723587-.235879333529738-.905840871684632-.147271372787145-.462450219485618-.314960480058289-.918421620552181-.475546733796364-1.376594961033334-.057995064042188-.165466153508532-.173741242828328-.25349713304422-.342326201394826-.174511007970068-.167883718524536.078656747829882-.162410848364743.219507776948376-.09139784540821.377492818452083.307617788732387.684379672962677.494142157836905,1.40610140602621.654539282333644,2.125891645346201-.443109699348497.196481520872112-.874231163405057.385338483893065-1.303400576189233.57853582583266-.529296440415237.238270402187482-1.041392627522328.171378954695683-1.550415692957358-.068839387280605-.368496388387939-.173901591542744-.742778121330957-.335545415786328-1.159198670363367-.522759604111343.164770395483174-.552087883848799.332163931240757-1.124845674494281.50819802344904-1.694936468811648.047560520859406-.154027489395958.120845358825136-.300161802606453.183161614766504-.44956978756818.057972222353783-.138987146792715.059886813246521-.272843592016216-.090823148341769-.345255877226009-.157079139870802-.075473986029465-.287429841720041-.004117900811252-.340624951945756.148673396040977-.201203812953281.577919100087456-.393945691513181,1.15887660246517-.581806299814161,1.741292775497641-.058080948823772.180064737724024-.090570062375264.368385377752929-.146289179919222.600985100709295-.619062475104329-.059201562400631-1.243012159307909-.098398368167182-1.860102939284843-.185949215279834-.342270696077321-.048561215528025-.496961508296408-.289365218561215-.512422823334418-.654499994676371-.01895792173309-.447722122851701.104158586845188-.86569065356889.286606855471291-1.266918962723139.358655044045008-.788730815263989.86516415252936-1.465067013670705,1.550891028678961-2.001511534152087.078566294720076-.026309978165955.15938112591266-.04721743859227.235259409944774-.079663609751151.997343332051969-.426472722225299,2.018546413623881-.511354060387021,3.066912839089127-.218578119887752-.518877429582972.485919604427181-.274801125315207,1.030919710274247.251520869542219,1.261238918397794.579548169785994.253611798358179,1.217851575240275.079412351135034,1.598788007671828-.425508802676632.243058935171575.20037602991215.486117413509419.400751602992386.729176348682813.601127632904536.067240468582895.068773603166846.134481393999522.137547663165606.201721862582417.206321266332452.440625893401375.487314318355857.813384085267899,1.020861598244664.984164130724821,1.66129613386147.08175042701987.306563872933111.084406459325692.634220680858562.122885579008653.952324178191702ZM4.155988840318059,14.882025660363979c-.156731032441712.162552010033323-.163971392979875.280436628321695-.058288579838518.388591826555057.099387870370265.101715895945745.225161553339603.097421657255836.322632777070794.005537055334571.105702457005464-.09964438260613.121036543812806-.242404063774302.001922357073454-.332165758552946-.07577481115095-.057103095850835-.200934280936963-.048673368248274-.26626655430573-.061963123336682ZM5.087783131316428,14.323958505986411c-.024044995675467.025380778010003-.048091133437083.050762241267876-.07213612911346.07614301927606.025082465468586.107478855636145.017324283699054.253558577198419.084919940642976.311067341555827.061759375408656.052544121912433.230701349669289.048556190355157.306583745206808-.000869126493853.120432380971579-.078442035894113.118462970016481-.236405606205153.000213569857806-.319984967765777-.081464677419717-.057577746278184-.211340728841606-.046661243322887-.31958112659413-.066356266572257Z"/>
    <path class="cls-5" d="M6.540472915643477,14.313361786794303c-1.048366425465247-.292775940499268-2.069569507037158-.207894602337547-3.066912839089127.218578119887752-.075878284032115.032446171158881-.156693115224698.053353631585196-.235259409944774.079663609751151,1.187687061034921-1.010782243371068,2.540146573282982-1.487639176803896,4.07330924861526-1.051168416126529,1.845037470808165.525258942410801,3.077548845985802,1.751027449228786,3.705235888313837,3.567299459662536.072187066087281.20887907935321.090634932772446.441496162000476.102975843836248.664819415713282.025911618993632.468961929944271-.213094742630346.727544537989161-.691044422792402.777598001446677-.038526630409251-.318094360656687-.041182662715073-.645751168582137-.122933089734943-.952315041515249-.170780045456922-.640434535616805-.543538237323446-1.173981815505613-.984173267403094-1.661297961198215.059110652438903-.018160061330491.143451327698131-.018408578969684.171838072792525-.058387941198816.05125082513041-.072180213581305.104692625664029-.174959162017331.089888466187404-.252026127865975-.012545115820103-.065313086344759-.118397642758282-.153804097621105-.186126009950385-.156649259173719-.078501424306523-.003297427116195-.16701162260506.067406299287541-.237853769685898.122973747969809-.030443868161456.02388099230302-.027328260941431.090544022832546-.039459485247789.137770141272995-.243058935173394-.20037602991215-.486117413511238-.400751602992386-.729168125673823-.601141337921945.103875349816008-.49400876236723-.045818156331734-.790278340120494-.522126432271762-.976122483571089-.461806997342137-.180185341887409-.90783449483024-.118357898234535-1.328190667951276.140406072867336Z"/>
    <path class="cls-4" d="M8.296860853713952,19.239184771883629c.135683324004276-.023501363326432.244269545024508-.042309671964176.376333830843578-.065185172843485.029278484867973.258261910650617.052666553385279.500709145231667.085005825407279.741956733982079.058948019557647.43975562482774.129970159185177.878039330818865.179427911232779,1.31878993988721.009691274426586.086364449451139-.029669534700588.20826783558914-.091131968074478.266872316060471-.174953680016188.166811072514975-.373000313853481.309401725133284-.591107438060135.451908320312214.2551737134836-.901752665071399.168532422707358-1.802921496419003.041471838650978-2.714342137398489Z"/>
    <path class="cls-4" d="M3.848413765444093,19.17666111325434c.133062011063885.022758551405786.246999584426703.042246628896464.385469138405824.065930268956436-.156728291454783.914349859960566-.225162010214262,1.814265139077179.028488162160102,2.714581975200417-.18768792506944-.10813395545847-.371873304602559-.20224082590903-.381162565189697-.453160502063838-.024394016763836-.658933567699933-.057503967570483-1.317551463171185-.08001719915319-1.976538480437739-.003725023645529-.109023411065209.028500039907158-.219275705328982.047222463776961-.350813261655276Z"/>
    <path class="cls-4" d="M3.006877747686303,19.138341428576496c.12028710778759.003880347177983.224860042963883.007253608724568.308926161047566.009964917942852-.000419373538534.666322399254568-.000832351402096,1.322878603319623-.001263145788471,2.006163702242702-.360808330617147-.642070000994863-.340033352006685-1.321029339684173-.307663015259095-2.016128620185555Z"/>
    <path class="cls-4" d="M9.149559151072026,19.151876046774305c.138521176213544-.005491143518157.248922398328432-.009868525979982.381737719086232-.015133993545533.036963344786273.536723189175973.020080591037186,1.056757322192425-.134948735121725,1.563356883771121-.022334609540849-.000026496367354-.044670132749161-.000053906402172-.067004742288191-.000080402769527-.058619099148927-.504772225967827-.117237284626754-1.009543538271828-.179784241676316-1.548142487456062Z"/>
    <path class="cls-10" d="M6.849522878466814,23.690126173237331c-.009918777710482.002298788202097-.019317678441439.004477885922824-.028716579170577.006656983641733.00007217975508-.006186444721607-.002076766924802-.016282473987303.000635912792859-.017825658915172.00813803915662-.004625900106475.018172852680436-.005913258046348.027468508948004-.008504419945893.000192783907551.006186444721607.000385567815101.012372889441394.000612157429714.019673095219332Z"/>
    <path class="cls-7" d="M6.540472915643477,14.313361786794303c.420356173121036-.258763971101871.866383670609139-.320591414754745,1.328190667951276-.140406072867336.476308275940028.185844143450595.626001782087769.482113721203859.522126432271762.976122483571089-.380944655440544.504934858829074-1.019248060894824.679134306052219-1.598796230680819.425522507694041-.526321994857426-.230319208123547-.770398299125191-.775319313970613-.251520869542219-1.261238918397794ZM7.929848718775247,14.789332919349363c-.286974835144065-.295848376899812-.894516416039551-.291877576624756-1.121761588819936-.049590690749028-.086338866754886.09205477255091-.095646400705846.178960113344147-.005583423973803.275749512475159.231223739234338.24849023346178.868388257764309.250238993658058,1.079445064342508-.011962195738306.049187763223017-.061106559760447.039127367001129-.169903381209224.047899948451231-.214196625987825Z"/>
    <path class="cls-7" d="M4.155988840318059,14.882025660363979c.065332273368767.013289755088408.19049174315478.004860027485847.26626655430573.061963123336682.119114186739353.089761694778645.10378009993201.232521375946817-.001922357073454.332165758552946-.097471223731191.091884601921265-.223244906700529.096178840611174-.322632777070794-.005537055334571-.105682813141357-.108155198233362-.098442452603194-.226039816521734.058288579838518-.388591826555057Z"/>
    <path class="cls-7" d="M9.119958141540337,15.750219535420001c.012131224306358-.047226118440449.009015617086334-.113889148969974.039459485247789-.137770141272995.070842147080839-.055567448682268.159352345379375-.126271175086003.237853769685898-.122973747969809.067728367192103.002845161552614.173580894130282.09133617282896.186126009950385.156649259173719.014804159476626.077066965848644-.038637641056994.17984591428467-.089888466187404.252026127865975-.028386745094394.039979362229133-.112727420353622.040227879868326-.171838072792525.058387941198816-.067231331904622-.068771775830101-.134472257321249-.13754583582886-.201712725904144-.206319438995706Z"/>
    <path class="cls-7" d="M5.087783131316428,14.323958505986411c.108240397752525.019695023249369.238116449174413.008778520294072.31958112659413.066356266572257.118249400158675.083579361560624.120218811113773.241542931871663-.000213569857806.319984967765777-.075882395537519.04942531684901-.244824369798152.053413248406287-.306583745206808.000869126493853-.067595656943922-.057508764357408-.05983747517439-.203588485919681-.084919940642976-.311067341555827.024044995676377-.025380778008184.048091133437993-.050762241266057.07213612911346-.07614301927606Z"/>
    <path class="cls-10" d="M7.929848718775247,14.789332919349363c-.008772581450103.044293244778601.001287814771786.153090066227378-.047899948451231.214196625987825-.211056806578199.262201189396364-.84822132510817.260452429200086-1.079445064342508.011962195738306-.090062976732042-.096789399131012-.080755442781083-.183694739924249.005583423973803-.275749512475159.227245172780385-.242286885875728.834786753675871-.246257686150784,1.121761588819936.049590690749028Z"/>
  </g>
  <g id="svg20568">
    <path id="path14066" class="cls-2" d="M2.630437182939204,17.437251577722236l-2.630437024972707.000000157993782-.000000157966497-3.733523626386159,2.227386133194159-2.227386133093205.010606465224555-2.789535740961583c-.010606465144519-.753069141745982.06363942320786-1.484924720964045.212132464303068-2.206173202815989.148492408894526-.721249114053535.360624240958714-1.421284665579151.636396128404158-2.100107286780258.286378352604515-.668216156038397.615183198060549-1.315218749549786,1.028839764810982-1.919794218003517.403050733793862-.61518256582076.869741522961704-1.187939270991592,1.400071103102164-1.718268851107496l.742462676600553-.742462676567811.753068509526202.753068509560762c.530330212319313.530330212342051.98641390409648,1.092479820169501,1.400070470821447,1.697056553048242.403050733762939.61518256583895.753068509515288,1.26218642376989,1.02884039692799,1.941007780576911.275771255210202.67882325341634.487903087247105,1.378858804951051.63639612830957,2.100107286809362.137886259799416.710641700594351.212132464221213,1.442497595917303.222737981061073,2.195567053765444l-.010604410563246,2.789534002403343,2.237992914357164,2.237992914458118.010606465077217,3.72291731927362-2.651650429448637-.000000000060027-7.254915578769214.000000157886461Z"/>
    <path id="path14068" class="cls-11" d="M3.012274986496777,12.91883925606453c.031819711588469-.095459766964268.053032958014228-.180312436563327.074245888341466-.265164790062045.031820343790969-.074246836639759.063640055381256-.148493041077018.084853301808835-.233345710676986.021213246425759-.063639739275459.042426492853338-.148492408875427.063639423180575-.233345394576645.021213246425759-.063639739275459.031820027692447-.159098874037227.053032958017866-.265164790062954.010606465164528-.095459450863018.010606465166347-.201525366887836.021212930329057-.296984817751763.000000000003638-.084852985701218.000000000005457-.169705971402436.000000632209776-.254558324902064-.01060709736339-.074245888336009-.010607097361572-.159098874039046-.010607097357934-.243951859740264-.021212930321781-.084852985701218-.010606465159071-.180312436565146-.010606465155433-.286378352589963l.000000000047294-2.163746709969928c.000000000014552-.593969635505346.053032958039694-1.177332173644572.148493041118854-1.76069597618789.106065916037551-.572756705179017.254558324928439-1.145512778154625.466690156990808-1.697056553007315l2.354665611717792-.933380313853377,2.375878541999555.933381578365697c.201525999078513.562149607820174.360624240902325,1.124299847842849.45608369175352,1.707663018188214.106066548214585.572756072981065.148492724951211,1.16672602458857.148492724936659,1.760695660094825l.010606623141939,3.235012493438262,1.45310407089346,2.683470467049119-1.463711010308543,1.781909054654534-5.960909917579556-.000000000134605-.827315030050158-1.463711158456135.562149923964171-2.004647519818718Z"/>
    <path id="path14070" class="cls-8" d="M3.90322912382544,5.218446608740123c.254558324917525-.700036183729026.572756705212669-1.357645242401304.975808071205392-1.994041370748164.392444268631152-.62578903098256.859135057798994-1.198545736153392,1.389464637939454-1.728875316269296.530330212319313.530330212342051.98641327189398,1.113693382695601,1.389464637859419,1.728876580737051.392443636399548.62578966320234.721249746233298,1.29400518705188.975807438915581,1.99404073858932l-4.730544785919847-.000000632308911Z"/>
    <path id="path14078" class="cls-6" d="M7.382194899349997,10.055056362460164c-.159099506243365.159099506236998-.328804529344779.265165106156928-.530330212337503.339411310591458-.190918901729674.084852985696671-.39244395251626.116672697279682-.593969951609324.127279794640344-.190918901726036-.000000000004547-.392443952512622-.053033274123663-.583362538136498-.11667301340367-.201525999091245-.074245888341466-.371231338289363-.20152536689784-.519723747162061-.350017775777815-.159098874035408-.159098874041774-.275771887421797-.318197748082639-.350017775752349-.519723747175703-.07424652053669-.201525366890564-.116672381180251-.392444268618419-.127278846337504-.593969635508074.010606465166347-.201525366888745.042426492860614-.403051365979991.127278846362969-.593969635502617.074246520543966-.201525366887836.180312436572422-.371231338287544.339411310615105-.530330212322042.148492408879974-.148492408873608.328804845446939-.265164790057497.530330212339322-.339411310592368.180312436565146-.07424652053578.392444268618419-.116672381178432.583363170344455-.116672381173885.212131832051455.000000000004547.403051365979991.042426492859704.604576100666236.11667238120117.180312436561508.074246520543056.360624873123015.190918901734221.519723747158423.350017775775996.148492408872698.148492408879974.265164790056588.328804845447848.350017775755987.519723747177522.063639739270002.190918585626605.116672381176613.392444268618419.106065916010266.593969635507165-.000000000003638.190918901726945-.042426808960954.403051049878741-.12727884636115.593969635502617-.063639739280916.190919217826377-.18031243657606.371231338287544-.328805161556375.519723431059901Z"/>
    <path id="path14080" class="cls-1" d="M7.010963877200993,8.198901251496864c.106065916024818.106065916028456.180312436561508.222738297217802.222738929409388.350017775770539.06363942317148.127279478553646.084852669593602.254558641006042.074246520529414.392444268618419.010606781259412.137885627613286-.021213246431216.275771571326914-.074246520547604.392444268613872-.042426492855157.127279478551827-.127279162457853.254558641001495-.2227386133236.350018091862694-.106065916028456.106065916022999-.222738613318143.180312120458439-.360624557033589.23334507846721-.116673013391846.053032958011499-.254558957105473.084852985696671-.39244458471876.074246204429983-.127279162450577-.000000316103979-.254558957105473-.021212930329966-.392443952514441-.074246204447263-.116673013388208-.053032958015137-.233345394573917-.127279478557284-.339411310596915-.23334539458574s-.180312436561508-.222738297216893-.243951859731169-.350017775770539c-.042426492847881-.127279478552737-.063639423169661-.254558324902973-.074246520531233-.39244426861751.000000000001819-.127278846349327.031820027694266-.265164790062954.074246520547604-.392444268614781.053032958016047-.137885943712718.127279478558194-.254558324898426.233345394586649-.360624240921425.095459450865746-.095459450861199.222738297217802-.180312436560598.35001777576872-.222738929408479.127279478554556-.042426492847881.265164790067502-.074245888330552.392444268620238-.074246520530323.148493041078837.000000000002728.275771887427254.021212930329966.392444268612962.074246520547604.137885943713627.053032958016047.254558324901154.127279478558194.360624240922334.23334539458574Z"/>
    <path id="path14082" class="cls-3" d="M9.248956949577405,11.921818412770335l2.227386291146104,2.227386291246148-.000000237127097,2.227386528269562-2.237992993434091.010606702187943.010606939415084-4.465379521703653ZM3.277440092582765,16.387197934339383l-2.227386607295557-.000000158099283.000000158099283-2.227386291197035,2.237992914459028-2.237992914357164-.010606465262754,4.465379363653483ZM6.448814111156025,16.185672409473227c-.053032958014228.05303295801059-.106066074078626.08485282764741-.190918901729674.084852985695761-.074246362488338.010606623211061-.127279162450577-.021213246427578-.180312120461167-.074246204441806-.053032958012409-.053032958012409-.084852985699399-.106065916026637-.07424620443453-.180312120464805l.000000158133844-3.73352362638434c.000000316103979-.063639739277278.021213562529738-.127279478552737.074246520543966-.180312436564236s.106066232128796-.06363973927364.190919217828196-.063639739271821c.063639739277278-.000000316099431.127279162450577.021213246428488.180312120462986.074246204442716.0424264928497.042426492851519.063639739275459.106065599925387.07424620443453.180312120464805l-.000000158132025,3.71231069606074c.010606307107082.074246362490157-.021213246429397.127279162450577-.074246836646125.180312120462986Z"/>
  </g>
</svg>