<?xml version="1.0" encoding="UTF-8" standalone="no"?>
<svg
   width="12.537004"
   height="23.822428"
   viewBox="0 0 12.537003 23.822425"
   version="1.1"
   xml:space="preserve"
   style="clip-rule:evenodd;fill-rule:evenodd;stroke-linejoin:round;stroke-miterlimit:2"
   id="svg20568"
   sodipodi:docname="rocket_minion.svg"
   inkscape:version="1.2.2 (732a01da63, 2022-12-09)"
   xmlns:inkscape="http://www.inkscape.org/namespaces/inkscape"
   xmlns:sodipodi="http://sodipodi.sourceforge.net/DTD/sodipodi-0.dtd"
   xmlns="http://www.w3.org/2000/svg"
   xmlns:svg="http://www.w3.org/2000/svg"><defs
     id="defs20572" /><sodipodi:namedview
     id="namedview20570"
     pagecolor="#505050"
     bordercolor="#eeeeee"
     borderopacity="1"
     inkscape:pageshadow="0"
     inkscape:pageopacity="0"
     inkscape:pagecheckerboard="0"
     inkscape:showpageshadow="0"
     inkscape:deskcolor="#505050"
     showgrid="false"
     inkscape:zoom="64"
     inkscape:cx="9.21875"
     inkscape:cy="14.21875"
     inkscape:window-width="2736"
     inkscape:window-height="1730"
     inkscape:window-x="-11"
     inkscape:window-y="-11"
     inkscape:window-maximized="1"
     inkscape:current-layer="svg20568" /><path
     d="M 6.257899,23.822426 5.5154368,23.079964 C 5.2396652,22.804192 4.9745001,22.517814 4.7411549,22.220829 4.5078096,21.923844 4.2956776,21.62686 4.1153654,21.298055 3.9244465,20.979857 3.7971673,20.640446 3.6804947,20.290428 3.5744287,19.929803 3.5001824,19.537359 3.4789692,19.134308 L 2.6304411,17.437252 H 3.79e-6 V 13.703728 L 2.2273902,11.476341 2.2379972,8.6868051 C 2.2273902,7.9337364 2.3016364,7.2018808 2.4501289,6.4806319 2.5986213,5.759383 2.8107533,5.0593472 3.086525,4.3805247 3.3729032,3.7123088 3.7017079,3.0653061 4.1153654,2.4607297 4.5184162,1.8455468 4.9851067,1.2727903 5.5154368,0.74246022 L 6.257899,-1.922e-6 7.0109677,0.75306682 c 0.5303301,0.53033008 0.986414,1.09247998 1.4000715,1.69705628 0.4030509,0.615183 0.7530687,1.2621857 1.0288404,1.9410082 0.2757716,0.6788225 0.4879037,1.3788583 0.6363964,2.1001072 0.137886,0.7106423 0.212132,1.4424979 0.222738,2.1955666 l -0.01061,2.7895359 2.237993,2.237993 0.01061,3.722918 H 9.8853569 L 9.0474353,19.123701 C 9.0262221,19.632818 8.9307627,20.088902 8.7822702,20.491953 8.6337778,20.895004 8.442859,21.276842 8.2201203,21.62686 7.9867751,21.987484 7.72161,22.316289 7.4140186,22.645093 7.1170337,22.963291 6.7988357,23.281489 6.4806376,23.599688 Z"
     style="fill-rule:nonzero;stroke-width:15"
     id="path14066" /><path
     d="m 3.0122788,12.918839 c 0.03182,-0.09546 0.053033,-0.180312 0.074246,-0.265165 0.03182,-0.07425 0.06364,-0.148492 0.084853,-0.233345 0.021213,-0.06364 0.042426,-0.148492 0.06364,-0.233345 0.021213,-0.06364 0.03182,-0.159099 0.053033,-0.265165 0.010607,-0.09546 0.010607,-0.201526 0.021213,-0.296985 0,-0.08485 0,-0.169706 0,-0.254559 -0.010607,-0.07425 -0.010607,-0.159099 -0.010607,-0.243951 -0.021213,-0.08485 -0.010607,-0.180313 -0.010607,-0.286379 V 8.6761985 c 0,-0.5939697 0.053033,-1.1773328 0.1484924,-1.7606959 0.1060661,-0.5727565 0.2545585,-1.145513 0.4666905,-1.6970563 l 2.3546657,-0.933381 2.3758788,0.933381 c 0.2015255,0.5621499 0.3606245,1.1242998 0.4560839,1.7076629 0.106066,0.5727565 0.1484924,1.1667262 0.1484924,1.7606959 l 0.010607,3.2350139 1.4531045,2.68347 L 9.2383541,16.387198 6.257899,17.585744 3.2774438,16.387198 2.4501289,14.923487 Z"
     style="fill:#fcde0c;fill-rule:nonzero;stroke-width:15;fill-opacity:1"
     id="path14068" /><path
     style="clip-rule:evenodd;fill:none;fill-rule:evenodd;stroke:#434343;stroke-width:0.986581px;stroke-linecap:butt;stroke-linejoin:miter;stroke-miterlimit:2;stroke-opacity:1"
     d="M 3.261042,8.8864509 H 9.2879472"
     id="path5457" /><path
     d="M 3.9032333,5.2184463 C 4.1577918,4.5184105 4.4759898,3.8608012 4.8790407,3.2244051 5.271485,2.5986156 5.7381755,2.0258591 6.2685056,1.495529 c 0.5303301,0.5303301 0.986414,1.1136932 1.3894648,1.7288761 0.3924443,0.6257895 0.721249,1.2940054 0.9758074,1.9940412 z"
     style="fill:#e81224;fill-rule:nonzero;stroke-width:15"
     id="path14070" /><path
     d="m 5.0381397,17.638777 c 0.1697057,-0.169705 0.3606245,-0.296985 0.5727565,-0.381837 0.2121321,-0.08485 0.4348707,-0.116673 0.6470028,-0.116673 0.2227386,-0.01061 0.4454773,0.04243 0.6576093,0.127279 0.2227386,0.07425 0.4136575,0.201526 0.5833631,0.371231 0.1697056,0.169706 0.2863783,0.350018 0.3712311,0.56215 0.084853,0.212132 0.1166726,0.434871 0.1272792,0.678823 0.010607,0.350018 -0.03182,0.689429 -0.1272792,0.99702 -0.084853,0.318198 -0.2121321,0.615183 -0.3712311,0.901561 C 7.3397724,21.06471 7.1594601,21.329875 6.9473281,21.584433 6.7351961,21.838992 6.5018508,22.09355 6.257899,22.337502 6.0139471,22.09355 5.7912085,21.849598 5.5790764,21.59504 5.377551,21.329875 5.1866322,21.054103 5.0169265,20.778331 4.8578275,20.491953 4.7517615,20.194968 4.6456955,19.87677 4.5608426,19.558572 4.5290228,19.229768 4.5290228,18.869143 c 0,-0.233345 0.042427,-0.46669 0.1272793,-0.657609 0.084853,-0.212132 0.212132,-0.403051 0.3818376,-0.572757 z"
     style="fill:#f7630c;fill-rule:nonzero;stroke-width:15"
     id="path14072" /><path
     d="m 5.6639293,17.840303 c 0.1697056,-0.169706 0.371231,-0.265165 0.5939697,-0.254559 0.2333452,0 0.4348707,0.07425 0.6151829,0.254559 0.106066,0.106066 0.1803122,0.243951 0.2333452,0.381837 0.06364,0.148493 0.084853,0.296985 0.095459,0.456084 0,0.212132 -0.021213,0.424264 -0.074246,0.62579 -0.053033,0.180312 -0.1166726,0.371231 -0.2015254,0.540936 -0.074246,0.180313 -0.1803122,0.350018 -0.2863783,0.519724 C 6.523064,20.523773 6.3957848,20.693479 6.257899,20.852578 6.1200131,20.693479 6.0033405,20.53438 5.8972745,20.364674 5.7699953,20.194968 5.6851425,20.025263 5.589683,19.84495 5.5048302,19.675245 5.4411906,19.484326 5.3987642,19.293407 c -0.042426,-0.190919 -0.074246,-0.392444 -0.06364,-0.615183 0,-0.148492 0.03182,-0.307591 0.074246,-0.456084 0.06364,-0.148492 0.1378858,-0.265165 0.2545591,-0.381837 z"
     style="fill:#ffc83d;fill-rule:nonzero;stroke-width:15"
     id="path14074" /><path
     d="M 3.2774438,16.387198 H 9.2383541 L 8.1246609,18.625191 4.4017436,18.614585 Z"
     style="fill:#436b9e;fill-rule:nonzero;stroke-width:15;fill-opacity:1"
     id="path14076" /><path
     d="m 7.3821988,10.055057 c -0.159099,0.159099 -0.3288047,0.265165 -0.5303301,0.339411 -0.1909189,0.08485 -0.3924443,0.116673 -0.5939697,0.127279 -0.1909189,0 -0.3924443,-0.05303 -0.5833631,-0.116672 C 5.4730104,10.330828 5.3033048,10.203549 5.1548124,10.055057 4.9957133,9.8959577 4.8790407,9.7368587 4.8047945,9.5353333 4.7305483,9.3338078 4.6881219,9.142889 4.6775153,8.9413636 4.6881219,8.7398381 4.7199417,8.5383127 4.8047945,8.3473939 4.8790407,8.1458684 4.9851067,7.9761628 5.1442058,7.8170638 5.2926982,7.6685713 5.4730104,7.5518987 5.6745359,7.4776525 5.8548481,7.4034063 6.0669801,7.3609799 6.257899,7.3609799 c 0.212132,0 0.4030508,0.042426 0.6045763,0.1166726 0.1803122,0.074246 0.3606245,0.1909188 0.5197235,0.3500179 0.1484924,0.1484924 0.265165,0.3288046 0.3500178,0.5197235 0.06364,0.1909188 0.1166727,0.3924442 0.1060661,0.5939697 0,0.1909188 -0.042426,0.4030508 -0.1272793,0.5939697 -0.06364,0.1909188 -0.1803122,0.371231 -0.3288046,0.5197237 z"
     style="fill:#a6a6a6;fill-rule:nonzero;stroke-width:15"
     id="path14078" /><path
     d="m 7.0831657,8.1274993 c 0.1162524,0.1162524 0.197629,0.2441301 0.2441301,0.3836329 0.069752,0.1395028 0.093002,0.2790056 0.081376,0.4301338 0.011626,0.1511281 -0.02325,0.3022561 -0.081376,0.4301337 -0.046501,0.1395029 -0.1395029,0.2790058 -0.2441301,0.3836329 -0.1162523,0.1162523 -0.2441299,0.197629 -0.3952581,0.2557554 -0.1278776,0.05813 -0.2790056,0.093 -0.4301337,0.08138 -0.1395029,0 -0.2790057,-0.02325 -0.4301338,-0.08138 C 5.6997625,9.9526616 5.571885,9.8712849 5.4556325,9.7550326 5.3393801,9.6387802 5.2580035,9.5109026 5.1882521,9.3713997 5.1417511,9.2318969 5.1185007,9.0923941 5.1068754,8.941266 c 0,-0.1395029 0.034876,-0.290631 0.081377,-0.4301338 0.058126,-0.1511281 0.139503,-0.2790058 0.2557554,-0.3952581 0.1046271,-0.1046271 0.24413,-0.197629 0.3836328,-0.2441299 0.1395028,-0.046501 0.2906309,-0.081377 0.4301338,-0.081377 0.1627533,0 0.3022561,0.02325 0.4301337,0.081376 0.1511282,0.058126 0.2790058,0.1395029 0.3952576,0.2557561 z"
     style="clip-rule:evenodd;fill-rule:nonzero;stroke-linejoin:round;stroke-miterlimit:2;fill:#5a5a5a;fill-opacity:1;stroke-width:16.4406"
     id="path7003" /><path
     d="m 7.0109677,8.1989014 c 0.106066,0.106066 0.1803122,0.2227387 0.2227387,0.3500179 0.06364,0.1272792 0.084853,0.2545584 0.074246,0.3924443 0.010607,0.1378858 -0.021213,0.2757716 -0.074246,0.3924442 C 7.1912799,9.4610871 7.1064271,9.5883663 7.0109677,9.6838257 6.9049017,9.7898917 6.7882291,9.8641379 6.6503432,9.9171709 6.5336706,9.970204 6.3957848,10.002024 6.257899,9.9914172 6.1306197,9.9914172 6.0033405,9.970204 5.8654547,9.9171709 5.7487821,9.8641379 5.6321095,9.7898917 5.5260434,9.6838257 5.4199774,9.5777597 5.3457312,9.4610871 5.2820916,9.3338078 5.2396652,9.2065286 5.218452,9.0792494 5.2078454,8.9413636 c 0,-0.1272793 0.03182,-0.2651651 0.074246,-0.3924443 C 5.3351246,8.4110335 5.4093708,8.2943608 5.5154368,8.1882948 5.6108962,8.0928354 5.7381755,8.0079826 5.8654547,7.9655562 5.9927339,7.9231298 6.1306197,7.89131 6.257899,7.89131 c 0.1484924,0 0.2757716,0.021213 0.3924442,0.074246 0.1378859,0.053033 0.2545585,0.1272792 0.3606245,0.2333454 z"
     style="fill:#ffffff;fill-rule:nonzero;stroke-width:15;fill-opacity:1"
     id="path14080" /><path
     d="m 6.4722222,8.6960156 c 0.034443,0.034443 0.058553,0.072331 0.072331,0.1136627 0.020666,0.041332 0.027555,0.082664 0.02411,0.1274399 0.00344,0.044776 -0.00689,0.089552 -0.02411,0.1274399 -0.013777,0.041332 -0.041332,0.082664 -0.072331,0.1136626 -0.034443,0.034443 -0.072331,0.058554 -0.117107,0.075775 -0.037888,0.017222 -0.082664,0.027555 -0.1274399,0.02411 -0.041332,0 -0.082664,-0.00689 -0.1274399,-0.02411 -0.037888,-0.017222 -0.075775,-0.041332 -0.1102183,-0.075775 -0.034443,-0.034443 -0.058553,-0.072331 -0.079219,-0.1136626 -0.013777,-0.041332 -0.020666,-0.082664 -0.02411,-0.12744 0,-0.041332 0.010333,-0.086108 0.02411,-0.1274399 0.017222,-0.044776 0.041332,-0.082664 0.075775,-0.117107 0.030999,-0.030999 0.072331,-0.058553 0.1136626,-0.072331 0.041332,-0.013777 0.086108,-0.02411 0.1274399,-0.02411 0.048221,0 0.089552,0.00689 0.1274399,0.02411 0.044776,0.017222 0.082664,0.041332 0.1171067,0.075775 z"
     style="clip-rule:evenodd;fill:#3f2917;fill-opacity:1;fill-rule:nonzero;stroke:none;stroke-width:4.87101;stroke-linejoin:round;stroke-miterlimit:2;stroke-opacity:1"
     id="path14080-4" /><path
     style="display:inline;fill:#436b9e;fill-opacity:1;fill-rule:nonzero;stroke-width:13.3449"
     d="m 6.4488178,16.203788 c -0.053033,0.04198 -0.106066,0.06716 -0.1909188,0.06716 -0.074246,0.0084 -0.1272793,-0.01679 -0.1803123,-0.05877 -0.053033,-0.04197 -0.084853,-0.08395 -0.074246,-0.142716 v -2.955076 c 0,-0.05037 0.021213,-0.100741 0.074246,-0.142717 0.053033,-0.04197 0.1060661,-0.05037 0.1909189,-0.05037 0.06364,0 0.1272792,0.01679 0.1803122,0.05877 0.042426,0.03358 0.06364,0.08395 0.074246,0.142717 v 2.938285 c 0.010607,0.05877 -0.021213,0.100742 -0.074246,0.142718 z"
     id="path16002" /><path
     style="fill:#436b9e;fill-rule:nonzero;stroke-width:15;fill-opacity:1"
     d="M 3.2774438,16.387198 H 1.0500574 v -2.227386 l 2.237993,-2.237993 z"
     id="path16000" /><path
     style="fill:#436b9e;fill-rule:nonzero;stroke-width:15;fill-opacity:1"
     d="m 9.2489607,11.921819 2.2273863,2.227386 v 2.227387 l -2.2379929,0.01061 z"
     id="path14082" /><path
     d="m 6.3772295,8.7899609 c 0.021041,0.021041 0.035769,0.044186 0.044186,0.069435 0.012624,0.025249 0.016833,0.050498 0.014728,0.077851 0.0021,0.027353 -0.00421,0.054706 -0.014728,0.077851 -0.00842,0.025249 -0.025249,0.050498 -0.044186,0.069435 -0.021041,0.021041 -0.044186,0.03577 -0.071539,0.04629 -0.023145,0.010521 -0.050498,0.016833 -0.077851,0.014728 -0.025249,0 -0.050498,-0.00421 -0.077851,-0.014728 C 6.1268435,9.120302 6.1036986,9.105574 6.0826576,9.084533 6.0616165,9.063492 6.0468885,9.040347 6.0342646,9.015098 6.0258446,8.989849 6.0216396,8.9646 6.0195366,8.937247 c 0,-0.025249 0.00631,-0.052602 0.014728,-0.077851 0.010521,-0.027353 0.025249,-0.050498 0.04629,-0.071539 0.018937,-0.018937 0.044186,-0.035769 0.069434,-0.044186 0.025249,-0.00842 0.052602,-0.014728 0.077851,-0.014728 0.029457,0 0.054706,0.00421 0.077851,0.014728 0.027353,0.010521 0.050498,0.025249 0.071539,0.04629 z"
     style="clip-rule:evenodd;fill:#000000;fill-opacity:1;fill-rule:nonzero;stroke:none;stroke-width:2.97562;stroke-linejoin:round;stroke-miterlimit:2;stroke-opacity:1"
     id="path11362" /><path
     d="m 6.3676643,8.7908236 c 0.010597,0.00922 0.018015,0.019351 0.022255,0.03041 0.00636,0.011058 0.00848,0.022116 0.00742,0.034096 0.00105,0.01198 -0.00212,0.023959 -0.00742,0.034096 -0.00424,0.011058 -0.012717,0.022116 -0.022255,0.03041 -0.010598,0.00922 -0.022255,0.015666 -0.036032,0.020273 -0.011657,0.00461 -0.025434,0.00737 -0.039211,0.00645 -0.012717,0 -0.025434,-0.00185 -0.039211,-0.00645 -0.011657,-0.00461 -0.023315,-0.011058 -0.033912,-0.020273 -0.010598,-0.00922 -0.018015,-0.019352 -0.024374,-0.03041 -0.00424,-0.011058 -0.00636,-0.022117 -0.00742,-0.034096 0,-0.011058 0.00318,-0.023038 0.00742,-0.034096 0.0053,-0.01198 0.012717,-0.022117 0.023315,-0.031331 0.00954,-0.00829 0.022255,-0.015665 0.034971,-0.019352 0.012717,-0.00369 0.026494,-0.00645 0.039211,-0.00645 0.014837,0 0.027554,0.00185 0.039211,0.00645 0.013777,0.00461 0.025434,0.011058 0.036032,0.020273 z"
     style="clip-rule:evenodd;fill:#fffeff;fill-opacity:1;fill-rule:nonzero;stroke:none;stroke-width:1.39755;stroke-linejoin:round;stroke-miterlimit:2;stroke-opacity:1"
     id="path13564" /><g
     id="g21158"
     transform="matrix(0.5256821,-0.07021481,0.0839891,0.63782928,2.2309078,4.8132835)"><path
       style="clip-rule:evenodd;fill:#ffffff;fill-opacity:1;fill-rule:evenodd;stroke:none;stroke-width:1px;stroke-linecap:butt;stroke-linejoin:miter;stroke-miterlimit:2;stroke-opacity:1"
       d="m 4.1763494,11.269514 c 0,0 0.9280777,0.370127 1.2540097,0.392224 0.325932,0.0221 1.198767,0.07734 1.4970776,0.01105 0.2983107,-0.06629 0.4640389,-0.0055 1.0993301,-0.226495 0.6352913,-0.220971 0.751301,-0.348029 0.751301,-0.348029 0,0 -0.1602039,0.430893 -0.3977476,0.673961 -0.2375437,0.243068 -0.712631,0.486136 -0.712631,0.486136 L 6.8279999,12.44066 5.469029,12.308077 4.756398,12.015291 4.126631,11.45734 Z"
       id="path21153" /><path
       style="fill:#000000;stroke-width:0.00875759"
       d="M 6.0653512,12.552137 C 5.7407902,12.51995 5.5431745,12.46708 5.2430563,12.332145 5.0054531,12.225316 4.8014984,12.100734 4.5815621,11.928081 4.4206426,11.801757 4.3949117,11.779256 4.2547863,11.642331 4.0856946,11.477101 3.9567933,11.330428 3.766942,11.087228 3.731451,11.041768 3.68964,10.996278 3.674028,10.986146 3.637873,10.962686 3.55714,10.939466 3.5117269,10.939466 c -0.019324,0 -0.037091,-0.0043 -0.039485,-0.0097 -0.011787,-0.02609 0.094465,-0.110082 0.1255318,-0.09924 0.00906,0.0032 0.035014,0.02507 0.057667,0.04868 0.041646,0.04341 0.1945732,0.148463 0.3182719,0.218654 0.03707,0.02103 0.081684,0.04698 0.099144,0.05766 0.017461,0.01068 0.033733,0.01943 0.036162,0.01943 0.00242,0 0.05038,0.02356 0.1065571,0.05235 0.1310488,0.06716 0.2171295,0.104273 0.3797029,0.163703 0.1278471,0.04673 0.2992672,0.101432 0.317885,0.101432 0.00956,0 0.029559,0.0043 0.044451,0.0096 0.014892,0.0053 0.052354,0.01477 0.083245,0.02112 0.030892,0.0063 0.0747,0.01569 0.097353,0.02074 0.1364795,0.03046 0.3886128,0.06713 0.6327993,0.09207 0.1290888,0.01317 0.5325159,0.02973 0.6140775,0.0252 0.032952,-0.0019 0.130679,-0.0062 0.2171738,-0.0098 0.1448054,-0.0059 0.430094,-0.02931 0.49627,-0.04073 0.015367,-0.0026 0.06164,-0.0099 0.1028304,-0.01598 0.092722,-0.01382 0.2651565,-0.04657 0.380054,-0.07218 0.3460586,-0.07715 0.7216222,-0.213889 0.9196608,-0.334842 0.018305,-0.01119 0.055186,-0.03346 0.08196,-0.04951 0.1177184,-0.07057 0.2666897,-0.203748 0.3278611,-0.293088 0.094382,-0.137846 0.079132,-0.124268 0.1312402,-0.116853 0.046951,0.0067 0.1068013,0.02782 0.1306913,0.04617 0.01894,0.01454 0.0031,0.01981 -0.07082,0.02367 -0.058588,0.003 -0.06266,0.0049 -0.088713,0.03899 -0.015018,0.01969 -0.049582,0.07958 -0.076811,0.133085 -0.1345703,0.264481 -0.3315057,0.595278 -0.4368741,0.733827 -0.065006,0.08548 -0.2012418,0.229001 -0.2846276,0.299853 -0.084144,0.07149 -0.2527736,0.188595 -0.3246564,0.225447 -0.024716,0.01267 -0.051671,0.02698 -0.059907,0.03181 -0.091176,0.05341 -0.3100594,0.136413 -0.498002,0.188837 -0.3649881,0.101808 -0.8645661,0.142095 -1.2670669,0.102179 z m 0.9450505,-0.230172 c 0.2179518,-0.02567 0.4132942,-0.08846 0.4988506,-0.160366 0.068443,-0.05752 0.1077387,-0.158422 0.1077387,-0.276627 0,-0.03495 0.00314,-0.06622 0.00699,-0.06948 0.00385,-0.0032 0.017236,0.01436 0.029722,0.03918 0.029907,0.05944 0.062745,0.09636 0.1130306,0.127043 0.036154,0.02206 0.051714,0.02509 0.1273089,0.02477 0.05391,-2.26e-4 0.1029252,-0.0064 0.1310533,-0.0166 0.1378897,-0.04983 0.3252533,-0.229179 0.3637469,-0.348185 0.00951,-0.02938 0.016458,-0.08056 0.019467,-0.143278 0.00556,-0.115544 0.0025,-0.120186 -0.05749,-0.08784 -0.075639,0.04077 -0.2857151,0.117251 -0.4230793,0.154022 -0.016473,0.0044 -0.046808,0.01263 -0.067402,0.01825 -0.098823,0.02701 -0.1302796,0.03405 -0.3220166,0.07206 -0.3131963,0.06208 -0.6325794,0.09958 -0.9391233,0.110265 l -0.2045734,0.0071 0.00478,0.06236 c 0.00706,0.0923 0.046943,0.253915 0.079713,0.323253 0.034336,0.07265 0.075932,0.116348 0.1319582,0.138622 0.083108,0.03304 0.2463344,0.04344 0.399279,0.02542 z m -0.9286051,-0.04137 c 0.047364,-0.0059 0.1027734,-0.01803 0.1231272,-0.02704 0.046109,-0.02042 0.1004666,-0.09313 0.1174361,-0.157089 0.026606,-0.100281 0.046458,-0.233276 0.042757,-0.286487 l -0.0025,-0.03584 -0.2695955,-0.0066 c -0.1482774,-0.0037 -0.3302543,-0.01398 -0.4043927,-0.02293 -0.2237977,-0.02701 -0.2896235,-0.03586 -0.3444826,-0.04625 -0.02883,-0.0055 -0.1147655,-0.02156 -0.190963,-0.03578 -0.1867584,-0.03483 -0.2231455,-0.04338 -0.3332496,-0.07818 -0.032951,-0.01042 -0.078444,-0.02449 -0.101098,-0.03128 -0.071751,-0.02149 -0.2734549,-0.104575 -0.3556834,-0.146506 -0.072019,-0.03673 -0.091509,-0.03433 -0.1225459,0.01505 -0.013837,0.02201 -0.02333,0.04655 -0.021095,0.05451 0.010304,0.03673 0.3197062,0.310659 0.4581359,0.405619 0.1220028,0.08369 0.1757714,0.09431 0.3032946,0.05989 0.065594,-0.01771 0.094851,-0.04347 0.1261076,-0.11108 0.016281,-0.03521 0.031245,-0.0574 0.035917,-0.05327 0.00441,0.0039 0.010307,0.0313 0.013117,0.06088 0.015886,0.167254 0.086166,0.279372 0.2125952,0.339146 0.1057563,0.05 0.2072932,0.075 0.3985823,0.09814 0.1410616,0.01707 0.2092349,0.01818 0.3145277,0.0052 z"
       id="path21151" /></g></svg>
