<?xml version="1.0" encoding="UTF-8" standalone="no"?>
<!-- Created with Inkscape (http://www.inkscape.org/) -->

<svg
   width="4.4569063mm"
   height="4.4569063mm"
   viewBox="0 0 4.4569063 4.4569063"
   version="1.1"
   id="svg5"
   xml:space="preserve"
   inkscape:version="1.2.2 (732a01da63, 2022-12-09)"
   sodipodi:docname="nemo.svg"
   xmlns:inkscape="http://www.inkscape.org/namespaces/inkscape"
   xmlns:sodipodi="http://sodipodi.sourceforge.net/DTD/sodipodi-0.dtd"
   xmlns="http://www.w3.org/2000/svg"
   xmlns:svg="http://www.w3.org/2000/svg"><sodipodi:namedview
     id="namedview7"
     pagecolor="#ffffff"
     bordercolor="#111111"
     borderopacity="1"
     inkscape:showpageshadow="0"
     inkscape:pageopacity="0"
     inkscape:pagecheckerboard="1"
     inkscape:deskcolor="#d1d1d1"
     inkscape:document-units="mm"
     showgrid="false"
     showguides="false"
     inkscape:zoom="45.254834"
     inkscape:cx="5.3033009"
     inkscape:cy="3.1377863"
     inkscape:window-width="2736"
     inkscape:window-height="1730"
     inkscape:window-x="-11"
     inkscape:window-y="-11"
     inkscape:window-maximized="1"
     inkscape:current-layer="layer1" /><defs
     id="defs2" /><g
     inkscape:label="Layer 1"
     inkscape:groupmode="layer"
     id="layer1"
     transform="translate(55.621008,0.00376333)"><path
       d="M -55.621008,4.4531429 V 4.1753304 c 0,-0.1031875 0.004,-0.206375 0.01588,-0.3055937 0.01191,-0.099219 0.02778,-0.1944688 0.05556,-0.2897188 0.02381,-0.09525 0.0635,-0.1825625 0.107156,-0.269875 0.04762,-0.087313 0.107157,-0.174625 0.178594,-0.254 l 0.15875,-0.47625 -0.492125,-0.492125 0.6985,-0.6985 h 0.833438 l 0.523875,-0.51990625 c 0.138906,-0.142875 0.289718,-0.26590625 0.452437,-0.3730625 0.162719,-0.10715625 0.333375,-0.1984375 0.511969,-0.27384375 0.178594,-0.0714375 0.361156,-0.13096875 0.551656,-0.1666875 0.1905,-0.0396875 0.384969,-0.05953125 0.583406,-0.05953125 h 0.277813 V 0.2780179 c 0,0.1984375 -0.01984,0.3889375 -0.05556,0.5794375 -0.03969,0.1905 -0.09525,0.3770312 -0.170657,0.555625 -0.07541,0.1785937 -0.166687,0.34925 -0.273843,0.5119687 -0.107157,0.15875 -0.230188,0.3095625 -0.369094,0.4524375 l -0.523875,0.5199063 -0.20475,0.6617243 -0.640537,0.5915931 -0.345338,-0.2135049 -0.472282,0.15875 c -0.09922,0.091281 -0.202406,0.15875 -0.305593,0.206375 -0.103188,0.047625 -0.210344,0.083344 -0.3175,0.1071562 -0.111125,0.023813 -0.22225,0.035719 -0.341313,0.039687 -0.115094,0.00397 -0.234156,0.00397 -0.353219,0.00397 z"
       style="clip-rule:evenodd;fill-rule:nonzero;stroke-width:3.96875;stroke-linejoin:round;stroke-miterlimit:2"
       id="path14066"
       sodipodi:nodetypes="cscccccccccsccscscccccccccsccsc" /><path
       d="m -54.18829,1.8059866 c 0.02381,-0.011906 0.04366,-0.023813 0.0635,-0.035719 0.01984,-0.00794 0.03969,-0.015875 0.05953,-0.027781 0.01588,-0.00794 0.03572,-0.019844 0.05556,-0.03175 0.01588,-0.00794 0.03572,-0.023813 0.05953,-0.039687 0.01984,-0.015875 0.03969,-0.035719 0.05953,-0.051594 0.01588,-0.015875 0.03175,-0.03175 0.04763,-0.047625 0.01191,-0.015875 0.02778,-0.03175 0.04366,-0.047625 0.01191,-0.019844 0.03175,-0.035719 0.05159,-0.055562 l 0.404812,-0.4048125 c 0.111125,-0.111125 0.230188,-0.21034375 0.357188,-0.301625 0.127,-0.0873125 0.261937,-0.1666875 0.404812,-0.2301875 l 0.615157,0.26590625 0.269875,0.61912495 c -0.06747,0.1428751 -0.142876,0.2778125 -0.234157,0.4048125 -0.08731,0.127 -0.1905,0.2460625 -0.301625,0.3571875 l -0.60325,0.6072188 -0.308735,0.728431 -0.528671,0.1050063 -0.781844,-0.333375 -0.333375,-0.7818438 0.119063,-0.4286249 z"
       style="clip-rule:evenodd;fill:#f77c31;fill-rule:nonzero;stroke-width:3.96875;stroke-linejoin:round;stroke-miterlimit:2;fill-opacity:1"
       id="path14068"
       sodipodi:nodetypes="cccccccccsccccccccccccc" /><path
       d="m -52.580946,0.5320179 c 0.178594,-0.0833438 0.361156,-0.14684375 0.555625,-0.1905 0.1905,-0.0436563 0.384969,-0.0635 0.583406,-0.0635 0,0.1984375 -0.02381,0.39290625 -0.0635,0.58340625 -0.04366,0.19049995 -0.107157,0.37703125 -0.1905,0.55562495 z"
       style="clip-rule:evenodd;fill:#ce6829;fill-rule:nonzero;stroke-width:3.96875;stroke-linejoin:round;stroke-miterlimit:2;fill-opacity:1"
       id="path14070" /><path
       d="m -54.692321,3.0680491 c 0.0635,0 0.123031,0.011906 0.178594,0.035719 0.05556,0.023813 0.103187,0.059531 0.142875,0.099219 0.04366,0.039688 0.07541,0.091281 0.09922,0.1468438 0.02778,0.055562 0.03969,0.1150938 0.03969,0.1785937 0,0.0635 -0.01191,0.1190625 -0.03572,0.1746251 -0.02381,0.055562 -0.05953,0.1031874 -0.103187,0.1508124 -0.0635,0.067469 -0.134938,0.1230313 -0.210344,0.1627188 -0.07541,0.043656 -0.154781,0.075406 -0.238125,0.099219 -0.08334,0.023813 -0.166687,0.039687 -0.254,0.047625 -0.08731,0.00794 -0.178594,0.011906 -0.269875,0.011906 0,-0.091281 0.004,-0.1785938 0.01191,-0.2659062 0.01191,-0.087313 0.02778,-0.174625 0.04763,-0.2579688 0.02381,-0.083344 0.05953,-0.15875 0.09922,-0.238125 0.04366,-0.075406 0.09922,-0.142875 0.166688,-0.2103437 0.04366,-0.043656 0.09525,-0.079375 0.146843,-0.099219 0.05556,-0.023813 0.115094,-0.035719 0.178594,-0.035719 z"
       style="clip-rule:evenodd;fill:#f7630c;fill-rule:nonzero;stroke-width:3.96875;stroke-linejoin:round;stroke-miterlimit:2"
       id="path14072" /><path
       d="m -54.612946,3.2228304 c 0.0635,0 0.119063,0.019844 0.15875,0.0635 0.04366,0.043656 0.06747,0.09525 0.06747,0.1627188 0,0.039687 -0.01191,0.079375 -0.02778,0.1150937 -0.01588,0.039688 -0.03969,0.071438 -0.06747,0.1031875 -0.03969,0.039687 -0.08334,0.075406 -0.130969,0.1031875 -0.04366,0.023813 -0.09128,0.047625 -0.138906,0.0635 -0.04763,0.019844 -0.09922,0.03175 -0.150812,0.043656 -0.05159,0.00794 -0.107157,0.015875 -0.162719,0.019844 0.004,-0.055563 0.01191,-0.1071562 0.02381,-0.15875 0.0079,-0.055563 0.02381,-0.1031875 0.03969,-0.1547812 0.01588,-0.047625 0.03969,-0.09525 0.06747,-0.1389063 0.02778,-0.043656 0.05953,-0.087313 0.103188,-0.127 0.02778,-0.027781 0.0635,-0.051594 0.09922,-0.071438 0.03969,-0.015875 0.07541,-0.023813 0.119062,-0.023813 z"
       style="clip-rule:evenodd;fill:#ffc83d;fill-rule:nonzero;stroke-width:3.96875;stroke-linejoin:round;stroke-miterlimit:2"
       id="path14074" /><path
       d="m -54.787571,2.5044866 1.115219,1.1152188 -0.627063,0.2103437 -0.694531,-0.6984999 z"
       style="clip-rule:evenodd;fill:#4a5459;fill-rule:nonzero;stroke-width:3.96875;stroke-linejoin:round;stroke-miterlimit:2"
       id="path14076" /><path
       style="clip-rule:evenodd;fill:#ce6829;fill-rule:nonzero;stroke-width:3.96875;stroke-linejoin:round;stroke-miterlimit:2;fill-opacity:1"
       d="m -54.787571,2.5044866 -0.416719,-0.4167187 0.416719,-0.4167188 h 0.837407 z"
       id="path361" /><path
       style="fill:#ffffff;fill-opacity:1;stroke:#000000;stroke-width:0.05;stroke-linecap:butt;stroke-linejoin:miter;stroke-dasharray:none;stroke-opacity:1"
       d="m -52.845876,0.65470772 c 0,0 0.290304,0.15801268 0.476338,0.32337667 0.186035,0.16536391 0.622182,0.69246161 0.622182,0.69246161 l -0.03654,-0.027771 -0.194155,0.2660872 c 0,0 -0.296402,-0.3788755 -0.519643,-0.5752453 -0.223241,-0.1963697 -0.628383,-0.4774885 -0.628383,-0.4774885 z"
       id="path1470"
       sodipodi:nodetypes="cccccscc" /><path
       style="clip-rule:evenodd;fill:#ce6829;fill-rule:nonzero;stroke-width:3.96875;stroke-linejoin:round;stroke-miterlimit:2;fill-opacity:1"
       d="m -52.834946,2.7862679 -0.16276,0.6147197 -0.458605,0.4436944 -0.216041,-0.2249766 z"
       id="path14082"
       sodipodi:nodetypes="ccccc" /><path
       d="m -52.834946,2.0877679 c -0.05953,0 -0.111125,-0.011906 -0.162718,-0.035719 -0.05159,-0.019844 -0.09525,-0.051594 -0.134938,-0.087313 -0.03572,-0.035719 -0.0635,-0.083344 -0.08731,-0.1309687 -0.02381,-0.051594 -0.03175,-0.1071563 -0.03175,-0.1627188 0,-0.059531 0.0079,-0.1111249 0.03175,-0.1627187 0.02381,-0.051594 0.05159,-0.09525 0.08731,-0.1349375 0.03969,-0.035719 0.08334,-0.067469 0.134938,-0.087313 0.05159,-0.023812 0.103187,-0.035719 0.162718,-0.035719 0.05556,0 0.111125,0.011906 0.162719,0.035719 0.04762,0.019844 0.09525,0.051594 0.130969,0.087313 0.03969,0.039687 0.06747,0.083344 0.09128,0.1349375 0.01984,0.047625 0.03175,0.1031875 0.03175,0.1627187 0,0.055562 -0.01191,0.111125 -0.03175,0.1627188 -0.02381,0.047625 -0.05159,0.09525 -0.09128,0.1309687 -0.03572,0.035719 -0.08334,0.067469 -0.134938,0.087313 -0.04763,0.023813 -0.103187,0.035719 -0.15875,0.035719 z"
       style="clip-rule:evenodd;fill:#000000;fill-rule:nonzero;stroke-width:3.96875;stroke-linejoin:round;stroke-miterlimit:2;fill-opacity:1"
       id="path14078" /><path
       d="m -52.557133,1.6710491 c 0,0.039687 -0.0079,0.075406 -0.02381,0.1071563 -0.01191,0.035719 -0.03175,0.0635 -0.05953,0.087312 -0.02381,0.027781 -0.05556,0.047625 -0.08731,0.059531 -0.03175,0.015875 -0.07144,0.023813 -0.107157,0.023813 -0.03969,0 -0.07541,-0.00794 -0.111125,-0.023813 -0.03175,-0.011906 -0.0635,-0.03175 -0.08731,-0.059531 -0.02381,-0.023813 -0.04366,-0.051594 -0.05953,-0.087312 -0.01191,-0.03175 -0.01984,-0.067469 -0.01984,-0.1071563 0,-0.039688 0.0079,-0.075406 0.01984,-0.1111249 0.01588,-0.03175 0.03572,-0.059531 0.05953,-0.087313 0.02381,-0.023813 0.05556,-0.043656 0.08731,-0.059531 0.03572,-0.015875 0.07144,-0.023813 0.111125,-0.023813 0.03572,0 0.07541,0.00794 0.107157,0.023813 0.03175,0.015875 0.0635,0.035719 0.08731,0.059531 0.02778,0.027781 0.04762,0.055562 0.05953,0.087313 0.01587,0.035719 0.02381,0.071437 0.02381,0.1111249 z"
       style="clip-rule:evenodd;fill:#ffffff;fill-rule:nonzero;stroke-width:3.96875;stroke-linejoin:round;stroke-miterlimit:2;fill-opacity:1"
       id="path14080" /><path
       style="fill:#ffffff;fill-opacity:1;stroke:#000000;stroke-width:0.05;stroke-linecap:butt;stroke-linejoin:miter;stroke-dasharray:none;stroke-opacity:1"
       d="m -52.382417,0.423951 c 0,0 0.194779,0.17379671 0.358076,0.33089251 0.163296,0.15709575 0.431529,0.44605969 0.431529,0.44605969 l -0.08275,0.2519116 c 0,0 -0.227937,-0.2922417 -0.449112,-0.49898984 -0.2092,-0.19555375 -0.487694,-0.42006955 -0.487694,-0.42006955 z"
       id="path1467"
       sodipodi:nodetypes="csccscc" /><path
       style="fill:#ffffff;fill-opacity:1;stroke:#000000;stroke-width:0.05;stroke-linecap:butt;stroke-linejoin:miter;stroke-dasharray:none;stroke-opacity:1"
       d="m -53.761356,1.4837054 c 0,0 0.280632,0.5378779 0.45895,0.6869636 0.178318,0.1490858 0.648962,0.444334 0.648962,0.444334 l -0.195858,0.2075507 c 0,0 -0.298172,-0.2221669 -0.608036,-0.5057222 -0.309865,-0.2835552 -0.473567,-0.6665009 -0.473567,-0.6665009 z"
       id="path2199" /><path
       style="fill:#ffffff;fill-opacity:1;stroke:#000000;stroke-width:0.05;stroke-linecap:butt;stroke-linejoin:miter;stroke-dasharray:none;stroke-opacity:1"
       d="m -54.472609,2.2077973 c 0,0 0.337197,0.3933879 0.508762,0.5794223 0.171565,0.1860347 0.582406,0.5065311 0.582406,0.5065311 l -0.314087,0.3196833 c 0,0 -0.293123,-0.3156529 -0.537035,-0.563699 -0.243912,-0.2480461 -0.526095,-0.5491868 -0.526095,-0.5491868 z"
       id="path5105"
       sodipodi:nodetypes="csccscc" /><ellipse
       style="fill:#000000;fill-opacity:1;stroke:#000000;stroke-width:0.0499999;stroke-linejoin:round;stroke-dasharray:none;stroke-opacity:1"
       id="path8063"
       cx="-52.721863"
       cy="1.6405706"
       rx="0.059196025"
       ry="0.057003576" /><path
       style="fill:none;stroke:#000000;stroke-width:0.1;stroke-linecap:butt;stroke-linejoin:miter;stroke-dasharray:none;stroke-opacity:1"
       d="m -52.808831,2.2763798 c 0,0 0.238245,0.146163 0.456028,0.093544"
       id="path8065"
       sodipodi:nodetypes="cc" /></g></svg>
