<?xml version="1.0" encoding="UTF-8" standalone="no"?>
<svg
   xmlns:dc="http://purl.org/dc/elements/1.1/"
   xmlns:cc="http://creativecommons.org/ns#"
   xmlns:rdf="http://www.w3.org/1999/02/22-rdf-syntax-ns#"
   xmlns:svg="http://www.w3.org/2000/svg"
   xmlns="http://www.w3.org/2000/svg"
   xmlns:xlink="http://www.w3.org/1999/xlink"
   id="svg8"
   version="1.1"
   viewBox="0 0 6.3030171 6.457726"
   height="6.457726mm"
   width="6.3030171mm">
  <defs
     id="defs2">
    <linearGradient
       id="gradient_belly_shadow">
      <stop
         offset="0"
         stop-color="#000000"
         id="stop4520" />
      <stop
         offset="1"
         stop-color="#000000"
         stop-opacity="0.25"
         id="stop4522" />
    </linearGradient>
    <linearGradient
       id="gradient_wing_tip_right_shadow">
      <stop
         offset="0"
         stop-color="#110800"
         id="stop4525" />
      <stop
         offset="0.59"
         stop-color="#a65a00"
         stop-opacity="0.8"
         id="stop4527" />
      <stop
         offset="1"
         stop-color="#ff921e"
         stop-opacity="0"
         id="stop4529" />
    </linearGradient>
    <linearGradient
       id="gradient_wing_tip_right_glare_1">
      <stop
         offset="0"
         stop-color="#7c7c7c"
         id="stop4532" />
      <stop
         offset="1"
         stop-color="#7c7c7c"
         stop-opacity="0.33"
         id="stop4534" />
    </linearGradient>
    <linearGradient
       id="gradient_foot_left_layer_1">
      <stop
         offset="0"
         stop-color="#b98309"
         id="stop4542" />
      <stop
         offset="1"
         stop-color="#382605"
         id="stop4544" />
    </linearGradient>
    <linearGradient
       id="gradient_foot_left_glare">
      <stop
         offset="0"
         stop-color="#ebc40c"
         id="stop4547" />
      <stop
         offset="1"
         stop-color="#ebc40c"
         stop-opacity="0"
         id="stop4549" />
    </linearGradient>
    <linearGradient
       id="gradient_foot_right_shadow">
      <stop
         offset="0"
         stop-color="#000000"
         id="stop4552" />
      <stop
         offset="1"
         stop-color="#000000"
         stop-opacity="0"
         id="stop4554" />
    </linearGradient>
    <linearGradient
       id="gradient_foot_right_layer_1">
      <stop
         offset="0"
         stop-color="#3e2a06"
         id="stop4557" />
      <stop
         offset="1"
         stop-color="#ad780a"
         id="stop4559" />
    </linearGradient>
    <linearGradient
       id="gradient_foot_right_glare">
      <stop
         offset="0"
         stop-color="#f3cd0c"
         id="stop4562" />
      <stop
         offset="1"
         stop-color="#f3cd0c"
         stop-opacity="0"
         id="stop4564" />
    </linearGradient>
    <linearGradient
       id="gradient_eyeball">
      <stop
         offset="0"
         stop-color="#fefefc"
         id="stop4567" />
      <stop
         offset="0.75"
         stop-color="#fefefc"
         id="stop4569" />
      <stop
         offset="1"
         stop-color="#d4d4d4"
         id="stop4571" />
    </linearGradient>
    <linearGradient
       id="gradient_pupil_left_glare">
      <stop
         offset="0"
         stop-color="#757574"
         stop-opacity="0"
         id="stop4574" />
      <stop
         offset="0.25"
         stop-color="#757574"
         id="stop4576" />
      <stop
         offset="0.5"
         stop-color="#757574"
         id="stop4578" />
      <stop
         offset="1"
         stop-color="#757574"
         stop-opacity="0"
         id="stop4580" />
    </linearGradient>
    <linearGradient
       id="gradient_pupil_right_glare_2">
      <stop
         offset="0"
         stop-color="#949494"
         stop-opacity="0.39"
         id="stop4583" />
      <stop
         offset="0.5"
         stop-color="#949494"
         id="stop4585" />
      <stop
         offset="1"
         stop-color="#949494"
         stop-opacity="0.39"
         id="stop4587" />
    </linearGradient>
    <linearGradient
       id="gradient_eyelid_left">
      <stop
         offset="0"
         stop-color="#c8c8c8"
         id="stop4590" />
      <stop
         offset="1"
         stop-color="#797978"
         id="stop4592" />
    </linearGradient>
    <linearGradient
       id="gradient_eyelid_right">
      <stop
         offset="0"
         stop-color="#747474"
         id="stop4595" />
      <stop
         offset="0.13"
         stop-color="#8c8c8c"
         id="stop4597" />
      <stop
         offset="0.25"
         stop-color="#a4a4a4"
         id="stop4599" />
      <stop
         offset="0.5"
         stop-color="#d4d4d4"
         id="stop4601" />
      <stop
         offset="0.62"
         stop-color="#d4d4d4"
         id="stop4603" />
      <stop
         offset="1"
         stop-color="#7c7c7c"
         id="stop4605" />
    </linearGradient>
    <linearGradient
       id="gradient_eyebrow">
      <stop
         offset="0"
         stop-color="#646464"
         stop-opacity="0"
         id="stop4608" />
      <stop
         offset="0.31"
         stop-color="#646464"
         stop-opacity="0.58"
         id="stop4610" />
      <stop
         offset="0.47"
         stop-color="#646464"
         id="stop4612" />
      <stop
         offset="0.73"
         stop-color="#646464"
         stop-opacity="0.26"
         id="stop4614" />
      <stop
         offset="1"
         stop-color="#646464"
         stop-opacity="0"
         id="stop4616" />
    </linearGradient>
    <linearGradient
       id="gradient_beak_base">
      <stop
         offset="0"
         stop-color="#020204"
         id="stop4619" />
      <stop
         offset="0.73"
         stop-color="#020204"
         id="stop4621" />
      <stop
         offset="1"
         stop-color="#5c5c5c"
         id="stop4623" />
    </linearGradient>
    <linearGradient
       id="gradient_mandible_lower">
      <stop
         offset="0"
         stop-color="#d2940a"
         id="stop4626" />
      <stop
         offset="0.75"
         stop-color="#d89c08"
         id="stop4628" />
      <stop
         offset="0.87"
         stop-color="#b67e07"
         id="stop4630" />
      <stop
         offset="1"
         stop-color="#946106"
         id="stop4632" />
    </linearGradient>
    <linearGradient
       id="gradient_mandible_upper">
      <stop
         offset="0"
         stop-color="#ad780a"
         id="stop4635" />
      <stop
         offset="0.12"
         stop-color="#d89e08"
         id="stop4637" />
      <stop
         offset="0.25"
         stop-color="#edb80b"
         id="stop4639" />
      <stop
         offset="0.39"
         stop-color="#ebc80d"
         id="stop4641" />
      <stop
         offset="0.53"
         stop-color="#f5d838"
         id="stop4643" />
      <stop
         offset="0.77"
         stop-color="#f6d811"
         id="stop4645" />
      <stop
         offset="1"
         stop-color="#f5cd31"
         id="stop4647" />
    </linearGradient>
    <linearGradient
       id="gradient_nares">
      <stop
         offset="0"
         stop-color="#3a2903"
         id="stop4650" />
      <stop
         offset="0.55"
         stop-color="#735208"
         id="stop4652" />
      <stop
         offset="1"
         stop-color="#ac8c04"
         id="stop4654" />
    </linearGradient>
    <linearGradient
       id="gradient_beak_corner">
      <stop
         offset="0"
         stop-color="#f5ce2d"
         id="stop4657" />
      <stop
         offset="1"
         stop-color="#d79b08"
         id="stop4659" />
    </linearGradient>
    <radialGradient
       id="fill_belly_shadow_left"
       href="#gradient_belly_shadow"
       xlink:href="#gradient_belly_shadow"
       gradientUnits="userSpaceOnUse"
       cx="0"
       cy="0"
       r="1"
       gradientTransform="matrix(19,0,0,18,61.18,121.19)" />
    <radialGradient
       id="fill_belly_shadow_right"
       href="#gradient_belly_shadow"
       xlink:href="#gradient_belly_shadow"
       gradientUnits="userSpaceOnUse"
       cx="0"
       cy="0"
       r="1"
       gradientTransform="matrix(23.6,0,0,18,125.74,131.6)" />
    <radialGradient
       id="fill_belly_shadow_middle"
       href="#gradient_belly_shadow"
       xlink:href="#gradient_belly_shadow"
       gradientUnits="userSpaceOnUse"
       cx="0"
       cy="0"
       r="1"
       gradientTransform="matrix(9.35,0,0,10,94.21,127.47)" />
    <linearGradient
       id="fill_foot_left_base"
       href="#gradient_foot_left_layer_1"
       xlink:href="#gradient_foot_left_layer_1"
       gradientUnits="userSpaceOnUse"
       x1="23.18"
       y1="193.00999"
       x2="64.309998"
       y2="262.01999" />
    <linearGradient
       id="fill_foot_left_glare"
       href="#gradient_foot_left_glare"
       xlink:href="#gradient_foot_left_glare"
       gradientUnits="userSpaceOnUse"
       x1="64.470001"
       y1="210.83"
       x2="77.410004"
       y2="235.21001" />
    <linearGradient
       id="fill_foot_right_shadow"
       href="#gradient_foot_right_shadow"
       xlink:href="#gradient_foot_right_shadow"
       gradientUnits="userSpaceOnUse"
       x1="146.92999"
       y1="211.96001"
       x2="150.2"
       y2="235.73" />
    <linearGradient
       id="fill_foot_right_base"
       href="#gradient_foot_right_layer_1"
       xlink:href="#gradient_foot_right_layer_1"
       gradientUnits="userSpaceOnUse"
       x1="151.5"
       y1="253.02"
       x2="192.94"
       y2="185.84" />
    <linearGradient
       id="fill_foot_right_glare"
       href="#gradient_foot_right_glare"
       xlink:href="#gradient_foot_right_glare"
       gradientUnits="userSpaceOnUse"
       x1="162.81"
       y1="180.67"
       x2="161.59"
       y2="191.64" />
    <radialGradient
       id="fill_wing_tip_right_shadow_lower"
       href="#gradient_wing_tip_right_shadow"
       xlink:href="#gradient_wing_tip_right_shadow"
       gradientUnits="userSpaceOnUse"
       cx="0"
       cy="0"
       r="1"
       gradientTransform="matrix(18.990102,5.0883824,-5.3420251,19.936709,169.71,194.53)" />
    <radialGradient
       id="fill_wing_tip_right_shadow_upper"
       href="#gradient_wing_tip_right_shadow"
       xlink:href="#gradient_wing_tip_right_shadow"
       gradientUnits="userSpaceOnUse"
       cx="0"
       cy="0"
       r="1"
       gradientTransform="matrix(19.722395,-0.83350987,0.62745474,14.846747,169.71,189.89)" />
    <radialGradient
       id="fill_wing_tip_right_glare_1"
       href="#gradient_wing_tip_right_glare_1"
       xlink:href="#gradient_wing_tip_right_glare_1"
       gradientUnits="userSpaceOnUse"
       cx="0"
       cy="0"
       r="1"
       gradientTransform="matrix(6.3735675,2.771306,-1.2799845,2.9437628,184.65,176.62)" />
    <linearGradient
       id="fill_wing_tip_right_glare_2"
       href="#gradient_wing_tip_right_glare_2"
       xlink:href="#gradient_wing_tip_right_glare_1"
       gradientUnits="userSpaceOnUse"
       x1="165.69"
       y1="173.58"
       x2="168.27"
       y2="173.47" />
    <radialGradient
       id="fill_eyeball_left"
       href="#gradient_eyeball"
       xlink:href="#gradient_eyeball"
       gradientUnits="userSpaceOnUse"
       cx="0"
       cy="0"
       r="1"
       gradientTransform="matrix(10.239439,-0.10723107,0.16419757,15.67914,86.49,51.41)" />
    <linearGradient
       id="fill_pupil_left_glare"
       href="#gradient_pupil_left_glare"
       xlink:href="#gradient_pupil_left_glare"
       gradientUnits="userSpaceOnUse"
       x1="84.290001"
       y1="46.639999"
       x2="89.32"
       y2="55.630001" />
    <radialGradient
       id="fill_eyelid_left"
       href="#gradient_eyelid_left"
       xlink:href="#gradient_eyelid_left"
       gradientUnits="userSpaceOnUse"
       cx="0"
       cy="0"
       r="1"
       gradientTransform="matrix(6.1669645,-1.015406,0.93742278,5.6933416,84.89,43.74)" />
    <linearGradient
       id="fill_eyebrow_left"
       href="#gradient_eyebrow"
       xlink:href="#gradient_eyebrow"
       gradientUnits="userSpaceOnUse"
       x1="83.589996"
       y1="32.509998"
       x2="94.480003"
       y2="43.630001" />
    <radialGradient
       id="fill_eyeball_right"
       href="#gradient_eyeball"
       xlink:href="#gradient_eyeball"
       gradientUnits="userSpaceOnUse"
       cx="0"
       cy="0"
       r="1"
       gradientTransform="matrix(13.633269,-0.42844275,0.4925207,15.672263,118.06,51.41)" />
    <linearGradient
       id="fill_pupil_right_glare"
       href="#gradient_pupil_right_glare_2"
       xlink:href="#gradient_pupil_right_glare_2"
       gradientUnits="userSpaceOnUse"
       x1="117.87"
       y1="47.25"
       x2="123.66"
       y2="54.110001" />
    <linearGradient
       id="fill_eyelid_right"
       href="#gradient_eyelid_right"
       xlink:href="#gradient_eyelid_right"
       gradientUnits="userSpaceOnUse"
       x1="112.9"
       y1="36.23"
       x2="131.32001"
       y2="47.009998" />
    <linearGradient
       id="fill_eyebrow_right"
       href="#gradient_eyebrow"
       xlink:href="#gradient_eyebrow"
       gradientUnits="userSpaceOnUse"
       x1="119.16"
       y1="31.559999"
       x2="131.42"
       y2="43.139999" />
    <radialGradient
       id="fill_beak_base"
       href="#gradient_beak_base"
       xlink:href="#gradient_beak_base"
       gradientUnits="userSpaceOnUse"
       cx="0"
       cy="0"
       r="1"
       gradientTransform="matrix(9.2551544,-6.7242633,6.1012109,8.3975964,97.64,60.12)" />
    <radialGradient
       id="fill_mandible_lower_base"
       href="#gradient_mandible_lower"
       xlink:href="#gradient_mandible_lower"
       gradientUnits="userSpaceOnUse"
       cx="0"
       cy="0"
       r="1"
       gradientTransform="matrix(25.101425,-10.346061,7.2670121,17.631093,109.77,70.61)" />
    <linearGradient
       id="fill_mandible_upper_base"
       href="#gradient_mandible_upper"
       xlink:href="#gradient_mandible_upper"
       gradientUnits="userSpaceOnUse"
       x1="78.089996"
       y1="69.260002"
       x2="126.77"
       y2="68.879997" />
    <radialGradient
       id="fill_naris_left"
       href="#gradient_nares"
       xlink:href="#gradient_nares"
       gradientUnits="userSpaceOnUse"
       cx="0"
       cy="0"
       r="1"
       gradientTransform="matrix(1.32,0,0,1.42,92.11,59.88)" />
    <radialGradient
       id="fill_naris_right"
       href="#gradient_nares"
       xlink:href="#gradient_nares"
       gradientUnits="userSpaceOnUse"
       cx="0"
       cy="0"
       r="1"
       gradientTransform="matrix(2.78,0,0,1.62,104.65,59.7)" />
    <linearGradient
       id="fill_beak_corner"
       href="#gradient_beak_corner"
       xlink:href="#gradient_beak_corner"
       gradientUnits="userSpaceOnUse"
       x1="126.74"
       y1="67.489998"
       x2="126.74"
       y2="71.089996" />
    <filter
       id="blur_belly_shadow_left">
      <feGaussianBlur
         stdDeviation="0.64 0.55"
         id="feGaussianBlur4688" />
    </filter>
    <filter
       id="blur_belly_shadow_right">
      <feGaussianBlur
         stdDeviation="0.98"
         id="feGaussianBlur4691" />
    </filter>
    <filter
       id="blur_belly_shadow_middle">
      <feGaussianBlur
         stdDeviation="0.68"
         id="feGaussianBlur4694" />
    </filter>
    <filter
       id="blur_belly_shadow_lower"
       x="-0.80000001"
       width="2.5999999"
       y="-0.2"
       height="1.4">
      <feGaussianBlur
         stdDeviation="1.25"
         id="feGaussianBlur4697" />
    </filter>
    <filter
       id="blur_belly_glare"
       x="-0.80000001"
       width="2.5999999"
       y="-0.5"
       height="2">
      <feGaussianBlur
         stdDeviation="1.78 2.19"
         id="feGaussianBlur4700" />
    </filter>
    <filter
       id="blur_head_glare"
       x="-0.30000001"
       width="1.6"
       y="-0.30000001"
       height="1.6">
      <feGaussianBlur
         stdDeviation="1.73"
         id="feGaussianBlur4703" />
    </filter>
    <filter
       id="blur_neck_glare"
       x="-0.2"
       width="1.4"
       y="-0.2"
       height="1.4">
      <feGaussianBlur
         stdDeviation="0.78"
         id="feGaussianBlur4706" />
    </filter>
    <filter
       id="blur_wing_left_glare"
       x="-0.2"
       width="1.4"
       y="-0.2"
       height="1.4">
      <feGaussianBlur
         stdDeviation="0.98"
         id="feGaussianBlur4709" />
    </filter>
    <filter
       id="blur_wing_right_glare"
       x="-0.2"
       width="1.4"
       y="-0.2"
       height="1.4">
      <feGaussianBlur
         stdDeviation="1.19 1.17"
         id="feGaussianBlur4712" />
    </filter>
    <filter
       id="blur_foot_left_layer_1"
       x="-0.2"
       width="1.4"
       y="-0.2"
       height="1.4">
      <feGaussianBlur
         stdDeviation="3.38"
         id="feGaussianBlur4715" />
    </filter>
    <filter
       id="blur_foot_left_layer_2">
      <feGaussianBlur
         stdDeviation="2.1 2.06"
         id="feGaussianBlur4718" />
    </filter>
    <filter
       id="blur_foot_left_glare">
      <feGaussianBlur
         stdDeviation="0.32"
         id="feGaussianBlur4721" />
    </filter>
    <filter
       id="blur_foot_right_shadow">
      <feGaussianBlur
         stdDeviation="1.95 1.9"
         id="feGaussianBlur4724" />
    </filter>
    <filter
       id="blur_foot_right_layer_1"
       x="-0.2"
       width="1.4"
       y="-0.2"
       height="1.4">
      <feGaussianBlur
         stdDeviation="4.12"
         id="feGaussianBlur4727" />
    </filter>
    <filter
       id="blur_foot_right_layer_2"
       x="-0.2"
       width="1.4"
       y="-0.2"
       height="1.4">
      <feGaussianBlur
         stdDeviation="3.12 3.37"
         id="feGaussianBlur4730" />
    </filter>
    <filter
       id="blur_foot_right_glare"
       x="-0.2"
       width="1.4"
       y="-0.2"
       height="1.4">
      <feGaussianBlur
         stdDeviation="0.41"
         id="feGaussianBlur4733" />
    </filter>
    <filter
       id="blur_wing_tip_right_shadow_lower"
       x="-0.30000001"
       width="1.6"
       y="-0.30000001"
       height="1.6">
      <feGaussianBlur
         stdDeviation="2.45"
         id="feGaussianBlur4736" />
    </filter>
    <filter
       id="blur_wing_tip_right_shadow_upper"
       x="-0.2"
       width="1.4"
       y="-0.2"
       height="1.4">
      <feGaussianBlur
         stdDeviation="1.12 0.81"
         id="feGaussianBlur4739" />
    </filter>
    <filter
       id="blur_wing_tip_right_glare"
       x="-0.2"
       width="1.4"
       y="-0.2"
       height="1.4">
      <feGaussianBlur
         stdDeviation="0.88"
         id="feGaussianBlur4742" />
    </filter>
    <filter
       id="blur_pupil_left_glare"
       x="-0.30000001"
       width="1.6"
       y="-0.30000001"
       height="1.6">
      <feGaussianBlur
         stdDeviation="0.44"
         id="feGaussianBlur4745" />
    </filter>
    <filter
       id="blur_eyebrow_left">
      <feGaussianBlur
         stdDeviation="0.12"
         id="feGaussianBlur4748" />
    </filter>
    <filter
       id="blur_pupil_right_glare"
       x="-0.2"
       width="1.4"
       y="-0.2"
       height="1.4">
      <feGaussianBlur
         stdDeviation="0.45"
         id="feGaussianBlur4751" />
    </filter>
    <filter
       id="blur_eyebrow_right">
      <feGaussianBlur
         stdDeviation="0.13"
         id="feGaussianBlur4754" />
    </filter>
    <filter
       id="blur_beak_shadow_lower"
       x="-0.2"
       width="1.4"
       y="-0.2"
       height="1.4">
      <feGaussianBlur
         stdDeviation="1.75"
         id="feGaussianBlur4757" />
    </filter>
    <filter
       id="blur_beak_shadow_upper">
      <feGaussianBlur
         stdDeviation="0.8 0.74"
         id="feGaussianBlur4760" />
    </filter>
    <filter
       id="blur_mandible_lower_glare"
       x="-0.2"
       width="1.4"
       y="-0.2"
       height="1.4">
      <feGaussianBlur
         stdDeviation="0.77"
         id="feGaussianBlur4763" />
    </filter>
    <filter
       id="blur_mandible_upper_shadow">
      <feGaussianBlur
         stdDeviation="0.65"
         id="feGaussianBlur4766" />
    </filter>
    <filter
       id="blur_mandible_upper_glare"
       x="-0.2"
       width="1.4"
       y="-0.2"
       height="1.4">
      <feGaussianBlur
         stdDeviation="0.73"
         id="feGaussianBlur4769" />
    </filter>
    <filter
       id="blur_naris_left"
       x="-0.2"
       width="1.4"
       y="-0.2"
       height="1.4">
      <feGaussianBlur
         stdDeviation="0.1"
         id="feGaussianBlur4772" />
    </filter>
    <filter
       id="blur_naris_right">
      <feGaussianBlur
         stdDeviation="0.1"
         id="feGaussianBlur4775" />
    </filter>
    <filter
       id="blur_beak_corner"
       x="-0.2"
       width="1.4"
       y="-0.2"
       height="1.4">
      <feGaussianBlur
         stdDeviation="0.23"
         id="feGaussianBlur4778" />
    </filter>
    <clipPath
       id="clip_body">
      <use
         height="100%"
         width="100%"
         y="0"
         x="0"
         href="#body_base"
         xlink:href="#body_base"
         id="use4781" />
    </clipPath>
    <clipPath
       id="clip_wing_left">
      <use
         height="100%"
         width="100%"
         y="0"
         x="0"
         href="#wing_left_base"
         xlink:href="#wing_left_base"
         id="use4784" />
    </clipPath>
    <clipPath
       id="clip_wing_right">
      <use
         height="100%"
         width="100%"
         y="0"
         x="0"
         href="#wing_right_base"
         xlink:href="#wing_right_base"
         id="use4787" />
    </clipPath>
    <clipPath
       id="clip_foot_left">
      <use
         height="100%"
         width="100%"
         y="0"
         x="0"
         href="#foot_left_base"
         xlink:href="#foot_left_base"
         id="use4790" />
    </clipPath>
    <clipPath
       id="clip_foot_right">
      <use
         height="100%"
         width="100%"
         y="0"
         x="0"
         href="#foot_right_base"
         xlink:href="#foot_right_base"
         id="use4793" />
    </clipPath>
    <clipPath
       id="clip_wing_tip_right">
      <use
         height="100%"
         width="100%"
         y="0"
         x="0"
         href="#wing_tip_right_base"
         xlink:href="#wing_tip_right_base"
         id="use4796" />
    </clipPath>
    <clipPath
       id="clip_eye_left">
      <use
         height="100%"
         width="100%"
         y="0"
         x="0"
         href="#eyeball_left"
         xlink:href="#eyeball_left"
         id="use4799" />
    </clipPath>
    <clipPath
       id="clip_pupil_left">
      <use
         height="100%"
         width="100%"
         y="0"
         x="0"
         href="#pupil_left_base"
         xlink:href="#pupil_left_base"
         id="use4802" />
    </clipPath>
    <clipPath
       id="clip_eye_right">
      <use
         height="100%"
         width="100%"
         y="0"
         x="0"
         href="#eyeball_right"
         xlink:href="#eyeball_right"
         id="use4805" />
    </clipPath>
    <clipPath
       id="clip_pupil_right">
      <use
         height="100%"
         width="100%"
         y="0"
         x="0"
         href="#pupil_right_base"
         xlink:href="#pupil_right_base"
         id="use4808" />
    </clipPath>
    <clipPath
       id="clip_mandible_lower">
      <use
         height="100%"
         width="100%"
         y="0"
         x="0"
         href="#mandible_lower_base"
         xlink:href="#mandible_lower_base"
         id="use4811" />
    </clipPath>
    <clipPath
       id="clip_mandible_upper">
      <use
         height="100%"
         width="100%"
         y="0"
         x="0"
         href="#mandible_upper_base"
         xlink:href="#mandible_upper_base"
         id="use4814" />
    </clipPath>
    <clipPath
       id="clip_beak">
      <use
         height="100%"
         width="100%"
         y="0"
         x="0"
         href="#mandible_lower_base"
         xlink:href="#mandible_lower_base"
         id="use4817" />
      <use
         height="100%"
         width="100%"
         y="0"
         x="0"
         href="#mandible_upper_base"
         xlink:href="#mandible_upper_base"
         id="use4819" />
    </clipPath>
    <path
       id="path_wing_tip_right_glare"
       d="m 168.89,171.07 c -0.47,0.03 -0.93,0.08 -1.4,0.17 -2.99,0.53 -5.73,2.42 -7.27,5.03 -1.09,1.85 -1.58,4.03 -1.43,6.17 0.07,-1.5 0.46,-2.97 1.19,-4.28 1.23,-2.23 3.47,-3.91 5.98,-4.37 1.54,-0.28 3.13,-0.11 4.68,0.08 1.5,0.19 3,0.39 4.47,0.7 2.28,0.5 4.53,1.26 6.44,2.59 0.44,0.31 0.86,0.66 1.21,1.08 0.35,0.41 0.62,0.89 0.73,1.42 0.15,0.78 -0.07,1.6 -0.46,2.29 -0.39,0.7 -0.92,1.3 -1.48,1.86 -0.46,0.46 -0.94,0.89 -1.43,1.32 2.21,-0.43 4.44,-1.03 6.28,-2.31 0.77,-0.55 1.48,-1.2 1.94,-2.02 0.46,-0.83 0.65,-1.83 0.43,-2.75 -0.16,-0.62 -0.5,-1.19 -0.92,-1.67 -0.42,-0.48 -0.93,-0.87 -1.45,-1.24 -2.31,-1.62 -5.01,-2.65 -7.81,-2.99 -1.8,-0.33 -3.61,-0.61 -5.42,-0.83 -1.41,-0.18 -2.86,-0.33 -4.28,-0.25 z" />
    <linearGradient
       y2="262.01999"
       x2="64.309998"
       y1="193.00999"
       x1="23.18"
       gradientUnits="userSpaceOnUse"
       id="linearGradient5320"
       xlink:href="#gradient_foot_left_layer_1" />
    <linearGradient
       y2="185.84"
       x2="192.94"
       y1="253.02"
       x1="151.5"
       gradientUnits="userSpaceOnUse"
       id="linearGradient5322"
       xlink:href="#gradient_foot_right_layer_1" />
    <radialGradient
       r="1"
       cy="0"
       cx="0"
       gradientTransform="matrix(10.239439,-0.10723107,0.16419757,15.67914,86.49,51.41)"
       gradientUnits="userSpaceOnUse"
       id="radialGradient5324"
       xlink:href="#gradient_eyeball" />
    <radialGradient
       r="1"
       cy="0"
       cx="0"
       gradientTransform="matrix(13.633269,-0.42844275,0.4925207,15.672263,118.06,51.41)"
       gradientUnits="userSpaceOnUse"
       id="radialGradient5326"
       xlink:href="#gradient_eyeball" />
    <radialGradient
       r="1"
       cy="0"
       cx="0"
       gradientTransform="matrix(25.101425,-10.346061,7.2670121,17.631093,109.77,70.61)"
       gradientUnits="userSpaceOnUse"
       id="radialGradient5328"
       xlink:href="#gradient_mandible_lower" />
    <linearGradient
       y2="68.879997"
       x2="126.77"
       y1="69.260002"
       x1="78.089996"
       gradientUnits="userSpaceOnUse"
       id="linearGradient5330"
       xlink:href="#gradient_mandible_upper" />
  </defs>
  <metadata
     id="metadata5">
    <rdf:RDF>
      <cc:Work
         rdf:about="">
        <dc:format>image/svg+xml</dc:format>
        <dc:type
           rdf:resource="http://purl.org/dc/dcmitype/StillImage" />
        <dc:title></dc:title>
      </cc:Work>
    </rdf:RDF>
  </metadata>
  <g
     transform="translate(-133.55667,-131.78826)"
     id="layer1">
    <g
       transform="matrix(-0.18708867,-0.18708867,0.18708867,-0.18708867,136.70818,139.74176)"
       id="g5198"
       style="clip-rule:evenodd;fill-rule:evenodd;stroke-linejoin:round;stroke-miterlimit:2">
      <g
         transform="matrix(0.24,0,0,0.24,-68.67996,-692.937)"
         id="g20566">
        <g
           transform="matrix(62.5,0,0,62.5,278.354,2944.3)"
           id="g14084">
          <path
             d="M 0.125,0.21 V 0.14 C 0.125,0.114 0.126,0.088 0.129,0.063 0.132,0.038 0.136,0.014 0.143,-0.01 0.149,-0.034 0.159,-0.056 0.17,-0.078 0.182,-0.1 0.197,-0.122 0.215,-0.142 l 0.04,-0.12 -0.124,-0.124 0.176,-0.176 h 0.21 l 0.132,-0.131 c 0.035,-0.036 0.073,-0.067 0.114,-0.094 0.041,-0.027 0.084,-0.05 0.129,-0.069 0.045,-0.018 0.091,-0.033 0.139,-0.042 0.048,-0.01 0.097,-0.015 0.147,-0.015 h 0.07 v 0.071 c 0,0.05 -0.005,0.098 -0.014,0.146 -0.01,0.048 -0.024,0.095 -0.043,0.14 -0.019,0.045 -0.042,0.088 -0.069,0.129 -0.027,0.04 -0.058,0.078 -0.093,0.114 L 0.897,-0.182 V 0.029 L 0.722,0.205 0.597,0.08 0.478,0.12 C 0.453,0.143 0.427,0.16 0.401,0.172 0.375,0.184 0.348,0.193 0.321,0.199 0.293,0.205 0.265,0.208 0.235,0.209 0.206,0.21 0.176,0.21 0.146,0.21 Z"
             style="fill-rule:nonzero"
             id="path14066" />
          <path
             d="M 0.486,-0.457 C 0.492,-0.46 0.497,-0.463 0.502,-0.466 0.507,-0.468 0.512,-0.47 0.517,-0.473 0.521,-0.475 0.526,-0.478 0.531,-0.481 0.535,-0.483 0.54,-0.487 0.546,-0.491 0.551,-0.495 0.556,-0.5 0.561,-0.504 0.565,-0.508 0.569,-0.512 0.573,-0.516 0.576,-0.52 0.58,-0.524 0.584,-0.528 0.587,-0.533 0.592,-0.537 0.597,-0.542 l 0.102,-0.102 c 0.028,-0.028 0.058,-0.053 0.09,-0.076 0.032,-0.022 0.066,-0.042 0.102,-0.058 l 0.155,0.067 0.068,0.156 c -0.017,0.036 -0.036,0.07 -0.059,0.102 -0.022,0.032 -0.048,0.062 -0.076,0.09 L 0.827,-0.21 0.769,-0.015 0.616,0 0.419,-0.084 0.335,-0.281 0.365,-0.389 Z"
             style="fill:#ffffff;fill-rule:nonzero"
             id="path14068" />
          <path
             d="m 0.891,-0.778 c 0.045,-0.021 0.091,-0.037 0.14,-0.048 0.048,-0.011 0.097,-0.016 0.147,-0.016 0,0.05 -0.006,0.099 -0.016,0.147 -0.011,0.048 -0.027,0.095 -0.048,0.14 z"
             style="fill:#e81224;fill-rule:nonzero"
             id="path14070" />
          <path
             d="m 0.359,-0.139 c 0.016,0 0.031,0.003 0.045,0.009 0.014,0.006 0.026,0.015 0.036,0.025 0.011,0.01 0.019,0.023 0.025,0.037 0.007,0.014 0.01,0.029 0.01,0.045 0,0.016 -0.003,0.03 -0.009,0.044 C 0.46,0.035 0.451,0.047 0.44,0.059 0.424,0.076 0.406,0.09 0.387,0.1 0.368,0.111 0.348,0.119 0.327,0.125 0.306,0.131 0.285,0.135 0.263,0.137 0.241,0.139 0.218,0.14 0.195,0.14 0.195,0.117 0.196,0.095 0.198,0.073 0.201,0.051 0.205,0.029 0.21,0.008 0.216,-0.013 0.225,-0.032 0.235,-0.052 0.246,-0.071 0.26,-0.088 0.277,-0.105 0.288,-0.116 0.301,-0.125 0.314,-0.13 0.328,-0.136 0.343,-0.139 0.359,-0.139 Z"
             style="fill:#f7630c;fill-rule:nonzero"
             id="path14072" />
          <path
             d="m 0.379,-0.1 c 0.016,0 0.03,0.005 0.04,0.016 0.011,0.011 0.017,0.024 0.017,0.041 0,0.01 -0.003,0.02 -0.007,0.029 C 0.425,-0.004 0.419,0.004 0.412,0.012 0.402,0.022 0.391,0.031 0.379,0.038 0.368,0.044 0.356,0.05 0.344,0.054 0.332,0.059 0.319,0.062 0.306,0.065 0.293,0.067 0.279,0.069 0.265,0.07 0.266,0.056 0.268,0.043 0.271,0.03 0.273,0.016 0.277,0.004 0.281,-0.009 0.285,-0.021 0.291,-0.033 0.298,-0.044 0.305,-0.055 0.313,-0.066 0.324,-0.076 0.331,-0.083 0.34,-0.089 0.349,-0.094 0.359,-0.098 0.368,-0.1 0.379,-0.1 Z"
             style="fill:#ffc83d;fill-rule:nonzero"
             id="path14074" />
          <path
             d="M 0.335,-0.281 0.616,0 0.458,0.053 0.283,-0.123 Z"
             style="fill:#4a5459;fill-rule:nonzero"
             id="path14076" />
          <path
             d="M 0.827,-0.386 C 0.812,-0.386 0.799,-0.389 0.786,-0.395 0.773,-0.4 0.762,-0.408 0.752,-0.417 0.743,-0.426 0.736,-0.438 0.73,-0.45 0.724,-0.463 0.722,-0.477 0.722,-0.491 c 0,-0.015 0.002,-0.028 0.008,-0.041 0.006,-0.013 0.013,-0.024 0.022,-0.034 0.01,-0.009 0.021,-0.017 0.034,-0.022 0.013,-0.006 0.026,-0.009 0.041,-0.009 0.014,0 0.028,0.003 0.041,0.009 0.012,0.005 0.024,0.013 0.033,0.022 0.01,0.01 0.017,0.021 0.023,0.034 0.005,0.012 0.008,0.026 0.008,0.041 0,0.014 -0.003,0.028 -0.008,0.041 -0.006,0.012 -0.013,0.024 -0.023,0.033 -0.009,0.009 -0.021,0.017 -0.034,0.022 -0.012,0.006 -0.026,0.009 -0.04,0.009 z"
             style="fill:#a6a6a6;fill-rule:nonzero"
             id="path14078" />
          <path
             d="m 0.897,-0.491 c 0,0.01 -0.002,0.019 -0.006,0.027 -0.003,0.009 -0.008,0.016 -0.015,0.022 -0.006,0.007 -0.014,0.012 -0.022,0.015 -0.008,0.004 -0.018,0.006 -0.027,0.006 -0.01,0 -0.019,-0.002 -0.028,-0.006 C 0.791,-0.43 0.783,-0.435 0.777,-0.442 0.771,-0.448 0.766,-0.455 0.762,-0.464 0.759,-0.472 0.757,-0.481 0.757,-0.491 c 0,-0.01 0.002,-0.019 0.005,-0.028 0.004,-0.008 0.009,-0.015 0.015,-0.022 0.006,-0.006 0.014,-0.011 0.022,-0.015 0.009,-0.004 0.018,-0.006 0.028,-0.006 0.009,0 0.019,0.002 0.027,0.006 0.008,0.004 0.016,0.009 0.022,0.015 0.007,0.007 0.012,0.014 0.015,0.022 0.004,0.009 0.006,0.018 0.006,0.028 z"
             style="fill:#cccccc;fill-rule:nonzero"
             id="path14080" />
          <path
             d="M 0.827,-0.21 V 0 L 0.722,0.105 0.616,0 Z M 0.335,-0.281 0.23,-0.386 0.335,-0.491 h 0.211 z m 0.159,0.14 c -0.005,0 -0.009,-0.001 -0.013,-0.005 -0.004,-0.003 -0.005,-0.007 -0.005,-0.012 0,-0.005 0.001,-0.009 0.005,-0.012 l 0.176,-0.176 c 0.003,-0.003 0.007,-0.005 0.012,-0.005 0.005,0 0.008,0.002 0.012,0.006 0.003,0.003 0.005,0.007 0.005,0.012 0,0.004 -0.002,0.008 -0.005,0.012 l -0.175,0.175 c -0.003,0.004 -0.007,0.005 -0.012,0.005 z"
             style="fill:#00bcf2;fill-rule:nonzero"
             id="path14082" />
        </g>
      </g>
    </g>
    <g
       transform="matrix(0.01735931,0,0,0.01735931,134.87861,131.78826)"
       id="tux">
      <g
         id="body">
        <path
           style="fill:#020204"
           id="body_base"
           d="m 106.95,0 c -6,0 -12.02,1.18 -17.46,4.12 -5.78,3.11 -10.52,8.09 -13.43,13.97 -2.92,5.88 -4.06,12.16 -4.24,19.08 -0.33,13.14 0.3,26.92 1.29,39.41 0.26,3.8 0.74,6.02 0.25,9.93 -1.62,8.3 -8.88,13.88 -12.76,21.17 -4.27,8.04 -6.07,17.13 -9.29,25.65 -2.95,7.79 -7.09,15.1 -9.88,22.95 -3.91,10.97 -5.08,23.03 -2.5,34.39 1.97,8.66 6.08,16.78 11.62,23.73 -0.8,1.44 -1.58,2.91 -2.4,4.34 -2.57,4.43 -5.71,8.64 -7.17,13.55 -0.73,2.45 -1.02,5.07 -0.55,7.59 0.47,2.52 1.75,4.93 3.75,6.53 1.31,1.04 2.9,1.72 4.53,2.1 1.63,0.37 3.32,0.46 5,0.43 6.37,-0.14 12.55,-2.07 18.71,-3.69 3.66,-0.96 7.34,-1.81 11.03,-2.58 13.14,-2.69 27.8,-1.61 39.99,0.15 4.13,0.63 8.23,1.44 12.29,2.43 6.36,1.54 12.69,3.5 19.23,3.69 1.72,0.05 3.46,-0.03 5.14,-0.4 1.68,-0.38 3.31,-1.06 4.65,-2.13 2.01,-1.6 3.29,-4.02 3.76,-6.54 0.47,-2.52 0.18,-5.15 -0.56,-7.61 -1.48,-4.92 -4.65,-9.11 -7.27,-13.52 -1.04,-1.75 -2,-3.53 -3.03,-5.28 7.9,-8.87 14.26,-19.13 17.94,-30.4 4.01,-12.3 4.75,-25.55 3.06,-38.38 -1.69,-12.83 -5.76,-25.27 -11.11,-37.05 -6.72,-14.76 -12.37,-20.1 -16.47,-33.07 -4.42,-14.02 -0.77,-30.61 -4.06,-43.32 -1.17,-4.32 -3.04,-8.45 -5.45,-12.23 -2.82,-4.43 -6.4,-8.39 -10.65,-11.47 C 124.13,2.62 115.61,0 106.95,0 Z" />
        <path
           style="fill:#fdfdfb"
           id="belly"
           d="m 83.13,74 c -0.9,1.13 -1.48,2.49 -1.84,3.89 -0.35,1.4 -0.48,2.85 -0.54,4.3 -0.11,2.89 0.07,5.83 -0.7,8.62 -0.82,2.98 -2.65,5.57 -4.44,8.08 -3.11,4.36 -6.25,8.84 -7.78,13.97 -0.93,3.1 -1.24,6.39 -0.91,9.62 -3.47,5.1 -6.48,10.53 -8.98,16.18 -3.78,8.57 -6.37,17.69 -7.28,27.01 -1.12,11.41 0.34,23.15 4.85,33.69 3.25,7.63 8.11,14.6 14.38,20.04 3.18,2.76 6.72,5.11 10.5,6.97 13.11,6.45 29.31,6.46 42.2,-0.41 6.74,-3.59 12.43,-8.84 17.91,-14.15 3.3,-3.2 6.59,-6.48 9.11,-10.32 4.85,-7.41 6.54,-16.41 7.59,-25.2 1.83,-15.36 1.89,-31.6 -4.85,-45.53 -2.32,-4.8 -5.41,-9.22 -9.12,-13.05 -0.98,-6.7 -2.93,-13.27 -5.76,-19.42 -2.05,-4.45 -4.54,-8.68 -6.44,-13.18 -0.78,-1.85 -1.46,-3.75 -2.32,-5.56 -0.87,-1.81 -1.93,-3.55 -3.39,-4.94 -1.48,-1.42 -3.33,-2.43 -5.28,-3.07 -1.95,-0.65 -4.01,-0.94 -6.06,-1.04 -4.11,-0.21 -8.22,0.33 -12.33,0.16 -3.27,-0.13 -6.53,-0.7 -9.8,-0.51 -1.63,0.1 -3.26,0.39 -4.78,1.01 -1.52,0.61 -2.92,1.56 -3.94,2.84 z" />
        <g
           id="body_self_shadows">
          <path
             style="opacity:0.25;fill:url(#fill_belly_shadow_left);filter:url(#blur_belly_shadow_left)"
             id="belly_shadow_left"
             clip-path="url(#clip_body)"
             d="m 68.67,115.18 c 0.87,1.31 -0.55,5.84 19.86,2.94 0,0 -3.59,0.39 -7.12,1.21 -5.49,1.84 -10.27,3.89 -13.97,6.61 -3.65,2.7 -6.33,6.21 -9.68,9.22 0,0 5.43,-9.92 6.78,-12.91 1.36,-2.99 -0.22,-2.85 0.85,-7.25 1.07,-4.4 3.69,-8.63 3.69,-8.63 0,0 -2.14,6.22 -0.41,8.81 z" />
          <path
             style="opacity:0.42000002;fill:url(#fill_belly_shadow_right);filter:url(#blur_belly_shadow_right)"
             id="belly_shadow_right"
             clip-path="url(#clip_body)"
             d="m 134.28,113.99 c -4.16,2.9 -6.6,2.56 -11.64,3.12 -5.05,0.57 -18.7,0.36 -18.7,0.36 0,0 1.97,-0.03 6.36,0.78 4.38,0.82 13.31,1.6 18.34,3.51 5.04,1.92 6.87,2.47 9.93,4.4 4.35,2.75 7.55,7.06 11.71,10.08 0,0 0.2,-4 -1.48,-6.99 -1.68,-2.99 -6.2,-7.7 -7.53,-12.1 -1.32,-4.4 -1.96,-13.04 -1.96,-13.04 0,0 -0.88,6.99 -5.03,9.88 z" />
          <path
             style="opacity:0.2;fill:url(#fill_belly_shadow_middle);filter:url(#blur_belly_shadow_middle)"
             id="belly_shadow_middle"
             clip-path="url(#clip_body)"
             d="m 95.17,107.81 c -0.16,1.25 -0.36,2.5 -0.6,3.74 -0.12,0.61 -0.26,1.22 -0.48,1.8 -0.23,0.58 -0.56,1.14 -1.02,1.55 -0.41,0.37 -0.9,0.62 -1.4,0.85 -1.94,0.88 -4.01,1.47 -6.12,1.74 0.84,0.06 1.68,0.14 2.53,0.23 0.53,0.06 1.06,0.12 1.57,0.25 0.52,0.14 1.03,0.34 1.46,0.65 0.47,0.35 0.84,0.82 1.12,1.34 0.55,1.02 0.73,2.2 0.83,3.37 0.13,1.48 0.14,2.98 0.03,4.46 0.1,-0.99 0.31,-1.98 0.62,-2.92 0.57,-1.72 1.47,-3.32 2.69,-4.65 0.49,-0.52 1.02,-1.01 1.6,-1.42 1.79,-1.26 4.07,-1.81 6.24,-1.51 -2.21,0.09 -4.44,-0.6 -6.2,-1.93 -0.9,-0.68 -1.68,-1.52 -2.22,-2.5 -0.84,-1.52 -1.08,-3.37 -0.65,-5.05 z" />
          <path
             style="opacity:0.11000001;fill:#000000;filter:url(#blur_belly_shadow_lower)"
             id="belly_shadow_lower"
             clip-path="url(#clip_body)"
             d="m 89.85,137.14 c -1.06,4.03 -1.79,8.15 -2.17,12.31 -0.55,5.87 -0.42,11.78 -0.74,17.67 -0.26,4.99 -0.85,10.04 0.02,14.97 0.41,2.35 1.15,4.64 2.2,6.78 0.16,-0.82 0.29,-1.64 0.36,-2.47 0.37,-4 -0.3,-8.01 -0.53,-12.01 -0.4,-7.02 0.57,-14.04 0.97,-21.06 0.3,-5.39 0.27,-10.8 -0.11,-16.19 z" />
        </g>
        <g
           id="body_glare">
          <path
             style="opacity:0.75;fill:#7c7c7c;filter:url(#blur_belly_glare)"
             id="belly_glare"
             clip-path="url(#clip_body)"
             d="m 160.08,131.23 c 1.03,-0.16 7.34,5.21 6.48,7.21 -0.86,1.99 -2.49,0.79 -3.65,0.8 -1.16,0.02 -4.33,1.46 -4.86,0.55 -0.54,-0.91 1.4,-3.03 2.41,-4.81 0.82,-1.43 -1.4,-3.59 -0.38,-3.75 z" />
          <path
             style="fill:#7c7c7c;filter:url(#blur_head_glare)"
             id="head_glare"
             clip-path="url(#clip_body)"
             d="m 121.52,11.12 c -2.21,1.56 -1.25,3.51 -0.3,5.46 0.95,1.96 -2.09,7.59 -2.12,7.83 -0.03,0.24 5.98,-2.85 7.62,-4.87 1.94,-2.37 6.83,3.22 6.56,2.37 0.01,-1.52 -9.55,-12.34 -11.76,-10.79 z" />
          <path
             style="fill:#838384;filter:url(#blur_neck_glare)"
             id="neck_glare"
             clip-path="url(#clip_body)"
             d="m 138.27,76.63 c -1.86,1.7 0.88,4.25 2.17,7.24 0.81,1.86 3.04,4.49 5.2,4.07 1.63,-0.32 2.63,-2.66 2.48,-4.3 -0.3,-3.18 -2.98,-3.93 -4.93,-5.02 -1.54,-0.86 -3.61,-3.18 -4.92,-1.99 z" />
        </g>
      </g>
      <g
         id="wings">
        <g
           id="wing_left">
          <path
             style="fill:#020204"
             id="wing_left_base"
             d="m 63.98,100.91 c -6.1,6.92 -12.37,13.63 -15.81,21.12 -1.71,3.8 -2.51,7.93 -3.68,11.93 -1.32,4.54 -3.12,8.94 -5.14,13.22 -1.87,3.95 -3.93,7.81 -5.98,11.66 -1.5,2.81 -3.02,5.67 -3.54,8.81 -0.41,2.48 -0.18,5.04 0.46,7.47 0.63,2.43 1.64,4.75 2.79,6.98 4.88,9.55 12.21,17.77 20.89,24.07 3.94,2.85 8.15,5.32 12.58,7.35 2.4,1.09 4.92,2.07 7.56,2.11 1.32,0.03 2.65,-0.19 3.86,-0.72 1.2,-0.53 2.28,-1.38 3,-2.49 0.88,-1.36 1.18,-3.05 1,-4.66 -0.18,-1.61 -0.81,-3.15 -1.65,-4.53 -2.06,-3.38 -5.31,-5.83 -8.44,-8.25 -6.76,-5.23 -13.29,-10.76 -19.55,-16.58 -1.76,-1.65 -3.53,-3.34 -4.76,-5.42 -1.2,-2.02 -1.85,-4.32 -2.29,-6.63 -1.21,-6.33 -0.9,-12.99 1.25,-19.07 0.85,-2.38 1.96,-4.65 3.04,-6.93 1.86,-3.95 3.62,-7.98 6.07,-11.6 3.05,-4.51 7.13,-8.33 9.61,-13.17 2.1,-4.09 2.95,-8.68 3.76,-13.2 0.64,-3.54 1.85,-7 2.47,-10.54 -1.21,2.3 -5.11,6.07 -7.5,9.07 z" />
          <path
             style="opacity:0.95;fill:#7c7c7c;filter:url(#blur_wing_left_glare)"
             id="wing_left_glare"
             clip-path="url(#clip_wing_left)"
             d="m 56.96,126.1 c -2,1.84 -3.73,3.97 -5.13,6.31 -2.3,3.84 -3.65,8.16 -5.33,12.31 -1.24,3.09 -2.69,6.2 -2.86,9.53 -0.09,1.71 0.16,3.42 0.22,5.13 0.06,1.71 -0.1,3.49 -0.94,4.98 -0.7,1.25 -1.87,2.23 -3.22,2.71 1.83,0.61 3.45,1.79 4.6,3.33 0.96,1.3 1.58,2.81 2.41,4.18 0.68,1.12 1.51,2.16 2.54,2.97 1.02,0.82 2.25,1.4 3.54,1.56 1.79,0.23 3.65,-0.36 4.97,-1.58 -1.66,-15.55 -0.14,-31.42 4.44,-46.37 0.29,-0.94 0.59,-1.89 0.67,-2.87 0.07,-0.99 -0.12,-2.03 -0.72,-2.81 -0.31,-0.42 -0.74,-0.75 -1.23,-0.96 -0.48,-0.2 -1.02,-0.28 -1.54,-0.21 -0.52,0.06 -1.03,0.26 -1.45,0.57 -0.42,0.32 -0.76,0.74 -0.97,1.22 z" />
        </g>
        <g
           id="wing_right">
          <path
             style="fill:#020204"
             id="wing_right_base"
             d="m 162.76,127.12 c 5.24,4.22 8.57,10.59 9.6,17.24 0.8,5.18 0.28,10.51 -0.89,15.62 -1.17,5.12 -2.97,10.06 -4.77,15 -0.71,1.96 -1.43,3.95 -1.71,6.02 -0.29,2.08 -0.11,4.27 0.89,6.11 1.15,2.11 3.29,3.56 5.59,4.24 2.27,0.68 4.72,0.66 7.02,0.09 2.3,-0.57 6.17,-1.31 8.04,-2.77 4.75,-3.69 5.88,-10.1 7.01,-15.72 1.17,-5.87 0.6,-12.02 -0.43,-17.95 -1.41,-8.09 -3.78,-15.99 -6.79,-23.62 -2.22,-5.62 -5.06,-10.98 -8.44,-15.96 -3.32,-4.89 -8.02,-8.7 -11.5,-13.48 -1.21,-1.66 -2.66,-3.38 -3.84,-5.06 -2.56,-3.62 -1.98,-2.94 -3.57,-5.29 -1.15,-1.7 -2.97,-2.28 -4.88,-3.02 -1.92,-0.74 -4.06,-0.96 -6.04,-0.41 -2.6,0.73 -4.73,2.79 -5.86,5.24 -1.13,2.46 -1.33,5.28 -0.89,7.95 0.57,3.44 2.14,6.64 3.92,9.64 2,3.39 4.32,6.66 7.35,9.18 3.16,2.63 6.98,4.37 10.19,6.95 z" />
          <path
             style="fill:#838384;filter:url(#blur_wing_right_glare)"
             id="wing_right_glare"
             clip-path="url(#clip_wing_right)"
             d="m 150.42,118.99 c 0.42,0.4 0.86,0.81 1.31,1.19 3.22,2.63 4.93,5.58 8.2,8.16 5.34,4.22 10.75,11.5 11.8,18.15 0.82,5.19 -0.26,8.01 -1.58,14.12 -1.32,6.12 -5.06,14.78 -7.09,20.68 -0.8,2.35 1.64,1.38 1.32,3.86 -0.16,1.22 -0.18,2.45 -0.03,3.67 0.02,-0.23 0.03,-0.48 0.06,-0.71 0.39,-3.38 1.42,-6.63 2.55,-9.82 2.17,-6.13 4.66,-12.15 6.38,-18.45 1.72,-6.29 1.53,-10.82 0.63,-16.23 -1.13,-6.81 -5.09,-13.09 -10.69,-17.24 -3.97,-2.93 -8.64,-4.81 -12.86,-7.38 z" />
        </g>
      </g>
      <g
         id="feet">
        <g
           id="foot_left">
          <path
             style="fill:url(#linearGradient5320)"
             id="foot_left_base"
             d="m 34.98,175.33 c 1.38,-0.57 2.93,-0.68 4.39,-0.41 1.47,0.27 2.86,0.91 4.09,1.74 2.47,1.68 4.3,4.12 6.05,6.54 4.03,5.54 7.9,11.2 11.42,17.08 2.85,4.78 5.46,9.71 8.76,14.18 2.15,2.93 4.57,5.64 6.73,8.55 2.16,2.92 4.07,6.08 5.03,9.58 1.25,4.55 0.76,9.56 -1.4,13.75 -1.52,2.95 -3.86,5.48 -6.7,7.19 -2.84,1.71 -5.83,2.47 -9.15,2.47 -5.27,0 -10.42,-2.83 -15.32,-4.78 C 38.9,247.24 28.06,246 17.77,242.9 14.61,241.95 11.5,240.82 8.32,239.95 6.9,239.56 5.47,239.22 4.13,238.61 2.79,238.01 1.54,237.1 0.8,235.84 0.23,234.86 0,233.71 0,232.58 c 0,-1.14 0.28,-2.26 0.67,-3.32 0.77,-2.13 2.02,-4.06 2.86,-6.17 1.37,-3.44 1.62,-7.23 1.43,-10.93 -0.18,-3.69 -0.78,-7.36 -1.03,-11.05 -0.12,-1.65 -0.16,-3.32 0.16,-4.95 0.31,-1.62 1.01,-3.21 2.2,-4.35 1.1,-1.06 2.55,-1.69 4.05,-2 1.49,-0.31 3.03,-0.32 4.55,-0.29 1.52,0.03 3.05,0.12 4.57,-0.01 1.52,-0.12 3.05,-0.46 4.37,-1.22 1.26,-0.72 2.29,-1.79 3.14,-2.96 0.85,-1.17 1.54,-2.45 2.25,-3.72 0.7,-1.26 1.43,-2.52 2.36,-3.64 0.92,-1.12 2.06,-2.09 3.4,-2.64 z" />
          <path
             style="fill:#d99a03;filter:url(#blur_foot_left_layer_1)"
             id="foot_left_layer_1"
             clip-path="url(#clip_foot_left)"
             d="m 37.16,177.7 c 1.25,-0.5 2.67,-0.56 3.98,-0.26 1.32,0.3 2.55,0.94 3.61,1.77 2.14,1.65 3.62,3.97 5.05,6.26 3.42,5.54 6.76,11.15 9.92,16.86 2.4,4.31 4.68,8.7 7.62,12.65 1.95,2.62 4.18,5.03 6.17,7.62 1.99,2.59 3.76,5.41 4.64,8.56 1.14,4.05 0.68,8.54 -1.28,12.26 -1.42,2.68 -3.58,4.96 -6.2,6.48 -2.61,1.52 -5.67,2.28 -8.69,2.14 -4.82,-0.22 -9.23,-2.63 -13.77,-4.26 -8.71,-3.16 -18.14,-3.59 -27.08,-6.05 -3.2,-0.87 -6.32,-2.03 -9.53,-2.84 -1.43,-0.36 -2.88,-0.66 -4.23,-1.23 -1.35,-0.57 -2.62,-1.45 -3.36,-2.72 -0.54,-0.95 -0.76,-2.06 -0.73,-3.15 0.04,-1.09 0.31,-2.17 0.7,-3.19 0.78,-2.04 2,-3.88 2.78,-5.92 1.19,-3.08 1.34,-6.47 1.12,-9.76 -0.22,-3.29 -0.8,-6.56 -1,-9.85 -0.08,-1.48 -0.1,-2.97 0.2,-4.41 0.3,-1.45 0.93,-2.85 1.98,-3.89 1.14,-1.13 2.7,-1.74 4.29,-1.99 1.58,-0.24 3.19,-0.13 4.78,0.01 1.6,0.14 3.2,0.32 4.8,0.23 1.6,-0.1 3.22,-0.49 4.54,-1.39 1.2,-0.81 2.1,-2 2.79,-3.27 0.69,-1.27 1.18,-2.64 1.71,-3.98 0.52,-1.35 1.09,-2.69 1.91,-3.89 0.82,-1.19 1.93,-2.24 3.28,-2.79 z" />
          <path
             style="fill:#f5bd0c;filter:url(#blur_foot_left_layer_2)"
             id="foot_left_layer_2"
             clip-path="url(#clip_foot_left)"
             d="m 35.99,174.57 c 1.22,-0.6 2.65,-0.72 3.98,-0.45 1.33,0.27 2.57,0.92 3.62,1.77 2.09,1.7 3.43,4.13 4.67,6.51 2.84,5.46 5.5,11.04 8.9,16.19 2.48,3.73 5.33,7.2 7.83,10.92 3.39,5.03 6.15,10.57 7.29,16.5 0.76,4 0.74,8.31 -1.18,11.9 -1.27,2.37 -3.32,4.31 -5.75,5.52 -2.42,1.22 -5.21,1.71 -7.92,1.47 -4.27,-0.37 -8.14,-2.47 -12.16,-3.94 -7.13,-2.59 -14.84,-3.22 -22.18,-5.18 -3.09,-0.82 -6.13,-1.89 -9.26,-2.54 -1.39,-0.29 -2.8,-0.5 -4.12,-1 -1.32,-0.5 -2.57,-1.33 -3.25,-2.55 -0.47,-0.86 -0.63,-1.86 -0.56,-2.84 0.07,-0.97 0.36,-1.92 0.74,-2.83 0.77,-1.8 1.9,-3.46 2.49,-5.32 0.88,-2.75 0.52,-5.72 -0.14,-8.53 -0.65,-2.8 -1.6,-5.55 -1.89,-8.41 -0.13,-1.27 -0.13,-2.57 0.17,-3.82 0.29,-1.25 0.88,-2.45 1.81,-3.34 1.2,-1.15 2.88,-1.73 4.56,-1.89 1.67,-0.16 3.35,0.06 5.01,0.3 1.66,0.24 3.34,0.5 5.01,0.42 1.68,-0.07 3.39,-0.51 4.7,-1.54 1.3,-1.02 2.12,-2.53 2.59,-4.09 0.47,-1.57 0.62,-3.2 0.81,-4.82 0.19,-1.62 0.43,-3.26 1.06,-4.77 0.63,-1.51 1.69,-2.9 3.17,-3.64 z" />
          <path
             style="fill:url(#fill_foot_left_glare);filter:url(#blur_foot_left_glare)"
             id="foot_left_glare"
             clip-path="url(#clip_foot_left)"
             d="m 51.2,188.21 c 2.25,4.06 3.62,8.72 5.85,12.82 2.05,3.77 4.38,7.65 6.46,11.12 0.93,1.55 3.09,3.93 5.27,7.62 1.98,3.34 3.98,8.01 5.1,9.58 -0.64,-1.84 -1.96,-6.77 -3.54,-10.28 -1.47,-3.28 -3.19,-5.15 -4.24,-6.92 -2.08,-3.47 -4.33,-6.6 -6.47,-9.91 -2.95,-4.57 -5.2,-9.68 -8.43,-14.03 z" />
        </g>
        <g
           id="foot_right">
          <path
             style="opacity:0.2;fill:url(#fill_foot_right_shadow);filter:url(#blur_foot_right_shadow)"
             id="foot_right_shadow"
             clip-path="url(#clip_body)"
             d="m 198.7,215.61 c -0.4,1.33 -1.02,2.62 -1.81,3.8 -1.75,2.59 -4.3,4.55 -6.84,6.35 -4.33,3.07 -8.85,5.89 -12.89,9.38 -2.7,2.34 -5.17,4.97 -7.45,7.73 -1.95,2.36 -3.79,4.84 -6.02,6.94 -2.25,2.12 -4.89,3.84 -7.74,4.77 -3.47,1.13 -7.13,1.08 -10.47,0.22 -2.34,-0.6 -4.63,-1.64 -6.08,-3.53 -1.45,-1.89 -1.92,-4.44 -2.09,-6.94 -0.3,-4.42 0.23,-8.93 0.71,-13.42 0.4,-3.73 0.77,-7.46 0.92,-11.18 0.27,-6.77 -0.18,-13.47 -1.09,-20.05 -0.16,-1.11 -0.32,-2.22 -0.23,-3.35 0.09,-1.14 0.47,-2.32 1.27,-3.2 0.74,-0.81 1.77,-1.29 2.79,-1.52 1.02,-0.24 2.06,-0.25 3.09,-0.28 2.43,-0.06 4.86,-0.21 7.25,0.01 1.51,0.13 2.99,0.41 4.49,0.55 2.51,0.24 5.12,0.12 7.64,-0.62 2.71,-0.8 5.29,-2.29 8.05,-2.7 1.13,-0.17 2.26,-0.15 3.36,0.01 1.12,0.15 2.24,0.46 3.1,1.15 0.66,0.52 1.14,1.23 1.51,1.99 0.56,1.14 0.9,2.39 1.1,3.68 0.17,1.14 0.24,2.31 0.53,3.41 0.48,1.81 1.58,3.35 2.89,4.6 1.32,1.25 2.85,2.24 4.39,3.22 1.53,0.97 3.07,1.93 4.7,2.73 0.77,0.38 1.56,0.72 2.29,1.15 0.74,0.44 1.42,0.97 1.91,1.67 0.66,0.95 0.92,2.2 0.72,3.43 z" />
          <path
             style="fill:url(#linearGradient5322)"
             id="foot_right_base"
             d="m 213.47,222.92 c -2.26,2.68 -5.4,4.45 -8.53,6.05 -5.33,2.71 -10.86,5.1 -15.87,8.37 -3.36,2.19 -6.46,4.76 -9.36,7.53 -2.48,2.37 -4.83,4.9 -7.61,6.91 -2.81,2.03 -6.05,3.5 -9.48,4.01 -0.95,0.14 -1.9,0.21 -2.86,0.21 -3.24,0 -6.48,-0.78 -9.46,-2.08 -2.7,-1.17 -5.3,-2.86 -6.86,-5.36 -1.56,-2.52 -1.92,-5.59 -1.92,-8.56 -0.01,-5.23 0.96,-10.41 1.87,-15.57 0.76,-4.29 1.48,-8.58 1.95,-12.91 0.85,-7.86 0.84,-15.81 0.28,-23.71 -0.1,-1.32 -0.21,-2.65 -0.01,-3.96 0.2,-1.31 0.74,-2.62 1.74,-3.48 0.93,-0.8 2.17,-1.16 3.4,-1.22 1.22,-0.07 2.44,0.12 3.65,0.3 2.85,0.42 5.73,0.74 8.52,1.48 1.76,0.46 3.48,1.08 5.23,1.56 2.94,0.79 6.01,1.17 9.02,0.82 3.25,-0.38 6.41,-1.6 9.68,-1.52 1.34,0.03 2.67,0.28 3.95,0.69 1.3,0.41 2.59,1 3.55,1.98 0.73,0.74 1.24,1.67 1.62,2.64 0.57,1.44 0.88,2.98 1.01,4.52 0.11,1.37 0.09,2.76 0.35,4.11 0.43,2.21 1.6,4.24 3.04,5.97 1.45,1.74 3.18,3.21 4.91,4.66 1.73,1.45 3.46,2.89 5.32,4.16 0.87,0.6 1.77,1.16 2.6,1.81 0.83,0.66 1.59,1.42 2.11,2.34 0.45,0.81 0.69,1.72 0.69,2.65 0,0.52 -0.07,1.04 -0.23,1.56 -0.45,1.43 -1.28,2.82 -2.3,4.04 z" />
          <path
             style="fill:#cd8907;filter:url(#blur_foot_right_layer_1)"
             id="foot_right_layer_1"
             clip-path="url(#clip_foot_right)"
             d="m 213.21,216.12 c -0.53,1.33 -1.28,2.58 -2.22,3.67 -2.07,2.42 -4.93,4.01 -7.78,5.44 -4.88,2.44 -9.92,4.58 -14.5,7.52 -3.06,1.97 -5.9,4.28 -8.55,6.78 -2.26,2.13 -4.41,4.41 -6.95,6.21 -2.57,1.83 -5.53,3.14 -8.65,3.6 -3.8,0.56 -7.72,-0.16 -11.25,-1.67 -2.46,-1.06 -4.84,-2.56 -6.27,-4.83 -1.42,-2.26 -1.75,-5.02 -1.75,-7.69 -0.02,-4.71 0.87,-9.37 1.71,-14 0.7,-3.85 1.36,-7.71 1.78,-11.6 0.76,-7.08 0.73,-14.22 0.25,-21.32 -0.08,-1.19 -0.17,-2.39 0.01,-3.57 0.18,-1.18 0.67,-2.35 1.57,-3.13 0.85,-0.73 1.99,-1.05 3.11,-1.1 1.11,-0.06 2.22,0.12 3.33,0.28 2.61,0.38 5.23,0.67 7.78,1.33 1.61,0.42 3.18,0.98 4.78,1.4 2.68,0.72 5.49,1.06 8.24,0.74 2.97,-0.34 5.85,-1.44 8.83,-1.37 1.23,0.03 2.44,0.26 3.61,0.62 1.19,0.37 2.37,0.9 3.25,1.78 0.66,0.67 1.11,1.51 1.48,2.38 0.53,1.29 0.89,2.67 0.91,4.07 0.03,1.46 -0.28,2.92 -0.09,4.37 0.16,1.17 0.66,2.28 1.3,3.28 0.63,1 1.4,1.91 2.17,2.81 1.48,1.75 2.96,3.53 4.82,4.87 2.11,1.53 4.62,2.43 6.8,3.85 0.65,0.43 1.28,0.91 1.74,1.54 0.78,1.06 0.98,2.5 0.54,3.74 z" />
          <path
             style="fill:#f5c021;filter:url(#blur_foot_right_layer_2)"
             id="foot_right_layer_2"
             clip-path="url(#clip_foot_right)"
             d="m 212.91,214.61 c -0.6,1.35 -1.37,2.6 -2.28,3.71 -2.12,2.58 -4.99,4.35 -8,5.49 -4.97,1.88 -10.39,2.13 -15.26,4.27 -2.97,1.3 -5.65,3.26 -8.36,5.12 -2.18,1.49 -4.42,2.94 -6.82,3.98 -2.72,1.19 -5.6,1.85 -8.5,2.32 -1.84,0.29 -3.71,0.51 -5.57,0.41 -1.86,-0.1 -3.72,-0.54 -5.37,-1.49 -1.24,-0.72 -2.36,-1.75 -3.03,-3.1 -0.73,-1.49 -0.86,-3.24 -0.85,-4.94 0.05,-4.5 1.02,-8.96 0.99,-13.47 -0.03,-3.93 -0.81,-7.8 -1.03,-11.72 -0.43,-7.54 1.19,-15.2 -0.24,-22.59 -0.22,-1.19 -0.53,-2.37 -0.52,-3.58 0.01,-0.6 0.1,-1.21 0.31,-1.77 0.22,-0.55 0.56,-1.06 1.01,-1.42 0.39,-0.29 0.84,-0.47 1.31,-0.56 0.46,-0.08 0.94,-0.06 1.41,0.01 0.93,0.15 1.82,0.51 2.73,0.78 2.6,0.78 5.35,0.76 8,1.35 1.66,0.36 3.26,0.97 4.91,1.41 2.75,0.76 5.63,1.08 8.46,0.75 3.04,-0.36 6.01,-1.46 9.07,-1.38 1.26,0.03 2.5,0.26 3.71,0.62 1.21,0.36 2.42,0.87 3.34,1.8 0.65,0.67 1.13,1.52 1.51,2.4 0.57,1.29 0.96,2.69 0.95,4.11 -0.01,0.74 -0.12,1.47 -0.19,2.21 -0.06,0.74 -0.08,1.49 0.09,2.2 0.18,0.72 0.55,1.37 0.97,1.96 0.42,0.59 0.9,1.12 1.34,1.7 1.22,1.61 2.1,3.49 3.05,5.3 0.95,1.81 2.02,3.6 3.53,4.91 2.05,1.77 4.7,2.48 6.99,3.89 0.67,0.41 1.31,0.89 1.78,1.55 0.38,0.52 0.63,1.15 0.73,1.81 0.09,0.65 0.03,1.34 -0.17,1.96 z" />
          <path
             style="fill:url(#fill_foot_right_glare);filter:url(#blur_foot_right_glare)"
             id="foot_right_glare"
             clip-path="url(#clip_foot_right)"
             d="m 148.08,181.58 c 2.82,-0.76 5.22,1.38 7.27,2.99 1.32,1.13 3.24,0.85 4.86,0.9 2.69,-0.09 5.36,0.45 8.05,0.12 5.3,-0.45 10.49,-1.75 15.81,-1.97 2.54,-0.16 5.4,-0.31 7.59,1.17 0.89,0.62 2.2,3.23 3.07,2.25 -0.36,-2.74 -2.39,-5.39 -5.11,-6.12 -2.14,-0.34 -4.3,0.25 -6.46,0.06 -6.39,-0.15 -12.75,-1.34 -19.16,-1 -4.46,0.04 -8.91,-0.17 -13.37,-0.34 -1.75,-0.36 -2.37,1.19 -3.32,1.79 0.25,0.19 0.34,0.25 0.77,0.15 z" />
        </g>
      </g>
      <g
         id="wing_tip_right">
        <g
           id="wing_tip_right_shadow">
          <path
             style="opacity:0.35;fill:url(#fill_wing_tip_right_shadow_lower);filter:url(#blur_wing_tip_right_shadow_lower)"
             id="wing_tip_right_shadow_lower"
             clip-path="url(#clip_foot_right)"
             d="m 185.49,187.61 c -0.48,-0.95 -1.36,-1.66 -2.35,-2.07 -0.98,-0.41 -2.06,-0.55 -3.13,-0.54 -2.13,0.02 -4.25,0.57 -6.38,0.39 -1.79,-0.16 -3.49,-0.83 -5.24,-1.26 -1.81,-0.44 -3.73,-0.61 -5.52,-0.12 -1.92,0.52 -3.61,1.81 -4.67,3.49 -0.94,1.48 -1.38,3.23 -1.52,4.98 -0.14,1.75 0.01,3.5 0.19,5.25 0.12,1.26 0.27,2.52 0.57,3.75 0.31,1.23 0.78,2.43 1.52,3.46 1.07,1.48 2.66,2.54 4.37,3.17 2.8,1.03 5.98,0.98 8.73,-0.15 4.88,-2.12 9.01,-5.92 11.52,-10.6 0.91,-1.68 1.61,-3.47 2.06,-5.31 0.18,-0.74 0.32,-1.49 0.32,-2.25 0.01,-0.75 -0.12,-1.52 -0.47,-2.19 z" />
          <path
             style="opacity:0.35;fill:url(#fill_wing_tip_right_shadow_upper);filter:url(#blur_wing_tip_right_shadow_upper)"
             id="wing_tip_right_shadow_upper"
             clip-path="url(#clip_foot_right)"
             d="m 185.49,184.89 c -0.48,-0.69 -1.36,-1.2 -2.35,-1.5 -0.98,-0.3 -2.06,-0.39 -3.13,-0.39 -2.13,0.02 -4.25,0.42 -6.38,0.28 -1.79,-0.11 -3.49,-0.6 -5.24,-0.9 -1.81,-0.32 -3.73,-0.45 -5.52,-0.09 -1.92,0.37 -3.61,1.3 -4.67,2.52 -0.94,1.07 -1.38,2.34 -1.52,3.6 -0.14,1.26 0.01,2.53 0.19,3.79 0.12,0.91 0.27,1.83 0.57,2.72 0.31,0.89 0.78,1.76 1.52,2.5 1.07,1.07 2.66,1.83 4.37,2.29 2.8,0.75 5.98,0.71 8.73,-0.11 4.88,-1.53 9.01,-4.28 11.52,-7.66 0.91,-1.22 1.61,-2.51 2.06,-3.84 0.18,-0.54 0.32,-1.08 0.32,-1.62 0.01,-0.55 -0.12,-1.11 -0.47,-1.59 z" />
        </g>
        <path
           style="fill:#020204"
           id="wing_tip_right_base"
           d="m 189.55,178.72 c -0.35,-0.95 -0.97,-1.79 -1.72,-2.47 -0.75,-0.68 -1.64,-1.2 -2.57,-1.6 -1.86,-0.79 -3.89,-1.09 -5.89,-1.46 -1.87,-0.35 -3.74,-0.78 -5.62,-1.1 -1.96,-0.33 -3.98,-0.55 -5.92,-0.11 -1.69,0.38 -3.26,1.26 -4.54,2.43 -1.28,1.17 -2.28,2.63 -3,4.21 -1.27,2.79 -1.67,5.92 -1.43,8.97 0.18,2.27 0.76,4.61 2.25,6.32 1.21,1.39 2.92,2.26 4.68,2.78 3.04,0.9 6.35,0.85 9.36,-0.13 4.97,-1.67 9.37,-4.98 12.35,-9.29 0.98,-1.43 1.82,-2.98 2.2,-4.66 0.29,-1.28 0.3,-2.66 -0.15,-3.89 z" />
        <g
           id="wing_tip_right_glare">
          <defs
             id="defs4859">
            <path
               id="path5132"
               d="m 168.89,171.07 c -0.47,0.03 -0.93,0.08 -1.4,0.17 -2.99,0.53 -5.73,2.42 -7.27,5.03 -1.09,1.85 -1.58,4.03 -1.43,6.17 0.07,-1.5 0.46,-2.97 1.19,-4.28 1.23,-2.23 3.47,-3.91 5.98,-4.37 1.54,-0.28 3.13,-0.11 4.68,0.08 1.5,0.19 3,0.39 4.47,0.7 2.28,0.5 4.53,1.26 6.44,2.59 0.44,0.31 0.86,0.66 1.21,1.08 0.35,0.41 0.62,0.89 0.73,1.42 0.15,0.78 -0.07,1.6 -0.46,2.29 -0.39,0.7 -0.92,1.3 -1.48,1.86 -0.46,0.46 -0.94,0.89 -1.43,1.32 2.21,-0.43 4.44,-1.03 6.28,-2.31 0.77,-0.55 1.48,-1.2 1.94,-2.02 0.46,-0.83 0.65,-1.83 0.43,-2.75 -0.16,-0.62 -0.5,-1.19 -0.92,-1.67 -0.42,-0.48 -0.93,-0.87 -1.45,-1.24 -2.31,-1.62 -5.01,-2.65 -7.81,-2.99 -1.8,-0.33 -3.61,-0.61 -5.42,-0.83 -1.41,-0.18 -2.86,-0.33 -4.28,-0.25 z" />
          </defs>
          <use
             height="100%"
             width="100%"
             y="0"
             x="0"
             style="fill:url(#fill_wing_tip_right_glare_1);filter:url(#blur_wing_tip_right_glare)"
             id="wing_tip_right_glare_1"
             href="#path_wing_tip_right_glare"
             xlink:href="#path_wing_tip_right_glare"
             clip-path="url(#clip_wing_tip_right)" />
          <use
             height="100%"
             width="100%"
             y="0"
             x="0"
             style="fill:url(#fill_wing_tip_right_glare_2);filter:url(#blur_wing_tip_right_glare)"
             id="wing_tip_right_glare_2"
             href="#path_wing_tip_right_glare"
             xlink:href="#path_wing_tip_right_glare"
             clip-path="url(#clip_wing_tip_right)" />
        </g>
      </g>
      <g
         id="face">
        <g
           id="eyes">
          <g
             id="eye_left">
            <path
               style="fill:url(#radialGradient5324)"
               id="eyeball_left"
               d="m 84.45,38.28 c -1.53,0.08 -3,0.79 -4.12,1.84 -1.13,1.05 -1.92,2.43 -2.41,3.88 -0.97,2.92 -0.75,6.08 -0.53,9.15 0.2,2.77 0.41,5.6 1.45,8.18 0.52,1.3 1.25,2.51 2.22,3.51 0.97,0.99 2.2,1.76 3.55,2.09 1.26,0.32 2.62,0.26 3.86,-0.13 1.25,-0.4 2.38,-1.11 3.32,-2.02 1.36,-1.33 2.27,-3.07 2.8,-4.9 0.53,-1.83 0.68,-3.75 0.65,-5.66 -0.04,-2.38 -0.35,-4.77 -1.09,-7.03 -0.75,-2.26 -1.94,-4.4 -3.6,-6.11 -0.8,-0.83 -1.72,-1.55 -2.75,-2.06 -1.04,-0.51 -2.2,-0.8 -3.35,-0.74 z" />
            <g
               id="pupil_left">
              <path
                 style="fill:#020204"
                 id="pupil_left_base"
                 d="m 80.75,50.99 c -0.32,1.94 -0.33,3.97 0.33,5.81 0.44,1.22 1.17,2.33 2.05,3.28 0.57,0.62 1.23,1.18 1.99,1.55 0.77,0.37 1.65,0.52 2.48,0.32 0.76,-0.19 1.42,-0.68 1.91,-1.29 0.49,-0.61 0.82,-1.34 1.05,-2.09 0.69,-2.21 0.58,-4.62 -0.11,-6.83 -0.49,-1.61 -1.32,-3.16 -2.6,-4.24 -0.62,-0.52 -1.34,-0.93 -2.12,-1.11 -0.78,-0.19 -1.63,-0.14 -2.36,0.19 -0.81,0.37 -1.44,1.07 -1.85,1.86 -0.41,0.79 -0.62,1.67 -0.77,2.55 z" />
              <path
                 style="fill:url(#fill_pupil_left_glare);filter:url(#blur_pupil_left_glare)"
                 id="pupil_left_glare"
                 clip-path="url(#clip_pupil_left)"
                 d="m 84.84,49.59 c 0.21,0.55 0.91,0.75 1.3,1.19 0.37,0.42 0.76,0.87 0.97,1.4 0.39,1.01 -0.39,2.51 0.43,3.23 0.25,0.22 0.77,0.23 1.02,0 0.99,-0.9 0.77,-2.71 0.38,-3.99 -0.36,-1.15 -1.23,-2.25 -2.31,-2.8 -0.5,-0.26 -1.25,-0.47 -1.68,-0.11 -0.27,0.24 -0.24,0.74 -0.11,1.08 z" />
            </g>
            <path
               style="fill:url(#fill_eyelid_left)"
               id="eyelid_left"
               clip-path="url(#clip_eye_left)"
               d="m 81.14,44.46 c 2.32,-1.38 5.13,-1.7 7.82,-1.45 2.68,0.26 5.27,1.04 7.87,1.75 1.91,0.52 3.84,1 5.63,1.84 1.78,0.84 3.44,2.08 4.43,3.8 0.16,0.27 0.29,0.56 0.46,0.83 0.17,0.27 0.37,0.52 0.62,0.71 0.25,0.19 0.57,0.32 0.88,0.3 0.16,-0.01 0.32,-0.05 0.45,-0.13 0.14,-0.08 0.26,-0.2 0.33,-0.34 0.08,-0.16 0.11,-0.35 0.1,-0.53 -0.01,-0.18 -0.05,-0.36 -0.1,-0.54 -0.65,-2.37 -2.19,-4.38 -3.35,-6.55 -0.7,-1.3 -1.28,-2.66 -1.98,-3.96 -2.43,-4.45 -6.42,-7.94 -10.95,-10.21 -4.53,-2.27 -9.59,-3.36 -14.65,-3.65 -5.86,-0.35 -11.73,0.35 -17.51,1.37 -2.51,0.44 -5.06,0.96 -7.27,2.21 -1.11,0.62 -2.13,1.42 -2.92,2.42 -0.8,0.99 -1.36,2.18 -1.55,3.44 -0.17,1.22 0.01,2.47 0.44,3.62 0.42,1.15 1.08,2.2 1.86,3.15 1.54,1.91 3.53,3.39 5.36,5.03 1.83,1.63 3.52,3.44 5.57,4.79 1.02,0.68 2.13,1.24 3.31,1.57 1.18,0.33 2.44,0.42 3.64,0.17 1.24,-0.25 2.4,-0.86 3.41,-1.64 1.01,-0.77 1.88,-1.7 2.71,-2.66 1.66,-1.93 3.21,-4.04 5.39,-5.34 z" />
            <path
               style="fill:url(#fill_eyebrow_left);filter:url(#blur_eyebrow_left)"
               id="eyebrow_left"
               d="m 90.77,36.57 c 2.16,2.02 3.76,4.52 4.85,7.16 -0.48,-2.91 -1.23,-5.26 -3.13,-7.16 -1.16,-1.09 -2.49,-2.05 -3.98,-2.72 -1.32,-0.59 -2.77,-0.96 -3.61,-0.97 -0.83,-0.02 -1.03,0 -1.2,0.01 -0.18,0.01 -0.31,0.01 0.23,0.08 0.54,0.06 1.75,0.39 3.05,0.97 1.3,0.58 2.62,1.54 3.79,2.63 z" />
          </g>
          <g
             id="eye_right">
            <path
               style="fill:url(#radialGradient5326)"
               id="eyeball_right"
               d="m 111.61,38.28 c -2.39,1.65 -4.4,3.94 -5.38,6.68 -1.24,3.45 -0.77,7.31 0.43,10.77 1.22,3.55 3.27,6.93 6.36,9.06 1.54,1.07 3.33,1.8 5.19,2.02 1.87,0.22 3.8,-0.09 5.47,-0.95 2.02,-1.06 3.57,-2.91 4.53,-4.98 0.96,-2.08 1.37,-4.37 1.5,-6.66 0.16,-2.9 -0.12,-5.86 -1.08,-8.61 -1.04,-2.99 -2.92,-5.75 -5.58,-7.47 -1.32,-0.86 -2.83,-1.45 -4.4,-1.67 -1.57,-0.22 -3.19,-0.05 -4.67,0.52 -0.84,0.33 -1.62,0.78 -2.37,1.29 z" />
            <g
               id="pupil_right">
              <path
                 style="fill:#020204"
                 id="pupil_right_base"
                 d="m 117.14,45.52 c -0.9,0.06 -1.78,0.37 -2.55,0.85 -0.76,0.48 -1.41,1.13 -1.92,1.88 -1.03,1.49 -1.48,3.31 -1.55,5.12 -0.05,1.35 0.1,2.72 0.55,4 0.45,1.28 1.2,2.47 2.25,3.33 1.07,0.89 2.42,1.42 3.81,1.49 1.39,0.06 2.79,-0.34 3.93,-1.13 0.91,-0.63 1.64,-1.5 2.16,-2.48 0.52,-0.97 0.84,-2.05 0.98,-3.15 0.25,-1.93 -0.03,-3.95 -0.93,-5.69 -0.89,-1.74 -2.41,-3.17 -4.24,-3.84 -0.8,-0.29 -1.65,-0.44 -2.49,-0.38 z" />
              <path
                 style="fill:url(#fill_pupil_right_glare);filter:url(#blur_pupil_right_glare)"
                 id="pupil_right_glare"
                 clip-path="url(#clip_pupil_right)"
                 d="m 122.71,53.36 c 1,-1 -0.71,-3.65 -2.05,-4.74 -0.97,-0.78 -3.78,-1.61 -3.66,-0.75 0.12,0.85 1.39,1.95 2.23,2.79 1.05,1.03 3,3.18 3.48,2.7 z" />
            </g>
            <path
               style="fill:url(#fill_eyelid_right)"
               id="eyelid_right"
               clip-path="url(#clip_eye_right)"
               d="m 102.56,47.01 c 2.06,-1.71 4.45,-3.01 7,-3.8 5.25,-1.62 11.2,-0.98 15.84,1.97 1.6,1.01 3.03,2.27 4.52,3.45 1.48,1.17 3.06,2.27 4.85,2.9 0.97,0.34 2,0.54 3.02,0.43 0.92,-0.09 1.81,-0.44 2.57,-0.96 0.76,-0.53 1.4,-1.23 1.88,-2.02 0.96,-1.58 1.27,-3.5 1.1,-5.34 -0.33,-3.69 -2.41,-6.94 -4.15,-10.21 -0.55,-1.02 -1.07,-2.06 -1.73,-3.01 -2.01,-2.93 -5.23,-4.86 -8.6,-5.99 -3.37,-1.13 -6.93,-1.54 -10.46,-1.98 -1.58,-0.2 -3.17,-0.41 -4.74,-0.22 -1.81,0.22 -3.51,0.95 -5.28,1.4 -0.84,0.22 -1.69,0.37 -2.52,0.61 -0.83,0.24 -1.65,0.57 -2.33,1.11 -0.98,0.79 -1.6,1.98 -1.87,3.21 -0.27,1.24 -0.21,2.52 -0.01,3.77 0.39,2.5 1.33,4.93 1.24,7.46 -0.06,1.73 -0.61,3.44 -0.54,5.17 0.02,0.51 0.12,1.55 0.21,2.05 z" />
            <path
               style="fill:url(#fill_eyebrow_right);filter:url(#blur_eyebrow_right)"
               id="eyebrow_right"
               d="m 119.93,31.18 c -0.41,0.52 -0.78,1.08 -1.07,1.7 1.85,0.4 3.61,1.16 5.19,2.21 3.06,2.03 5.38,4.99 7.01,8.29 0.38,-0.42 0.72,-0.87 1.02,-1.37 -1.64,-3.44 -4,-6.55 -7.16,-8.65 -1.52,-1 -3.21,-1.77 -4.99,-2.18 z" />
          </g>
        </g>
        <g
           id="beak">
          <g
             id="beak_shadow">
            <path
               style="fill:#000000;fill-opacity:0.25882401;filter:url(#blur_beak_shadow_lower)"
               id="beak_shadow_lower"
               clip-path="url(#clip_body)"
               d="m 81.12,89.33 c 1.47,4.26 4.42,7.89 7.92,10.72 1.16,0.95 2.39,1.82 3.76,2.43 1.36,0.62 2.87,0.97 4.36,0.84 1.46,-0.12 2.85,-0.7 4.13,-1.42 1.28,-0.72 2.46,-1.59 3.7,-2.37 2.12,-1.35 4.39,-2.44 6.6,-3.64 2.65,-1.45 5.23,-3.1 7.46,-5.14 1.03,-0.93 1.98,-1.95 3.11,-2.75 1.13,-0.81 2.49,-1.39 3.87,-1.29 1.04,0.07 2.01,0.51 3.03,0.73 0.51,0.11 1.03,0.16 1.55,0.08 0.51,-0.08 1.01,-0.29 1.37,-0.67 0.44,-0.46 0.64,-1.12 0.61,-1.76 -0.02,-0.63 -0.24,-1.25 -0.54,-1.81 -0.59,-1.13 -1.49,-2.1 -1.89,-3.31 -0.36,-1.08 -0.29,-2.24 -0.26,-3.37 0.03,-1.14 0.01,-2.32 -0.51,-3.33 -0.4,-0.76 -1.07,-1.37 -1.83,-1.77 -0.76,-0.41 -1.62,-0.62 -2.48,-0.7 -1.72,-0.16 -3.44,0.18 -5.17,0.27 -2.28,0.13 -4.58,-0.15 -6.87,-0.02 -2.85,0.18 -5.65,1 -8.51,1.01 -3.26,0.01 -6.52,-1.06 -9.74,-0.55 -1.39,0.22 -2.71,0.72 -4.03,1.16 -1.33,0.45 -2.7,0.84 -4.1,0.82 -1.59,-0.03 -3.13,-0.58 -4.72,-0.69 -0.79,-0.06 -1.6,0 -2.35,0.28 -0.74,0.28 -1.41,0.79 -1.78,1.5 -0.21,0.4 -0.31,0.86 -0.33,1.31 -0.02,0.46 0.04,0.91 0.15,1.36 0.22,0.88 0.63,1.71 0.96,2.55 1.2,3.07 1.46,6.42 2.53,9.53 z" />
            <path
               style="opacity:0.3;fill:#000000;filter:url(#blur_beak_shadow_upper)"
               id="beak_shadow_upper"
               clip-path="url(#clip_body)"
               d="m 77.03,77.2 c 2.85,1.76 5.41,3.93 7.56,6.39 1.99,2.29 3.68,4.89 6.29,6.58 1.83,1.2 4.04,1.87 6.28,2.08 2.63,0.24 5.29,-0.15 7.83,-0.84 2.35,-0.63 4.62,-1.53 6.7,-2.71 3.97,-2.25 7.28,-5.55 11.65,-7.03 0.95,-0.33 1.94,-0.56 2.86,-0.96 0.92,-0.39 1.79,-0.99 2.23,-1.83 0.42,-0.82 0.4,-1.75 0.54,-2.64 0.15,-0.96 0.48,-1.88 0.66,-2.83 0.18,-0.95 0.2,-1.96 -0.24,-2.83 -0.37,-0.72 -1.04,-1.29 -1.81,-1.66 -0.77,-0.36 -1.64,-0.52 -2.51,-0.56 -1.72,-0.08 -3.43,0.33 -5.16,0.47 -2.28,0.19 -4.58,-0.08 -6.87,-0.01 -2.85,0.08 -5.66,0.67 -8.51,0.8 -3.25,0.14 -6.49,-0.34 -9.74,-0.44 -1.41,-0.05 -2.83,-0.03 -4.21,0.2 -1.39,0.22 -2.75,0.65 -3.92,1.37 -1.14,0.69 -2.07,1.64 -3.11,2.45 -0.52,0.41 -1.08,0.78 -1.68,1.07 -0.61,0.28 -1.28,0.48 -1.96,0.51 -0.35,0.01 -0.71,-0.01 -1.05,0.04 -0.59,0.08 -1.13,0.39 -1.47,0.83 -0.34,0.45 -0.47,1.02 -0.36,1.55 z" />
          </g>
          <path
             style="fill:url(#fill_beak_base)"
             id="beak_base"
             d="m 91.66,58.53 c 1.53,-1.71 2.57,-3.8 4.03,-5.56 0.73,-0.88 1.58,-1.69 2.57,-2.26 0.99,-0.57 2.15,-0.89 3.29,-0.79 1.27,0.11 2.46,0.74 3.39,1.61 0.93,0.87 1.62,1.97 2.17,3.12 0.53,1.11 0.95,2.28 1.71,3.24 0.81,1.02 1.94,1.71 2.97,2.52 0.51,0.4 1.01,0.83 1.41,1.34 0.41,0.51 0.72,1.1 0.86,1.74 0.13,0.65 0.06,1.33 -0.16,1.95 -0.23,0.62 -0.61,1.18 -1.09,1.64 -0.95,0.92 -2.25,1.42 -3.56,1.6 -2.62,0.37 -5.27,-0.41 -7.92,-0.34 -2.67,0.08 -5.29,1.02 -7.97,0.93 -1.33,-0.05 -2.69,-0.38 -3.79,-1.14 -0.55,-0.39 -1.03,-0.88 -1.38,-1.45 -0.34,-0.57 -0.55,-1.23 -0.58,-1.9 -0.02,-0.64 0.13,-1.28 0.39,-1.86 0.25,-0.59 0.61,-1.12 1.01,-1.62 0.81,-0.99 1.8,-1.81 2.65,-2.77 z" />
          <g
             id="mandible_lower">
            <path
               style="fill:url(#radialGradient5328)"
               id="mandible_lower_base"
               d="m 77.14,75.05 c 0.06,0.26 0.15,0.5 0.28,0.73 0.23,0.38 0.57,0.69 0.93,0.95 0.36,0.27 0.75,0.49 1.13,0.72 2.01,1.27 3.65,3.04 5.11,4.92 1.95,2.52 3.68,5.31 6.29,7.14 1.84,1.3 4.04,2.03 6.28,2.26 2.63,0.26 5.29,-0.16 7.83,-0.91 2.35,-0.69 4.62,-1.66 6.7,-2.95 3.97,-2.44 7.28,-6.02 11.65,-7.63 0.95,-0.35 1.94,-0.6 2.86,-1.03 0.92,-0.44 1.79,-1.08 2.23,-2 0.42,-0.88 0.4,-1.9 0.54,-2.87 0.15,-1.03 0.48,-2.03 0.66,-3.06 0.18,-1.03 0.2,-2.13 -0.24,-3.08 -0.37,-0.78 -1.04,-1.4 -1.81,-1.79 -0.77,-0.4 -1.64,-0.58 -2.51,-0.62 -1.72,-0.08 -3.43,0.36 -5.16,0.52 -2.28,0.21 -4.58,-0.09 -6.87,-0.02 -2.85,0.09 -5.66,0.73 -8.51,0.87 -3.25,0.15 -6.49,-0.35 -9.74,-0.48 -1.41,-0.06 -2.83,-0.04 -4.22,0.2 -1.39,0.23 -2.75,0.71 -3.91,1.51 -1.13,0.78 -2.03,1.84 -3.07,2.74 -0.52,0.45 -1.08,0.86 -1.7,1.16 -0.61,0.3 -1.29,0.49 -1.98,0.47 -0.35,-0.01 -0.72,-0.06 -1.05,0.04 -0.21,0.07 -0.4,0.2 -0.56,0.35 -0.16,0.16 -0.29,0.34 -0.41,0.52 -0.29,0.42 -0.54,0.87 -0.75,1.34 z" />
            <path
               style="fill:#d9b30d;filter:url(#blur_mandible_lower_glare)"
               id="mandible_lower_glare"
               clip-path="url(#clip_mandible_lower)"
               d="m 89.9,78.56 c -0.33,1.37 -0.13,2.87 0.56,4.11 0.68,1.24 1.84,2.2 3.19,2.65 1.7,0.57 3.62,0.29 5.21,-0.54 0.93,-0.48 1.77,-1.16 2.3,-2.06 0.27,-0.44 0.46,-0.94 0.53,-1.46 0.06,-0.51 0.02,-1.05 -0.16,-1.54 -0.2,-0.53 -0.56,-1 -0.99,-1.37 -0.44,-0.37 -0.95,-0.64 -1.5,-0.82 -1.08,-0.36 -2.77,-0.66 -3.91,-0.68 -2.02,-0.04 -4.9,0.34 -5.23,1.71 z" />
          </g>
          <g
             id="mandible_upper">
            <path
               style="fill:#604405;filter:url(#blur_mandible_upper_shadow)"
               id="mandible_upper_shadow"
               clip-path="url(#clip_mandible_lower)"
               d="m 84.31,67.86 c -1.16,0.68 -2.27,1.43 -3.36,2.2 -0.57,0.41 -1.15,0.84 -1.45,1.47 -0.21,0.44 -0.26,0.94 -0.27,1.43 0,0.5 0.03,0.99 -0.04,1.48 -0.04,0.33 -0.13,0.66 -0.14,0.99 -0.01,0.17 0,0.34 0.04,0.5 0.05,0.16 0.13,0.32 0.24,0.44 0.15,0.16 0.35,0.26 0.56,0.32 0.21,0.06 0.42,0.09 0.64,0.14 1.01,0.24 1.89,0.86 2.66,1.56 0.77,0.69 1.47,1.48 2.28,2.13 2.18,1.78 5.07,2.52 7.89,2.56 2.82,0.05 5.61,-0.54 8.36,-1.16 2.16,-0.49 4.32,-0.99 6.39,-1.76 3.2,-1.18 6.16,-2.96 8.72,-5.19 1.17,-1.01 2.26,-2.12 3.57,-2.94 1.15,-0.73 2.44,-1.21 3.62,-1.9 0.11,-0.06 0.21,-0.13 0.3,-0.2 0.1,-0.08 0.18,-0.18 0.24,-0.28 0.09,-0.19 0.09,-0.42 0.03,-0.62 -0.06,-0.2 -0.18,-0.38 -0.31,-0.55 -0.15,-0.18 -0.31,-0.34 -0.49,-0.5 -1.23,-1.05 -2.89,-1.43 -4.51,-1.56 -1.61,-0.12 -3.24,-0.03 -4.83,-0.3 -1.5,-0.25 -2.92,-0.81 -4.37,-1.27 -1.52,-0.49 -3.07,-0.87 -4.64,-1.13 -3.71,-0.61 -7.52,-0.49 -11.19,0.27 -3.49,0.73 -6.87,2.05 -9.94,3.87 z" />
            <path
               style="fill:url(#linearGradient5330)"
               id="mandible_upper_base"
               d="m 83.94,63.95 c -1.66,1.12 -3.16,2.49 -4.43,4.04 -0.72,0.89 -1.38,1.86 -1.74,2.94 -0.29,0.86 -0.39,1.76 -0.57,2.65 -0.07,0.33 -0.15,0.66 -0.14,1 0,0.16 0.02,0.33 0.07,0.5 0.05,0.16 0.14,0.31 0.25,0.43 0.2,0.2 0.47,0.31 0.74,0.37 0.28,0.05 0.56,0.06 0.84,0.09 1.25,0.15 2.4,0.75 3.44,1.47 1.04,0.71 2,1.55 3.07,2.22 2.35,1.49 5.16,2.15 7.95,2.26 2.78,0.11 5.56,-0.31 8.3,-0.86 2.17,-0.43 4.33,-0.95 6.39,-1.76 3.16,-1.25 6.01,-3.16 8.72,-5.19 1.24,-0.92 2.46,-1.87 3.57,-2.94 0.37,-0.37 0.74,-0.74 1.14,-1.08 0.4,-0.33 0.85,-0.62 1.35,-0.78 0.76,-0.24 1.58,-0.17 2.37,-0.04 0.59,0.1 1.18,0.23 1.78,0.21 0.3,-0.02 0.6,-0.07 0.88,-0.18 0.28,-0.11 0.54,-0.28 0.73,-0.52 0.25,-0.3 0.38,-0.7 0.38,-1.09 0,-0.4 -0.12,-0.79 -0.32,-1.13 -0.4,-0.68 -1.09,-1.14 -1.81,-1.46 -0.99,-0.44 -2.06,-0.65 -3.11,-0.91 -3.23,-0.78 -6.37,-1.93 -9.34,-3.41 -1.48,-0.73 -2.92,-1.54 -4.37,-2.32 -1.5,-0.8 -3.02,-1.57 -4.64,-2.07 -3.64,-1.1 -7.6,-0.74 -11.19,0.51 -3.98,1.38 -7.58,3.84 -10.31,7.05 z" />
            <path
               style="fill:#f6da4a;filter:url(#blur_mandible_upper_glare)"
               id="mandible_upper_glare"
               clip-path="url(#clip_mandible_upper)"
               d="m 109.45,64.75 c -0.2,-0.24 -0.48,-0.42 -0.78,-0.51 -0.3,-0.09 -0.62,-0.09 -0.93,-0.04 -0.62,0.11 -1.18,0.44 -1.7,0.8 -1.47,1.01 -2.77,2.26 -3.91,3.64 -1.5,1.83 -2.74,3.94 -3.16,6.27 -0.07,0.39 -0.11,0.8 -0.07,1.19 0.05,0.4 0.2,0.79 0.49,1.07 0.24,0.25 0.58,0.4 0.92,0.45 0.35,0.05 0.71,0 1.04,-0.11 0.66,-0.22 1.21,-0.69 1.74,-1.15 2.87,-2.58 5.47,-5.66 6.51,-9.38 0.1,-0.37 0.19,-0.75 0.19,-1.14 0,-0.39 -0.1,-0.78 -0.34,-1.09 z" />
            <path
               style="opacity:0.8;fill:url(#fill_naris_left);filter:url(#blur_naris_left)"
               id="naris_left"
               d="m 92.72,59.06 c -0.77,-0.25 -2.03,1.1 -1.62,1.79 0.11,0.19 0.46,0.43 0.7,0.3 0.35,-0.19 0.64,-0.89 1.02,-1.16 0.25,-0.18 0.2,-0.84 -0.1,-0.93 z" />
            <path
               style="opacity:0.8;fill:url(#fill_naris_right);filter:url(#blur_naris_right)"
               id="naris_right"
               d="m 102.56,59.42 c 0.2,0.64 1.23,0.53 1.83,0.84 0.52,0.27 0.94,0.86 1.53,0.88 0.56,0.01 1.44,-0.2 1.51,-0.76 0.09,-0.73 -0.98,-1.2 -1.67,-1.47 -0.89,-0.34 -2.03,-0.52 -2.86,-0.06 -0.19,0.11 -0.4,0.36 -0.34,0.57 z" />
          </g>
          <path
             style="fill:url(#fill_beak_corner);filter:url(#blur_beak_corner)"
             id="beak_corner"
             clip-path="url(#clip_beak)"
             d="m 129.27,69.15 a 2.42,3.1 16.94 0 1 -2.81,3.04 2.42,3.1 16.94 0 1 -2.12,-3.04 2.42,3.1 16.94 0 1 2.81,-3.05 2.42,3.1 16.94 0 1 2.12,3.05 z" />
        </g>
      </g>
    </g>
  </g>
</svg>
